<?xml version="1.0" encoding="utf-8" ?><svg xmlns="http://www.w3.org/2000/svg" xmlns:xlink="http://www.w3.org/1999/xlink" width="284" height="195" viewBox="0 0 284 195"><clipPath id="cl_7"><rect y="6.1035156e-05" width="284" height="195"/></clipPath><g clip-path="url(#cl_7)"><path fill="#D1DFFE" transform="translate(-634 -561)" d="M699.01 601.145C703.512 601.797 716.314 601.521 721.479 601.51C730.198 601.514 738.59 601.457 747.308 601.987C761.429 602.189 775.478 601.987 789.597 602.409L790.189 602.519L812.23 602.497C812.015 610.184 811.965 617.783 811.922 625.473L815.383 625.363C821.274 625.34 831.324 624.984 836.881 625.394L836.957 647.441L879.571 647.416C879.829 653.856 879.774 659.928 879.716 666.373C881.41 668.262 882.982 670.062 884.619 672.004C891.465 671.929 898.5 671.883 905.334 671.651C905.571 686.613 905.303 701.409 905.97 716.369C898.244 716.45 890.465 716.58 882.745 716.518L882.66 718.98C882.88 726.062 882.872 733.402 882.758 740.489C874.813 740.284 866.234 740.545 858.245 740.707C805.034 741.792 751.678 740.373 698.49 740.99L698.514 718.361C691.247 718.318 683.141 718.111 675.961 718.495C675.871 711.804 675.463 701.65 675.874 695.264C675.769 695.04 675.134 694.3 674.95 694.073C667.869 694.224 659.841 693.431 652.163 693.508C651.734 678.85 652.083 661.733 652.173 646.986C657.68 646.978 670.563 646.657 675.449 647.329C675.883 644.929 675.627 628.312 675.622 625.021C683.26 625.286 691.156 624.942 698.907 625.076C699.282 617.075 699.326 609.147 699.01 601.145Z"/><path fill="#95A9F0" transform="translate(-634 -561)" d="M721.606 694.478L745.434 694.618C760.234 694.945 776.175 695.157 790.951 694.91L790.931 717.898C793.593 717.94 796.084 717.839 798.669 718.435L814.437 718.471C826.009 719.805 846.174 718.613 858.611 719.065C864.517 719.355 876.619 719.367 882.66 718.98C882.88 726.062 882.872 733.402 882.758 740.489C874.813 740.284 866.234 740.545 858.245 740.707C805.034 741.792 751.678 740.373 698.49 740.99L698.514 718.361C698.5 710.816 698.811 702.985 698.838 695.334C701.627 693.369 717.551 694.333 721.606 694.478Z"/><path fill="#AEC8FE" transform="translate(-634 -561)" d="M721.606 694.478L745.434 694.618C760.234 694.945 776.175 695.157 790.951 694.91L790.931 717.898C793.593 717.94 796.084 717.839 798.669 718.435C787.088 723.488 728.196 717.282 712.031 719.888C709.796 720.248 700.443 720.066 698.876 718.544L698.514 718.361C698.5 710.816 698.811 702.985 698.838 695.334C701.627 693.369 717.551 694.333 721.606 694.478Z"/><path fill="#C5C0FE" transform="translate(-634 -561)" d="M721.606 694.478L745.434 694.618C744.797 702.289 745.526 711.09 744.917 718.369C729.797 720.021 714.506 717.992 698.876 718.544L698.514 718.361C698.5 710.816 698.811 702.985 698.838 695.334C701.627 693.369 717.551 694.333 721.606 694.478Z"/><path fill="#95A9F0" transform="translate(-634 -561)" d="M815.383 625.363C821.274 625.34 831.324 624.984 836.881 625.394L836.957 647.441L879.571 647.416C879.829 653.856 879.774 659.928 879.716 666.373C881.41 668.262 882.982 670.062 884.619 672.004C891.465 671.929 898.5 671.883 905.334 671.651C905.571 686.613 905.303 701.409 905.97 716.369C898.244 716.45 890.465 716.58 882.745 716.518L882.66 718.98C876.619 719.367 864.517 719.355 858.611 719.065C846.174 718.613 826.009 719.805 814.437 718.471C814.86 715.26 814.639 699.239 814.689 694.995C821.729 695.173 830.753 695.652 837.57 695.038C837.717 686.947 837.637 678.984 837.554 670.893C847.112 671.004 859.417 671.464 868.732 670.91C863.989 670.408 853.563 670.519 848.328 670.515L815.461 670.435C815.599 655.933 813.645 638.767 815.383 625.363Z"/><path fill="#C5C0FE" transform="translate(-634 -561)" d="M837.57 695.038L860.211 694.965L860.168 695.674C859.922 700.053 860.798 715.581 859.973 718.016L858.611 719.065C846.174 718.613 826.009 719.805 814.437 718.471C814.86 715.26 814.639 699.239 814.689 694.995C821.729 695.173 830.753 695.652 837.57 695.038Z"/><path fill="#F8F8F8" transform="translate(-634 -561)" d="M868.732 670.91C871.945 670.919 878.047 671.107 881.013 670.709L882.174 671.399C883.024 674.808 882.325 684.623 882.619 688.773L882.444 693.311L882.299 694.346C880.095 695.421 863.499 694.985 860.211 694.965L837.57 695.038C837.717 686.947 837.637 678.984 837.554 670.893C847.112 671.004 859.417 671.464 868.732 670.91Z"/><path fill="#D1DFFE" transform="translate(-634 -561)" d="M881.013 670.709L882.174 671.399C883.024 674.808 882.325 684.623 882.619 688.773L882.444 693.311C881.055 688.83 879.864 675.23 881.013 670.709Z"/><path fill="#AEC8FE" transform="translate(-634 -561)" d="M882.619 688.773C883.593 696.599 883.866 708.975 882.745 716.518L882.66 718.98C876.619 719.367 864.517 719.355 858.611 719.065L859.973 718.016C860.798 715.581 859.922 700.053 860.168 695.674L860.211 694.965C863.499 694.985 880.095 695.421 882.299 694.346L882.444 693.311L882.619 688.773Z"/><path fill="#F8F8F8" transform="translate(-634 -561)" d="M747.308 601.987C761.429 602.189 775.478 601.987 789.597 602.409L790.189 602.519L812.23 602.497C812.015 610.184 811.965 617.783 811.922 625.473L815.383 625.363C813.645 638.767 815.599 655.933 815.461 670.435L814.106 670.765C800.165 671.493 782.523 670.829 768.076 670.975L767.95 647.519C760.786 647.522 753.504 647.687 746.331 647.782C746.291 636.969 746.078 626.898 747.321 616.16C747.783 612.171 747.392 606.133 747.308 601.987Z"/><path fill="#95A9F0" transform="translate(-634 -561)" d="M790.189 602.519L812.23 602.497C812.015 610.184 811.965 617.783 811.922 625.473L791.499 625.389C791.45 618.724 791.643 608.839 790.189 602.519Z"/><path fill="#AEC8FE" transform="translate(-634 -561)" d="M675.622 625.021C683.26 625.286 691.156 624.942 698.907 625.076C698.113 629.413 698.446 643.38 698.484 648.291L698.512 670.905C706.109 670.942 713.987 671.092 721.56 671.003L721.606 694.478C717.551 694.333 701.627 693.369 698.838 695.334C698.811 702.985 698.5 710.816 698.514 718.361C691.247 718.318 683.141 718.111 675.961 718.495C675.871 711.804 675.463 701.65 675.874 695.264C675.769 695.04 675.134 694.3 674.95 694.073C667.869 694.224 659.841 693.431 652.163 693.508C651.734 678.85 652.083 661.733 652.173 646.986C657.68 646.978 670.563 646.657 675.449 647.329C675.883 644.929 675.627 628.312 675.622 625.021Z"/><path fill="#95A9F0" transform="translate(-634 -561)" d="M675.622 625.021C683.26 625.286 691.156 624.942 698.907 625.076C698.113 629.413 698.446 643.38 698.484 648.291C692.505 648.302 681.022 647.828 675.541 648.171C675.447 657.302 673.219 687.29 674.95 694.073C667.869 694.224 659.841 693.431 652.163 693.508C651.734 678.85 652.083 661.733 652.173 646.986C657.68 646.978 670.563 646.657 675.449 647.329C675.883 644.929 675.627 628.312 675.622 625.021Z"/><path fill="#95A9F0" transform="translate(-634 -561)" d="M675.961 718.495C675.871 711.804 675.463 701.65 675.874 695.264C680.656 695.71 693.997 695.901 698.838 695.334C698.811 702.985 698.5 710.816 698.514 718.361C691.247 718.318 683.141 718.111 675.961 718.495Z"/><path fill="#DBD7FE" transform="translate(-634 -561)" d="M815.461 670.435L848.328 670.515C853.563 670.519 863.989 670.408 868.732 670.91C859.417 671.464 847.112 671.004 837.554 670.893C837.637 678.984 837.717 686.947 837.57 695.038C830.753 695.652 821.729 695.173 814.689 694.995C814.639 699.239 814.86 715.26 814.437 718.471L798.669 718.435C796.084 717.839 793.593 717.94 790.931 717.898L790.951 694.91C797.147 692.71 833.473 695.986 836.664 693.607C837.262 687.71 836.998 677.93 837 671.723C831.388 671.923 821.49 670.661 815.18 671.3C814.86 671.332 814.42 670.983 814.106 670.765L815.461 670.435Z"/><path fill="#95A9F0" transform="translate(-634 -561)" d="M699.01 601.145C703.512 601.797 716.314 601.521 721.479 601.51L721.505 625.074C714.106 625.2 706.296 625.407 698.907 625.076C699.282 617.075 699.326 609.147 699.01 601.145Z"/><path fill="#95A9F0" transform="translate(-634 -561)" d="M721.479 578.063C730.327 578.525 741.022 578.244 749.985 578.224C763.067 578.195 776.559 578.389 789.588 578.041L789.597 602.409C775.478 601.987 761.429 602.189 747.308 601.987C738.59 601.457 730.198 601.514 721.479 601.51L721.479 578.063Z"/></g></svg>