<?xml version="1.0" encoding="utf-8" ?><svg xmlns="http://www.w3.org/2000/svg" xmlns:xlink="http://www.w3.org/1999/xlink" width="573" height="341" viewBox="0 0 573 341"><clipPath id="cl_4"><rect y="6.1035156e-05" width="573" height="341"/></clipPath><g clip-path="url(#cl_4)"><path fill="#D1DFFE" transform="translate(-15 -103)" d="M259.744 115.915C291.782 115.49 324.004 116.225 356.058 116.101C362.193 116.077 368.778 116.985 374.128 116.929C374.128 123.4 373.868 132.075 374.218 138.368L375.745 138.87C382.735 138.949 389.979 139.12 396.944 138.949C396.805 146.61 396.872 154.012 396.981 161.676L397.457 161.892C405.089 161.868 412.818 161.871 420.448 162.063C420.445 169.815 420.573 177.98 420.395 185.698C427.362 186.031 434.177 185.752 441.068 185.943C441.014 200.874 441.325 215.777 441.228 230.681L441.891 231.168L445.121 231.008C459.591 231.208 473.991 231.199 488.462 231.017C488.426 235.239 487.554 249.267 488.9 252.295C490.018 253.414 489.898 252.967 490.323 254.291C492.199 256.765 492.903 256.454 495.918 256.066C503.588 256.406 513.005 256.326 520.727 256.049C525.452 256.056 530.115 256.055 534.843 255.96C534.907 262.599 535.035 269.332 534.925 275.96C535.418 276.973 535.2 276.865 535.973 277.537C541.213 276.868 552.544 277.548 558.615 277.307C558.629 292.544 558.311 309.057 558.797 324.16L559.024 324.297C567.009 324.681 572.62 324.98 580.618 324.474C580.544 336.809 579.904 357.782 580.802 369.531C573.85 370.181 566.472 370.781 559.503 371.157C559.563 378.029 559.901 385.332 559.885 392.08C552.635 392.301 543.935 392.724 536.72 392.274L536.555 395.529C536.672 401.048 537.076 409.948 536.576 415.167L460.245 415.41C447.659 415.414 433.684 415.142 421.213 415.607L420.982 417.387C421.233 423.951 421.085 431.542 421.117 438.187C398.976 439.849 367.937 438.97 345.049 439.033L213.051 439.485L213.02 416.3L212.305 415.719C200.053 416.056 185.872 415.56 173.339 415.548L76.037 415.516C76.02 409.751 76.0751 398.807 75.1429 393.262C72.5241 392.754 55.5561 393.004 51.8601 393.014L51.9422 373.952C51.9553 372.601 51.7688 371.81 51.5345 370.502C44.7413 370.464 34.6342 369.855 28.3086 370.36C28.5986 354.978 28.4905 339.34 28.4975 323.949C35.4553 323.336 44.3809 323.377 51.3921 323.346L51.845 323.113L52.0519 301.441C56.7217 300.92 68.5396 301.264 73.6467 301.388C73.0801 286.47 74.4832 269.173 73.6021 254.606L93.6922 254.627L99.8637 254.5C100.021 246.934 99.8717 239.001 99.8239 231.405C106.957 231.435 113.87 231.471 120.998 231.215C120.746 223.539 120.826 216.161 121.007 208.492L189.746 208.653L190.083 185.033C218.283 184.844 213.872 189.857 213.968 161.523C221.462 161.624 229.036 161.79 236.522 161.613L236.448 137.403L259.671 137.489C259.622 130.492 259.569 122.889 259.744 115.915Z"/><path fill="#AEC8FE" transform="translate(-15 -103)" d="M51.845 323.113C57.6241 324.047 67.8306 322.878 74.1535 323.478C74.4141 331.376 74.4842 339.816 74.4194 347.718L143.415 347.86C173.919 347.826 205.96 347.443 236.338 348.15L236.501 370.804C247.367 370.259 259.495 370.469 270.455 370.466L329.346 370.536C329.294 362.986 329.399 355.565 329.529 348.015C358.357 347.017 390.759 348.013 420.054 347.972C420.073 355.429 420.017 363.033 420.181 370.476L480.055 370.407C488.991 370.401 502.793 369.984 511.346 370.54C511.66 363.305 511.533 355.198 511.565 347.897L536.862 347.88C544.074 347.954 551.666 347.742 558.944 347.726C558.917 341.766 558.837 335.833 559.083 329.878L559.024 324.297C567.009 324.681 572.62 324.98 580.618 324.474C580.544 336.809 579.904 357.782 580.802 369.531C573.85 370.181 566.472 370.781 559.503 371.157C559.563 378.029 559.901 385.332 559.885 392.08C552.635 392.301 543.935 392.724 536.72 392.274L536.555 395.529C536.672 401.048 537.076 409.948 536.576 415.167L460.245 415.41C447.659 415.414 433.684 415.142 421.213 415.607L420.982 417.387C421.233 423.951 421.085 431.542 421.117 438.187C398.976 439.849 367.937 438.97 345.049 439.033L213.051 439.485L213.02 416.3L212.305 415.719C200.053 416.056 185.872 415.56 173.339 415.548L76.037 415.516C76.02 409.751 76.0751 398.807 75.1429 393.262C72.5241 392.754 55.5561 393.004 51.8601 393.014L51.9422 373.952C51.9553 372.601 51.7688 371.81 51.5345 370.502C44.7413 370.464 34.6342 369.855 28.3086 370.36C28.5986 354.978 28.4905 339.34 28.4975 323.949C35.4553 323.336 44.3809 323.377 51.3921 323.346L51.845 323.113Z"/><path fill="#95A9F0" transform="translate(-15 -103)" d="M213.02 416.3C222.677 417.66 242.572 416.971 253.077 416.923L329.672 416.528C357.003 416.52 384.238 416.907 411.556 417.61C414.614 417.688 417.938 417.633 420.982 417.387C421.233 423.951 421.085 431.542 421.117 438.187C398.976 439.849 367.937 438.97 345.049 439.033L213.051 439.485L213.02 416.3Z"/><path fill="#95A9F0" transform="translate(-15 -103)" d="M75.1429 393.262C78.2925 394.908 122.797 393.677 130.309 393.614C157.527 393.387 184.602 393.461 211.84 394.05C211.812 397.646 211.559 412.688 212.305 415.719C200.053 416.056 185.872 415.56 173.339 415.548L76.037 415.516C76.02 409.751 76.0751 398.807 75.1429 393.262Z"/><path fill="#95A9F0" transform="translate(-15 -103)" d="M420.953 395.375C437.097 395.562 457.053 395.163 472.999 395.501C483.441 395.723 529.287 397.57 536.555 395.529C536.672 401.048 537.076 409.948 536.576 415.167L460.245 415.41C447.659 415.414 433.684 415.142 421.213 415.607C420.763 409.95 420.973 401.26 420.953 395.375Z"/><path fill="#C5C0FE" transform="translate(-15 -103)" d="M74.4194 347.718L143.415 347.86L143.501 370.46C120.55 370.974 97.4626 370.321 74.5725 370.754L74.4194 347.718Z"/><path fill="#95A9F0" transform="translate(-15 -103)" d="M28.4975 323.949C35.4553 323.336 44.3809 323.377 51.3921 323.346C51.0427 328.864 50.6632 367.98 51.5345 370.502C44.7413 370.464 34.6342 369.855 28.3086 370.36C28.5986 354.978 28.4905 339.34 28.4975 323.949Z"/><path fill="#95A9F0" transform="translate(-15 -103)" d="M559.024 324.297C567.009 324.681 572.62 324.98 580.618 324.474C580.544 336.809 579.904 357.782 580.802 369.531C573.85 370.181 566.472 370.781 559.503 371.157C559.204 358.904 559.997 341.308 559.083 329.878L559.024 324.297Z"/><path fill="#C5C0FE" transform="translate(-15 -103)" d="M511.565 347.897L536.862 347.88C536.912 355.523 537.043 363.328 536.903 370.956C531.403 370.86 515.851 371.122 511.346 370.54C511.66 363.305 511.533 355.198 511.565 347.897Z"/><path fill="#95A9F0" transform="translate(-15 -103)" d="M536.946 371.158C541.807 371.609 554.917 371.787 559.503 371.157C559.563 378.029 559.901 385.332 559.885 392.08C552.635 392.301 543.935 392.724 536.72 392.274C537.278 387.376 536.973 376.518 536.946 371.158Z"/><path fill="#95A9F0" transform="translate(-15 -103)" d="M51.9422 373.952C59.5726 373.526 66.9539 373.486 74.598 373.43C74.6496 377.306 74.5726 389.946 75.1429 393.262C72.5241 392.754 55.5561 393.004 51.8601 393.014L51.9422 373.952Z"/><path fill="#F8F8F8" transform="translate(-15 -103)" d="M259.744 115.915C291.782 115.49 324.004 116.225 356.058 116.101C362.193 116.077 368.778 116.985 374.128 116.929C374.128 123.4 373.868 132.075 374.218 138.368L375.745 138.87C382.735 138.949 389.979 139.12 396.944 138.949C396.805 146.61 396.872 154.012 396.981 161.676L397.457 161.892C405.089 161.868 412.818 161.871 420.448 162.063C420.445 169.815 420.573 177.98 420.395 185.698C427.362 186.031 434.177 185.752 441.068 185.943C441.014 200.874 441.325 215.777 441.228 230.681L441.891 231.168L445.121 231.008C459.591 231.208 473.991 231.199 488.462 231.017C488.426 235.239 487.554 249.267 488.9 252.295C490.018 253.414 489.898 252.967 490.323 254.291C492.199 256.765 492.903 256.454 495.918 256.066C503.588 256.406 513.005 256.326 520.727 256.049C525.452 256.056 530.115 256.055 534.843 255.96C534.907 262.599 535.035 269.332 534.925 275.96C535.418 276.973 535.2 276.865 535.973 277.537C541.213 276.868 552.544 277.548 558.615 277.307C558.629 292.544 558.311 309.057 558.797 324.16C555.348 324.125 539.109 324.178 536.875 322.947C533.518 324.301 510.199 323.98 504.972 323.856C502.705 323.772 500.236 323.883 497.953 323.901C479.934 324.043 461.955 323.945 443.941 324.407C444.016 316.835 443.815 310.276 443.452 302.703L421.449 302.437L421.442 277.513C412.494 277.396 401.663 277.355 392.841 278.442L376.624 278.494L375.913 278.11C375.013 276.112 375.398 259.439 375.415 256.356C360.14 256.684 343.893 256.566 328.599 256.314C328.482 240.689 328.029 225.185 328.036 209.55C320.675 209.395 312.89 209.521 305.496 209.521L305.495 184.466L282.862 184.507C283.462 168.993 283.615 153.419 283.892 137.89L259.671 137.489C259.622 130.492 259.569 122.889 259.744 115.915Z"/><path fill="#95A9F0" transform="translate(-15 -103)" d="M259.744 115.915C291.782 115.49 324.004 116.225 356.058 116.101C362.193 116.077 368.778 116.985 374.128 116.929C374.128 123.4 373.868 132.075 374.218 138.368L370.664 138.538L283.892 137.89L259.671 137.489C259.622 130.492 259.569 122.889 259.744 115.915Z"/><path fill="#DBD7FE" transform="translate(-15 -103)" d="M419.444 221.89C419.508 225.125 419.566 228.168 419.474 231.407C422.426 231.485 439.905 232.121 441.891 231.168L445.121 231.008C444.206 235.598 444.478 248.017 444.507 253.114C446.794 253.138 451.521 253.079 453.595 253.433C448.03 253.592 442.483 254.415 437 254.483C423.985 254.645 410.893 255.041 397.92 253.969C397.591 246.421 397.849 238.501 397.978 230.915C404.975 231.058 411.852 231.241 418.85 231.06C418.907 227.522 418.958 225.378 419.444 221.89Z"/><path fill="#95A9F0" transform="translate(-15 -103)" d="M535.973 277.537C541.213 276.868 552.544 277.548 558.615 277.307C558.629 292.544 558.311 309.057 558.797 324.16C555.348 324.125 539.109 324.178 536.875 322.947C536.951 315.099 536.953 300.176 536.067 292.47C536.135 287.825 536.118 283.362 536.049 278.72L535.973 277.537Z"/><path fill="#95A9F0" transform="translate(-15 -103)" d="M420.395 185.698C427.362 186.031 434.177 185.752 441.068 185.943C441.014 200.874 441.325 215.777 441.228 230.681L441.891 231.168C439.905 232.121 422.426 231.485 419.474 231.407C419.566 228.168 419.508 225.125 419.444 221.89C419.497 209.694 419.65 197.813 419.997 185.623L420.395 185.698Z"/><path fill="#95A9F0" transform="translate(-15 -103)" d="M445.121 231.008C459.591 231.208 473.991 231.199 488.462 231.017C488.426 235.239 487.554 249.267 488.9 252.295C485.655 252.48 478.8 252.857 475.748 253.44C468.441 253.55 460.919 253.446 453.595 253.433C451.521 253.079 446.794 253.138 444.507 253.114C444.478 248.017 444.206 235.598 445.121 231.008Z"/><path fill="#95A9F0" transform="translate(-15 -103)" d="M490.323 254.291C492.199 256.765 492.903 256.454 495.918 256.066C503.588 256.406 513.005 256.326 520.727 256.049C525.452 256.056 530.115 256.055 534.843 255.96C534.907 262.599 535.035 269.332 534.925 275.96C532.582 275.142 496.898 275.195 490.661 274.856C490.585 271.286 489.46 255.887 490.323 254.291Z"/><path fill="#DBD7FE" transform="translate(-15 -103)" d="M536.067 292.47C536.953 300.176 536.951 315.099 536.875 322.947C533.518 324.301 510.199 323.98 504.972 323.856L511.35 323.386C511.167 316.145 511.203 309.888 511.427 302.645C519.693 302.723 527.954 302.64 536.219 302.579C535.967 298.692 535.874 296.338 536.067 292.47Z"/><path fill="#95A9F0" transform="translate(-15 -103)" d="M397.457 161.892C405.089 161.868 412.818 161.871 420.448 162.063C420.445 169.815 420.573 177.98 420.395 185.698L419.997 185.623C415.253 185.084 403.535 185.378 397.9 185.223C397.877 178.476 398.216 168.19 397.457 161.892Z"/><path fill="#95A9F0" transform="translate(-15 -103)" d="M375.745 138.87C382.735 138.949 389.979 139.12 396.944 138.949C396.805 146.61 396.872 154.012 396.981 161.676L375.604 161.63C376.044 154.175 375.89 146.329 375.745 138.87Z"/><path fill="#DBD7FE" transform="translate(-15 -103)" d="M475.748 253.44C478.8 252.857 485.655 252.48 488.9 252.295C490.018 253.414 489.898 252.967 490.323 254.291C489.46 255.887 490.585 271.286 490.661 274.856C496.898 275.195 532.582 275.142 534.925 275.96C535.418 276.973 535.2 276.865 535.973 277.537L536.049 278.72L491.242 278.704C490.245 277.636 488.937 276.522 487.831 275.525C487.286 269.908 487.523 266.126 488.149 260.564C488.107 264.191 487.799 272.43 488.755 275.485L489.54 275.819C490.359 269.93 488.96 261.218 488.622 254.843C487.108 254.2 477.768 253.602 475.748 253.44Z"/><path fill="#DBD7FE" transform="translate(-15 -103)" d="M374.218 138.368L375.745 138.87C375.89 146.329 376.044 154.175 375.604 161.63C374.07 161.781 372.916 161.78 371.392 161.785C371.592 153.544 370.484 145.276 370.664 138.538L374.218 138.368Z"/><path fill="#F8F8F8" transform="translate(-15 -103)" d="M145.049 230.918C160.778 230.972 177.548 230.599 193.126 231.012L213.901 231.5L213.871 255.416C220.954 255.452 228.904 255.309 235.912 255.561C236.361 263.513 236.479 271.053 236.577 279.023C242.802 278.889 254.271 279.973 259.449 278.959L259.765 324.469C238.41 324.571 212.241 325.699 191.014 324.54C191.212 317.932 190.769 309.508 190.578 302.764C183.11 302.094 173.066 302.851 165.058 302.727C163.681 278.341 170.168 277.471 143.831 278.522C143.718 272.023 143.353 263.383 143.664 256.985C144.107 247.878 144.972 240.178 145.049 230.918Z"/><path fill="#95A9F0" transform="translate(-15 -103)" d="M236.448 137.403L259.671 137.489C259.194 144.681 259.499 154.181 259.542 161.585L236.489 161.509C236.211 169.425 235.926 177.084 235.998 185.002C230.277 184.989 218.571 184.466 213.545 184.898L213.468 191.486C212.992 197.452 212.992 202.805 212.964 208.777C206.2 208.507 199.728 208.705 193.023 208.597C192.857 216.178 192.98 223.427 193.126 231.012C177.548 230.599 160.778 230.972 145.049 230.918L121.228 231.045C121.294 238.945 121.468 247.087 121.413 254.967C114.518 254.932 106.695 255.042 99.8637 254.5C100.021 246.934 99.8717 239.001 99.8239 231.405C106.957 231.435 113.87 231.471 120.998 231.215C120.746 223.539 120.826 216.161 121.007 208.492L189.746 208.653L190.083 185.033C218.283 184.844 213.872 189.857 213.968 161.523C221.462 161.624 229.036 161.79 236.522 161.613L236.448 137.403Z"/><path fill="#AEC8FE" transform="translate(-15 -103)" d="M193.023 208.597C199.728 208.705 206.2 208.507 212.964 208.777L215.093 209.863C222.108 210.033 228.991 210.007 236.009 209.974C236.171 217.945 236.177 225.439 236.048 233.412L259.403 233.403L259.548 255.555C251.951 255.642 243.423 255.915 235.912 255.561C228.904 255.309 220.954 255.452 213.871 255.416L213.901 231.5L193.126 231.012C192.98 223.427 192.857 216.178 193.023 208.597Z"/><path fill="#95A9F0" transform="translate(-15 -103)" d="M73.6021 254.606L93.6922 254.627C93.5757 260.163 94.0751 265.341 94.6674 270.831C95.7609 280.966 95.5494 291.208 95.9197 301.397C95.9697 308.711 95.9022 316.399 96.1223 323.68C89.5121 323.301 81.007 323.57 74.1535 323.478C67.8306 322.878 57.6241 324.047 51.845 323.113L52.0519 301.441C56.7217 300.92 68.5396 301.264 73.6467 301.388C73.0801 286.47 74.4832 269.173 73.6021 254.606Z"/><path fill="#AEC8FE" transform="translate(-15 -103)" d="M95.9197 301.397C103.864 301.549 111.575 301.633 119.52 301.572C119.528 308.974 119.632 316.608 119.493 323.991C115.043 324.014 99.6511 324.275 96.1223 323.68C95.9022 316.399 95.9697 308.711 95.9197 301.397Z"/><path fill="#AEC8FE" transform="translate(-15 -103)" d="M376.624 278.494L392.841 278.442C394.406 278.497 396.367 278.357 397.629 279.145C398.752 283.539 398.185 296.307 397.977 301.435C394.046 301.426 378.493 301.619 375.487 300.977C375.96 295.506 375.628 284.881 375.734 278.743L376.624 278.494Z"/><path fill="#AEC8FE" transform="translate(-15 -103)" d="M213.468 191.486C215.711 195.536 215.077 204.774 215.093 209.863L212.964 208.777C212.992 202.805 212.992 197.452 213.468 191.486Z"/><defs><linearGradient id="gradient_0" gradientUnits="userSpaceOnUse" x1="369.25272" y1="286.74249" x2="288.47842" y2="314.52191"><stop offset="0" stop-color="#FCFCF7"/><stop offset="1" stop-color="#F0F0FD"/></linearGradient></defs><path fill="url(#gradient_0)" transform="translate(-15 -103)" d="M283.472 276.391L352.15 275.596C351.995 279.894 352.149 285.001 352.169 289.358C352.067 293.24 351.914 297.231 351.917 301.104L375.074 301.102C376.219 303.053 375.882 321.504 375.93 325.394C352.627 325.077 329.25 325.376 306.091 324.957L305.914 303.144L283.417 302.858L283.472 276.391Z"/></g></svg>