<?xml version="1.0" encoding="utf-8" ?><svg xmlns="http://www.w3.org/2000/svg" xmlns:xlink="http://www.w3.org/1999/xlink" width="411" height="204" viewBox="0 0 411 204"><clipPath id="cl_6"><rect y="6.1035156e-05" width="411" height="204"/></clipPath><g clip-path="url(#cl_6)"><path fill="#AEC8FE" transform="translate(-613 -196)" d="M721.989 209.128C759.237 208.328 799.649 208.892 837.039 209.047C837.077 213.387 836.745 227.901 837.504 231.309L837.923 231.361C845.207 231.174 852.791 231.606 860.133 231.579C860.14 239.01 860.354 247.645 860.051 254.979C882.687 255.047 905.836 255.223 928.444 254.961C928.476 262.155 928.577 269.465 928.512 276.648L929.256 276.958C934.195 277.921 945.131 277.584 950.64 277.53C950.813 285.489 950.944 293.304 950.936 301.264C957.918 301.356 966.175 301.629 973.028 301.165C973.004 308.338 972.839 316.103 973.303 323.209C980.156 323.371 988.31 324.445 995.266 325.134C995.081 339.058 995.351 353.467 995.448 367.425C988.376 367.543 981.199 367.6 974.14 367.856L973.761 367.908C973.729 375.529 973.517 383.868 973.684 391.427C960.689 390.87 946.297 391.18 933.205 391.258L870.819 391.876C830.859 392.524 790.713 391.683 750.737 392.157C741.089 392.271 731.516 392.305 721.866 392.135L721.944 370.362L721.672 370.145C698.32 370.572 674.897 370.48 651.537 370.49L651.532 347.796C643.752 347.839 637.008 347.73 629.293 346.82C628.73 332.374 629.253 316.436 629.034 301.714C636.43 301.434 644.531 301.531 651.985 301.495C652.474 299.791 652.354 281.276 652.377 278.485C679.269 278.43 675.569 282.781 675.512 255.03C683.3 255.138 690.775 255.117 698.563 254.99L698.889 254.705C698.704 246.43 698.77 238.8 698.949 230.519C706.689 230.611 714.508 230.559 722.255 230.563C721.746 224.718 722 215.245 721.989 209.128Z"/><path fill="#F8F8F8" transform="translate(-613 -196)" d="M721.989 209.128C759.237 208.328 799.649 208.892 837.039 209.047C837.077 213.387 836.745 227.901 837.504 231.309L837.923 231.361C845.207 231.174 852.791 231.606 860.133 231.579C860.14 239.01 860.354 247.645 860.051 254.979C882.687 255.047 905.836 255.223 928.444 254.961C928.476 262.155 928.577 269.465 928.512 276.648L929.256 276.958C929.004 292.897 929.562 307.686 929.523 323.491C921.528 323.88 914.146 324.144 906.126 323.511C904.162 323.575 901.887 323.466 899.899 323.419L883.096 323.486C868.06 324.014 853.282 323.432 838.404 323.991C830.515 324.129 822.384 324.048 814.476 324.068L768.509 324.043L768.322 301.736C747.338 302.553 720.252 301.671 698.882 301.449L698.666 301.151C698.152 294.351 698.445 283.834 698.461 276.753L698.563 254.99L698.889 254.705C698.704 246.43 698.77 238.8 698.949 230.519C706.689 230.611 714.508 230.559 722.255 230.563C721.746 224.718 722 215.245 721.989 209.128Z"/><path fill="#D1DFFE" transform="translate(-613 -196)" d="M721.989 209.128C759.237 208.328 799.649 208.892 837.039 209.047C837.077 213.387 836.745 227.901 837.504 231.309L832.755 231.416C824.024 231.82 814.917 231.461 806.155 231.544C785.868 231.734 765.116 231.061 744.869 231.478C745 246.238 745.165 262.083 745.645 276.812C760.89 276.666 775.819 277.953 790.722 277.649C790.939 284.814 790.766 294.721 791.447 301.479C798.527 301.498 807.045 301.298 814.006 301.63C814.523 309.36 814.566 316.307 814.476 324.068L768.509 324.043L768.322 301.736C747.338 302.553 720.252 301.671 698.882 301.449L698.666 301.151C698.152 294.351 698.445 283.834 698.461 276.753L698.563 254.99L698.889 254.705C698.704 246.43 698.77 238.8 698.949 230.519C706.689 230.611 714.508 230.559 722.255 230.563C721.746 224.718 722 215.245 721.989 209.128Z"/><path fill="#95A9F0" transform="translate(-613 -196)" d="M721.989 209.128C759.237 208.328 799.649 208.892 837.039 209.047C837.077 213.387 836.745 227.901 837.504 231.309L832.755 231.416C821.409 230.628 808.797 231.146 797.337 230.985C772.153 230.631 746.336 231.496 721.207 230.924C721.126 238.598 721.526 247.506 721.231 254.874C715.199 254.824 704.535 255.129 698.889 254.705C698.704 246.43 698.77 238.8 698.949 230.519C706.689 230.611 714.508 230.559 722.255 230.563C721.746 224.718 722 215.245 721.989 209.128Z"/><path fill="#95A9F0" transform="translate(-613 -196)" d="M860.051 254.979C882.687 255.047 905.836 255.223 928.444 254.961C928.476 262.155 928.577 269.465 928.512 276.648C924.26 276.562 915.234 276.243 911.42 276.958C909.604 276.965 907.759 276.91 905.941 276.874C899.658 275.756 866.91 276.972 860.063 277.501C860.133 274.568 860.05 272.171 859.92 269.251L860.051 254.979Z"/><path fill="#AEC8FE" transform="translate(-613 -196)" d="M859.623 300.995C859.544 291.645 859.114 278.227 859.92 269.251C860.05 272.171 860.133 274.568 860.063 277.501C866.91 276.972 899.658 275.756 905.941 276.874C899.546 278.748 890.599 278.359 883.791 278.363C883.781 285.724 884.117 293.199 883.544 300.508C875.766 300.922 867.453 300.895 859.623 300.995Z"/><path fill="#DBD7FE" transform="translate(-613 -196)" d="M928.512 276.648L929.256 276.958C929.004 292.897 929.562 307.686 929.523 323.491C921.528 323.88 914.146 324.144 906.126 323.511C904.162 323.575 901.887 323.466 899.899 323.419C901.483 323.188 904.176 323.225 905.86 323.196C905.875 316.081 906.168 308.631 906.378 301.497L927.341 301.477C927.703 294.17 927.294 283.294 927.834 277.208C922.349 277.01 916.97 277.251 911.42 276.958C915.234 276.243 924.26 276.562 928.512 276.648Z"/><path fill="#95A9F0" transform="translate(-613 -196)" d="M837.923 231.361C845.207 231.174 852.791 231.606 860.133 231.579C860.14 239.01 860.354 247.645 860.051 254.979C853.307 254.705 845.369 254.863 838.529 254.824C838.523 247.346 838.693 238.694 837.923 231.361Z"/><path fill="#95A9F0" transform="translate(-613 -196)" d="M721.944 370.362C731.049 369.586 743.464 370.126 752.898 369.933L831.25 368.511L929.338 367.581C940.008 367.581 964.006 366.966 973.761 367.908C973.729 375.529 973.517 383.868 973.684 391.427C960.689 390.87 946.297 391.18 933.205 391.258L870.819 391.876C830.859 392.524 790.713 391.683 750.737 392.157C741.089 392.271 731.516 392.305 721.866 392.135L721.944 370.362Z"/><path fill="#95A9F0" transform="translate(-613 -196)" d="M629.034 301.714C636.43 301.434 644.531 301.531 651.985 301.495C650.945 304.618 651.625 320.086 651.582 324.314L651.959 348.029C654.767 349.001 715.823 348.271 722.165 347.976C722.333 354.906 722.492 363.283 721.672 370.145C698.32 370.572 674.897 370.48 651.537 370.49L651.532 347.796C643.752 347.839 637.008 347.73 629.293 346.82C628.73 332.374 629.253 316.436 629.034 301.714Z"/><path fill="#95A9F0" transform="translate(-613 -196)" d="M929.256 276.958C934.195 277.921 945.131 277.584 950.64 277.53C950.813 285.489 950.944 293.304 950.936 301.264C957.918 301.356 966.175 301.629 973.028 301.165C973.004 308.338 972.839 316.103 973.303 323.209C980.156 323.371 988.31 324.445 995.266 325.134C995.081 339.058 995.351 353.467 995.448 367.425C988.376 367.543 981.199 367.6 974.14 367.856C974.763 361.925 974.32 352.517 974.042 346.496C973.845 340.999 974.552 328.217 973.566 323.519C959.125 323.744 944.02 323.502 929.523 323.491C929.562 307.686 929.004 292.897 929.256 276.958Z"/><path fill="#95A9F0" transform="translate(-613 -196)" d="M675.512 255.03C683.3 255.138 690.775 255.117 698.563 254.99L698.461 276.753C698.445 283.834 698.152 294.351 698.666 301.151C691.047 301.207 683.026 301.146 675.446 301.437C667.777 301.607 659.687 301.488 651.985 301.495C652.474 299.791 652.354 281.276 652.377 278.485C679.269 278.43 675.569 282.781 675.512 255.03Z"/><path fill="#AEC8FE" transform="translate(-613 -196)" d="M675.446 301.437C675.476 295.349 675.496 289.076 675.312 282.962C675.068 274.869 682.099 276.969 687.785 276.711C691.183 276.557 695.003 276.733 698.461 276.753C698.445 283.834 698.152 294.351 698.666 301.151C691.047 301.207 683.026 301.146 675.446 301.437Z"/><path fill="#D1DFFE" transform="translate(-613 -196)" d="M929.523 323.491C944.02 323.502 959.125 323.744 973.566 323.519C974.552 328.217 973.845 340.999 974.042 346.496L973.388 346.497C966.438 346.801 957.551 346.573 950.469 346.576L906.115 346.597C906.044 338.855 906.322 331.345 906.126 323.511C914.146 324.144 921.528 323.88 929.523 323.491Z"/><path fill="#AEC8FE" transform="translate(-613 -196)" d="M973.566 323.519C974.552 328.217 973.845 340.999 974.042 346.496L973.388 346.497C973.381 346.451 973.375 346.404 973.368 346.358C970.637 338.395 972.213 331.352 973.566 323.519Z"/><path fill="#DBD7FE" transform="translate(-613 -196)" d="M698.666 301.151L698.882 301.449L698.826 324.177C683.244 324.074 667.13 323.879 651.582 324.314C651.625 320.086 650.945 304.618 651.985 301.495C659.687 301.488 667.777 301.607 675.446 301.437C683.026 301.146 691.047 301.207 698.666 301.151Z"/><path fill="#DBD7FE" transform="translate(-613 -196)" d="M838.404 323.991C853.282 323.432 868.06 324.014 883.096 323.486L883.065 346.518L838.51 346.673L838.404 323.991Z"/></g></svg>