<?xml version="1.0" encoding="utf-8" ?><svg xmlns="http://www.w3.org/2000/svg" xmlns:xlink="http://www.w3.org/1999/xlink" width="204" height="137" viewBox="0 0 204 137"><clipPath id="cl_8"><rect width="204" height="137"/></clipPath><g clip-path="url(#cl_8)"><path fill="#D1DFFE" transform="translate(-649 -771)" d="M744.405 788.656C757.452 788.594 777.33 789.5 789.903 788.443L790.107 806.976L792.717 810.507C799.304 810.609 805.918 810.804 812.494 810.481C812.597 817.791 812.644 825.164 812.982 832.461L816.103 832.533C816.854 835.166 815.92 854.257 815.539 857.573C814.681 864.754 815.52 872.165 814.695 878.422L814.285 879.003C813.835 883.711 814.831 894.497 813.061 897.761C806.999 900.66 713.434 898.549 698.633 899.407C698.574 892.921 698.457 886.398 698.612 879.916L698.211 878.162C690.162 878.002 684.323 879.634 677.177 875.682C676.078 870.036 676.728 841.263 677.101 834.316C678.576 832.484 679.22 831.947 681.015 830.373C687.353 830.762 693.015 830.938 699.367 831.01L699.501 810.261C704.948 810.311 739.379 810.332 743.297 808.994C743.217 802.138 744.58 796.534 744.405 788.656Z"/><path fill="#95A9F0" transform="translate(-649 -771)" d="M744.405 788.656C757.452 788.594 777.33 789.5 789.903 788.443L790.107 806.976L792.717 810.507C799.304 810.609 805.918 810.804 812.494 810.481C812.597 817.791 812.644 825.164 812.982 832.461C808.205 832.459 796.231 832.214 792.019 832.875C792.035 827.043 792.329 815.107 791.384 809.781L767.539 809.909C759.571 809.958 751.358 809.698 743.373 809.539C743.372 817.228 743.342 824.837 743.21 832.525L721.994 832.5C721.798 839.936 721.591 849.719 721.83 857.192C721.902 863.733 721.476 872.234 721.776 878.352C729.994 878.614 741.191 878.712 749.049 879.971C743.36 880.159 700.821 881.143 698.612 879.916L698.211 878.162C690.162 878.002 684.323 879.634 677.177 875.682C676.078 870.036 676.728 841.263 677.101 834.316C678.576 832.484 679.22 831.947 681.015 830.373C687.353 830.762 693.015 830.938 699.367 831.01L699.501 810.261C704.948 810.311 739.379 810.332 743.297 808.994C743.217 802.138 744.58 796.534 744.405 788.656Z"/><path fill="#AEC8FE" transform="translate(-649 -771)" d="M698.961 832.217C705.878 833.085 714.837 832.638 721.994 832.5C721.798 839.936 721.591 849.719 721.83 857.192C721.902 863.733 721.476 872.234 721.776 878.352C729.994 878.614 741.191 878.712 749.049 879.971C743.36 880.159 700.821 881.143 698.612 879.916L698.211 878.162C698.716 874.637 698.393 869.098 698.495 865.373C698.781 854.855 697.867 842.558 698.961 832.217Z"/><path fill="#95A9F0" transform="translate(-649 -771)" d="M792.543 857.496L815.539 857.573C814.681 864.754 815.52 872.165 814.695 878.422L814.285 879.003C813.835 883.711 814.831 894.497 813.061 897.761C806.999 900.66 713.434 898.549 698.633 899.407C698.574 892.921 698.457 886.398 698.612 879.916C700.821 881.143 743.36 880.159 749.049 879.971C754.336 879.952 759.962 880.033 765.219 879.863C767.833 879.186 789.379 878.091 792.817 878.105C792.501 871.136 792.507 864.467 792.543 857.496Z"/><path fill="#AEC8FE" transform="translate(-649 -771)" d="M792.543 857.496L815.539 857.573C814.681 864.754 815.52 872.165 814.695 878.422L814.285 879.003C809.836 879.56 804.701 879.635 800.168 879.599C788.626 879.508 776.723 880.199 765.219 879.863C767.833 879.186 789.379 878.091 792.817 878.105C792.501 871.136 792.507 864.467 792.543 857.496Z"/><path fill="#C5C0FE" transform="translate(-649 -771)" d="M721.83 857.192C745.083 857.27 769.415 856.743 792.543 857.496C792.507 864.467 792.501 871.136 792.817 878.105C789.379 878.091 767.833 879.186 765.219 879.863C759.962 880.033 754.336 879.952 749.049 879.971C741.191 878.712 729.994 878.614 721.776 878.352C721.476 872.234 721.902 863.733 721.83 857.192Z"/><path fill="#F8F8F8" transform="translate(-649 -771)" d="M767.539 809.909L791.384 809.781C792.329 815.107 792.035 827.043 792.019 832.875C788.907 834.108 771.641 833.285 767.425 833.147C767.623 825.537 767.523 817.549 767.539 809.909Z"/><path fill="#95A9F0" transform="translate(-649 -771)" d="M816.103 832.533L836.684 832.525C837.204 837.514 837.008 844.38 837.013 849.532L837.035 878.183C830.557 878.524 821.183 878.677 814.695 878.422C815.52 872.165 814.681 864.754 815.539 857.573C815.92 854.257 816.854 835.166 816.103 832.533Z"/></g></svg>