<?xml version="1.0" encoding="utf-8" ?><svg xmlns="http://www.w3.org/2000/svg" xmlns:xlink="http://www.w3.org/1999/xlink" width="516" height="275" viewBox="0 0 516 275"><clipPath id="cl_5"><rect width="516" height="275"/></clipPath><g clip-path="url(#cl_5)"><path fill="#D1DFFE" transform="translate(-40 -613)" d="M191.097 626.076C201.817 625.349 221.037 625.992 232.322 626.006L305.89 625.992C305.578 632.158 305.881 640.2 305.962 646.511L307.247 647.661C314.232 647.299 321.728 647.961 328.951 647.72L329.002 670.567L329.43 670.954C336.748 670.962 344.501 671.106 351.781 670.96C351.905 678.786 352 686.532 351.987 694.359L351.998 694.881L425.749 695.045C431.976 695.113 437.759 696.105 443.973 696.077C443.993 702.693 443.818 710.466 444.089 716.985L444.404 717.079C452.081 717.38 459.347 717.423 467.036 717.417C467.048 725.41 466.97 732.784 467.516 740.775C474.949 740.937 482.045 741.032 489.477 740.94L489.51 762.834C497.091 762.506 505.417 762.619 513.057 762.583C513.236 766.484 513.118 782.61 513.855 784.937L514.349 785.037C514.346 793.2 514.355 801.271 514.526 809.432C514.664 814.319 514.915 826.601 514.208 831.044C513.569 837.428 513.902 848.308 513.939 854.989L455.567 855.39C444.725 855.439 432.101 855.189 421.397 855.629L421.087 856.39C421.241 863.793 421.442 870.704 421.047 878.099C373.778 877.606 325.769 878.073 278.464 878.173L219.076 878.328C209.693 878.343 199.805 878.051 190.516 878.304C190.483 870.991 190.407 863.64 190.522 856.331L189.696 855.506C161.252 856.28 129.638 855.571 100.882 855.528C100.687 847.9 100.108 839.519 99.4316 831.931L98.7111 831.361C91.9145 831.858 83.3816 831.654 76.5593 831.571C76.3024 824.402 75.6443 817.279 75.4372 810.08L75.111 809.486C67.0108 809.549 59.1505 809.813 51.1066 808.743C50.7046 785.93 51.1514 762.306 50.9854 739.348C58.9721 739.605 67.6961 739.474 75.7401 739.512C75.3336 733.493 75.8075 723.575 75.9705 717.459C90.6248 717.8 106.313 717.543 121.041 717.573C120.808 709.66 120.973 701.163 120.994 693.204C126.685 693.684 136.102 693.411 142.088 693.404L143.841 693.186C143.68 685.44 143.765 677.826 143.844 670.078L167.501 670.047C167.263 662.607 167.375 654.496 167.331 647.003L190.827 646.799C190.84 639.886 190.975 632.988 191.097 626.076Z"/><path fill="#AEC8FE" transform="translate(-40 -613)" d="M329.288 785.95C340.844 785.01 363.047 785.662 375.141 785.651C375.112 793.638 375.243 801.544 375.383 809.53L514.526 809.432C514.664 814.319 514.915 826.601 514.208 831.044C513.569 837.428 513.902 848.308 513.939 854.989L455.567 855.39C444.725 855.439 432.101 855.189 421.397 855.629L421.087 856.39C421.241 863.793 421.442 870.704 421.047 878.099C373.778 877.606 325.769 878.073 278.464 878.173L219.076 878.328C209.693 878.343 199.805 878.051 190.516 878.304C190.483 870.991 190.407 863.64 190.522 856.331L189.696 855.506C161.252 856.28 129.638 855.571 100.882 855.528C100.687 847.9 100.108 839.519 99.4316 831.931L98.7111 831.361C91.9145 831.858 83.3816 831.654 76.5593 831.571C76.3024 824.402 75.6443 817.279 75.4372 810.08L76.1691 811.562C78.9246 812.079 87.6404 811.582 90.7174 811.475C95.6653 810.165 116.137 809.93 121.84 810.209L166.32 810.263C173.56 810.295 183.072 810.605 190.117 810.251C203.142 809.318 223.123 810.109 236.868 810.06C257.508 809.422 278.146 810.134 298.788 809.977C301.409 809.957 304.024 809.964 306.635 809.716C314.366 809.583 321.503 809.33 329.22 808.878C329.656 801.482 329.399 793.384 329.288 785.95Z"/><path fill="#95A9F0" transform="translate(-40 -613)" d="M190.522 856.331C190.784 856.567 191.046 856.802 191.307 857.038C235.467 858.167 279.629 856.174 323.796 856.569L379.006 857.064C390.404 857.218 410.133 858.74 421.087 856.39C421.241 863.793 421.442 870.704 421.047 878.099C373.778 877.606 325.769 878.073 278.464 878.173L219.076 878.328C209.693 878.343 199.805 878.051 190.516 878.304C190.483 870.991 190.407 863.64 190.522 856.331Z"/><path fill="#95A9F0" transform="translate(-40 -613)" d="M420.938 830.501C438.59 830.431 456.427 830.378 474.078 830.574C487.502 830.724 500.707 831.355 514.208 831.044C513.569 837.428 513.902 848.308 513.939 854.989L455.567 855.39C444.725 855.439 432.101 855.189 421.397 855.629C421.447 847.602 421.06 838.609 420.938 830.501Z"/><path fill="#95A9F0" transform="translate(-40 -613)" d="M99.4316 831.931C105.966 832.294 112.856 832.305 119.407 832.246C142.691 832.038 166.148 832.307 189.414 831.858C188.889 837.468 188.416 850.366 189.696 855.506C161.252 856.28 129.638 855.571 100.882 855.528C100.687 847.9 100.108 839.519 99.4316 831.931Z"/><path fill="#DBD7FE" transform="translate(-40 -613)" d="M236.868 810.06C257.508 809.422 278.146 810.134 298.788 809.977C301.409 809.957 304.024 809.964 306.635 809.716C306.595 816.915 306.479 824.269 306.649 831.453C296.274 831.471 285.94 831.485 275.565 831.388C263.706 831.276 250.753 830.692 238.912 831.203L237.311 830.895C236.032 828.941 236.815 813.777 236.868 810.06Z"/><path fill="#C5C0FE" transform="translate(-40 -613)" d="M190.117 810.251C203.142 809.318 223.123 810.109 236.868 810.06C236.815 813.777 236.032 828.941 237.311 830.895L238.912 831.203C235.287 831.603 229.566 831.286 225.744 831.307C214.142 831.372 201.478 830.335 189.97 831.599C190.74 826.114 190.672 815.864 190.117 810.251Z"/><path fill="#95A9F0" transform="translate(-40 -613)" d="M75.4372 810.08L76.1691 811.562C78.9246 812.079 87.6404 811.582 90.7174 811.475C93.1102 811.572 95.9098 811.76 98.2676 811.76C98.2929 816.391 98.1325 827.337 98.7111 831.361C91.9145 831.858 83.3816 831.654 76.5593 831.571C76.3024 824.402 75.6443 817.279 75.4372 810.08Z"/><path fill="#F8F8F8" transform="translate(-40 -613)" d="M191.097 626.076C201.817 625.349 221.037 625.992 232.322 626.006L305.89 625.992C305.578 632.158 305.881 640.2 305.962 646.511L307.247 647.661C314.232 647.299 321.728 647.961 328.951 647.72L329.002 670.567L329.43 670.954C336.748 670.962 344.501 671.106 351.781 670.96C351.905 678.786 352 686.532 351.987 694.359L351.998 694.881L352.063 698.472C352.822 702.704 352.537 711.518 352.491 716.195C358.584 716.115 368.582 715.776 374.528 716.409L374.477 741.174C369.464 740.602 355.996 741.805 352.584 740.503L352.185 739.121L351.946 739.781C350.208 741.059 332.961 740.297 329.459 740.188C329.504 748.196 329.563 756.081 329.333 764.092C314.345 764.754 298.283 763.805 282.909 764.315C283.101 756.473 283.059 748.501 283.229 740.604C275.531 740.451 267.906 740.192 260.211 739.908L259.475 718.247C252.975 717.671 243.047 717.778 236.015 717.465C235.863 709.861 236.274 701.617 236.496 693.952C230.092 693.663 221.584 693.944 214.98 693.919C214.979 687.452 215.688 680.103 215.807 673.475C215.976 664.095 215.526 655.858 214.864 646.503C210.602 646.538 193.89 646.374 190.827 646.799C190.84 639.886 190.975 632.988 191.097 626.076Z"/><path fill="#95A9F0" transform="translate(-40 -613)" d="M191.097 626.076C201.817 625.349 221.037 625.992 232.322 626.006L305.89 625.992C305.578 632.158 305.881 640.2 305.962 646.511L304.372 646.492C275.219 645.829 244.086 646.283 214.864 646.503C210.602 646.538 193.89 646.374 190.827 646.799C190.84 639.886 190.975 632.988 191.097 626.076Z"/><path fill="#AEC8FE" transform="translate(-40 -613)" d="M352.063 698.472C352.822 702.704 352.537 711.518 352.491 716.195C358.584 716.115 368.582 715.776 374.528 716.409L374.477 741.174C369.464 740.602 355.996 741.805 352.584 740.503L352.185 739.121C351.658 726.338 352.007 711.403 352.063 698.472Z"/><path fill="#95A9F0" transform="translate(-40 -613)" d="M329.43 670.954C336.748 670.962 344.501 671.106 351.781 670.96C351.905 678.786 352 686.532 351.987 694.359C348.848 692.967 333.489 693.42 329.46 693.724C329.702 686.223 329.614 678.456 329.43 670.954Z"/><path fill="#95A9F0" transform="translate(-40 -613)" d="M307.247 647.661C314.232 647.299 321.728 647.961 328.951 647.72L329.002 670.567L325.362 670.48C319.524 670.236 313.79 669.913 307.947 670.121C307.593 663.227 308.411 654.302 307.247 647.661Z"/><path fill="#DBD7FE" transform="translate(-40 -613)" d="M325.362 670.48L329.002 670.567L329.43 670.954C329.614 678.456 329.702 686.223 329.46 693.724L327.258 693.649C326.971 693.463 326.684 693.276 326.396 693.089C325.514 686.806 326.749 676.344 325.362 670.48Z"/><path fill="#DBD7FE" transform="translate(-40 -613)" d="M305.962 646.511L307.247 647.661C308.411 654.302 307.593 663.227 307.947 670.121C306.469 670.444 305.621 670.785 304.495 669.873C303.915 663.895 304.314 652.857 304.372 646.492L305.962 646.511Z"/><path fill="#F8F8F8" transform="translate(-40 -613)" d="M351.998 694.881L425.749 695.045C431.976 695.113 437.759 696.105 443.973 696.077C443.993 702.693 443.818 710.466 444.089 716.985L444.404 717.079C452.081 717.38 459.347 717.423 467.036 717.417C467.048 725.41 466.97 732.784 467.516 740.775C474.949 740.937 482.045 741.032 489.477 740.94L489.51 762.834C497.091 762.506 505.417 762.619 513.057 762.583C513.236 766.484 513.118 782.61 513.855 784.937C503.855 785.048 493.332 784.415 483.286 784.508C478.676 784.552 472.424 784.232 467.937 784.872C464.89 786.127 405.84 785.342 398.504 785.342C398.642 778.449 398.508 771.309 398.46 764.394C387.879 763.369 363.946 764.017 352.355 764.018L352.438 741.506C357.735 741.53 369.705 741.843 374.477 741.174L374.528 716.409C368.582 715.776 358.584 716.115 352.491 716.195C352.537 711.518 352.822 702.704 352.063 698.472L351.998 694.881Z"/><path fill="#95A9F0" transform="translate(-40 -613)" d="M444.404 717.079C452.081 717.38 459.347 717.423 467.036 717.417C467.048 725.41 466.97 732.784 467.516 740.775C474.949 740.937 482.045 741.032 489.477 740.94L489.51 762.834C497.091 762.506 505.417 762.619 513.057 762.583C513.236 766.484 513.118 782.61 513.855 784.937C503.855 785.048 493.332 784.415 483.286 784.508C478.676 784.552 472.424 784.232 467.937 784.872L467.925 771.247C467.57 768.572 467.931 765.637 467.012 763.288C465.918 763.349 465.486 763.344 464.393 763.263C462.134 759.956 464.829 745.485 463.157 741.377L460.204 740.555L444.972 740.496C445.05 732.631 445.196 724.911 444.404 717.079Z"/><path fill="#DBD7FE" transform="translate(-40 -613)" d="M460.204 740.555C463.35 740.601 464.746 740.678 467.912 741.142C468.101 749.777 468.337 762.698 467.925 771.247C467.57 768.572 467.931 765.637 467.012 763.288C465.918 763.349 465.486 763.344 464.393 763.263C462.134 759.956 464.829 745.485 463.157 741.377L460.204 740.555Z"/><path fill="#95A9F0" transform="translate(-40 -613)" d="M351.998 694.881L425.749 695.045C431.976 695.113 437.759 696.105 443.973 696.077C443.993 702.693 443.818 710.466 444.089 716.985L374.528 716.409C368.582 715.776 358.584 716.115 352.491 716.195C352.537 711.518 352.822 702.704 352.063 698.472L351.998 694.881Z"/><path fill="#95A9F0" transform="translate(-40 -613)" d="M120.994 693.204C126.685 693.684 136.102 693.411 142.088 693.404C141.186 707.921 141.36 726.505 141.893 741.194C135.763 740.871 128.201 740.987 121.994 740.934C115.061 740.281 105.358 740.479 98.3846 740.75C98.4427 748.086 98.5922 755.647 98.4507 762.962C98.1779 769.905 98.5312 779.21 98.0605 785.462C90.6173 785.673 82.3458 785.515 74.8334 785.537C74.6742 793.285 74.3681 801.794 75.111 809.486C67.0108 809.549 59.1505 809.813 51.1066 808.743C50.7046 785.93 51.1514 762.306 50.9854 739.348C58.9721 739.605 67.6961 739.474 75.7401 739.512C75.3336 733.493 75.8075 723.575 75.9705 717.459C90.6248 717.8 106.313 717.543 121.041 717.573C120.808 709.66 120.973 701.163 120.994 693.204Z"/><path fill="#AEC8FE" transform="translate(-40 -613)" d="M74.5211 762.981C74.4715 758.235 73.4937 744.973 75.5767 741.684C78.2988 739.646 83.6353 740.89 87.046 740.923C90.9211 740.961 94.5006 740.929 98.3846 740.75C98.4427 748.086 98.5922 755.647 98.4507 762.962C98.1779 769.905 98.5312 779.21 98.0605 785.462C90.6173 785.673 82.3458 785.515 74.8334 785.537C74.9144 777.779 74.795 770.738 74.5211 762.981Z"/><path fill="#DBD7FE" transform="translate(-40 -613)" d="M98.4507 762.962C98.1779 769.905 98.5312 779.21 98.0605 785.462C90.6173 785.673 82.3458 785.515 74.8334 785.537C74.9144 777.779 74.795 770.738 74.5211 762.981C79.9675 762.527 92.4737 762.947 98.4507 762.962Z"/><path fill="#AEC8FE" transform="translate(-40 -613)" d="M142.088 693.404L143.841 693.186C145.129 699.273 144.354 711.27 144.525 718.176C159.723 718.217 175.408 717.935 190.519 718.209C190.611 725.514 190.894 733.877 190.536 741.089L213.987 741.039C213.682 755.662 213.549 770.037 213.558 784.67C206.088 784.825 198.492 784.917 191.021 784.887C190.976 779.368 191.195 768.493 190.589 763.454L168.467 763.462L168.349 741.48C160.432 741.316 149.492 741.851 141.893 741.194C141.36 726.505 141.186 707.921 142.088 693.404Z"/><path fill="#F8F8F8" transform="translate(-40 -613)" d="M121.994 740.934C128.201 740.987 135.763 740.871 141.893 741.194C149.492 741.851 160.432 741.316 168.349 741.48L168.467 763.462L190.589 763.454C190.108 769.688 190.442 778.878 190.547 785.185C187.793 785.459 185.038 785.475 182.272 785.487C169.742 785.541 157.182 785.976 144.657 785.578L144.426 763.531L121.978 763.302L121.994 740.934Z"/><path fill="#C5C0FE" transform="translate(-40 -613)" d="M98.0605 785.462C105.252 785.403 114.645 785.039 121.684 785.316C121.609 791.843 121.166 804.163 121.84 810.209C116.137 809.93 95.6653 810.165 90.7174 811.475C87.6404 811.582 78.9246 812.079 76.1691 811.562L75.4372 810.08L75.111 809.486C74.3681 801.794 74.6742 793.285 74.8334 785.537C82.3458 785.515 90.6173 785.673 98.0605 785.462Z"/><path fill="#95A9F0" transform="translate(-40 -613)" d="M167.331 647.003L190.827 646.799C190.329 653.59 190.637 663.621 190.665 670.652C187.336 670.627 183.016 670.467 179.769 670.601C176.18 671.19 171.35 671.026 167.606 671.021C167.668 675.058 168.541 689.029 167.387 691.854C166.275 692.265 166.302 692.248 165.114 692.323L164.459 692.961L143.841 693.186C143.68 685.44 143.765 677.826 143.844 670.078L167.501 670.047C167.263 662.607 167.375 654.496 167.331 647.003Z"/><path fill="#AEC8FE" transform="translate(-40 -613)" d="M165.087 670.69C170.132 670.495 174.738 670.535 179.769 670.601C176.18 671.19 171.35 671.026 167.606 671.021C167.668 675.058 168.541 689.029 167.387 691.854C166.275 692.265 166.302 692.248 165.114 692.323L164.459 692.961C164.662 687.235 164.122 675.897 165.087 670.69Z"/><path fill="#DBD7FE" transform="translate(-40 -613)" d="M214.98 693.919C221.584 693.944 230.092 693.663 236.496 693.952C236.274 701.617 235.863 709.861 236.015 717.465L213.87 717.481C214.151 709.778 214.315 701.554 214.98 693.919Z"/><path fill="#95A9F0" transform="translate(-40 -613)" d="M514.349 785.037C520.476 785.264 529.923 785.727 535.979 785.188C536.18 800.496 535.915 815.881 536.185 831.113C528.787 830.993 521.607 830.972 514.208 831.044C514.915 826.601 514.664 814.319 514.526 809.432C514.355 801.271 514.346 793.2 514.349 785.037Z"/></g></svg>