<?xml version="1.0" encoding="utf-8" ?><svg xmlns="http://www.w3.org/2000/svg" xmlns:xlink="http://www.w3.org/1999/xlink" width="733" height="757" viewBox="0 0 733 757"><clipPath id="cl_5"><rect width="733" height="757"/></clipPath><g clip-path="url(#cl_5)"><path fill="#FEE358" transform="translate(-153 -134)" d="M393.082 156.021C434.015 155.869 474.558 156.853 515.334 156.998L590.691 157.485C604.593 157.537 618.01 157.051 631.994 157.44C632.183 162.929 632.92 178.073 632.096 182.766C640.517 180.688 666.114 182.132 676.098 182.007L676.542 204.598C686.453 204.581 710.502 205.075 718.948 203.944C718.987 211.254 719.238 220.007 718.702 227.176C725.482 227.284 733.677 227.244 740.502 227.027C740.518 234.278 740.66 241.922 740.519 249.141L761.782 248.964C761.884 256.69 761.879 264.521 761.431 272.232C769.034 272.023 776.401 272.006 784.009 272.029L784.201 297.508C784.223 302.24 784.033 309.5 784.624 314.014L809.49 314.016C809.503 326.394 810.021 344.091 809.224 356.047C816.386 356.014 824.997 356.188 832.041 355.796C832.65 364.399 832.24 373.42 832.195 382.097L832.173 423.114C838.05 423.108 850.16 422.776 855.525 423.398L856.045 556.702C856.08 574.883 857.218 598.21 856.129 615.801L831.939 615.993C831.977 635.416 831.9 655.528 832.275 674.906C825.402 674.994 817.213 675.237 810.367 674.883C810.94 679.23 810.932 687.71 810.979 692.321C811.072 701.337 811.654 711.887 810.972 720.777C802.808 721.006 794.662 720.939 786.496 720.91L786.533 745.89L763.513 746.006L763.536 767.531C756.605 767.097 747.545 767.435 740.442 767.521C740.494 774.322 740.407 781.78 740.675 788.525C733.852 788.585 726.733 788.552 719.944 788.873L720.056 808.779C712.47 809.028 704.98 808.963 697.391 808.929L697.489 828.654C690.966 828.71 684.259 828.862 677.753 828.639L676.315 828.916C674.926 830.779 675.633 848.323 675.673 851.785C673.208 851.601 670.77 851.641 668.302 851.728C655.949 852.163 643.59 852.054 631.231 852.019C630.862 858.628 631.276 866.436 631.03 873.432L394.323 874.574C393.87 868.031 394.253 857.62 394.325 850.934C379.67 850.654 364.579 850.805 349.844 850.665C349.316 843.215 349.821 835.035 350.113 827.51L310.982 827.445C311.022 820.374 310.859 813.106 310.783 806.02C306.235 805.989 292.094 806.825 289.475 805.55C286.839 802.536 288.054 790.209 288.171 785.571L268.408 785.562C267.948 779.428 268.201 771.113 268.335 764.932C261.155 764.397 252.72 764.541 245.522 764.651C244.965 750.378 244.973 736.49 245.092 722.233C237.081 722.363 229.573 722.003 221.409 722.409L221.5 693.893C221.512 688.624 221.308 680.495 221.904 675.518C214.072 675.304 205.706 675.467 197.833 675.492C198.169 668.111 197.89 658.977 197.855 651.453L198.003 616.514C190.161 616.508 182.32 616.033 174.46 616.16C174.207 605.442 174.48 593.496 174.502 582.678L174.906 496.297L174.5 449.452C174.42 441.886 174.005 430.991 174.61 423.677C177.18 422.081 193.031 422.579 197.018 422.656C196.516 401.884 196.997 378.585 196.904 357.579C200.808 357.547 219.31 358.052 221.253 356.651C219.997 348.144 220.476 324.329 220.487 315.012C228.648 314.638 236.403 315.215 244.91 314.617L244.974 313.881C244.455 303.227 244.569 282.404 245.36 271.65C252.685 271.433 261.4 272.115 268.931 272.188L269.436 271.993C269.855 264.319 270.018 256.656 270.214 248.974C276.755 248.843 283.474 248.902 290.031 248.889L290.015 226.977C297.102 227.019 303.985 227.023 311.063 227.421C310.782 220.319 311.543 213.929 310.896 206.604C323.421 206.26 336.953 206.483 349.517 206.509C348.926 200.099 349.095 189.269 348.966 182.49C364.037 181.894 378.215 182.507 393.072 182.25C392.98 175.397 392.535 162.367 393.082 156.021Z"/><path fill="#E590B0" transform="translate(-153 -134)" d="M220.487 315.012C228.648 314.638 236.403 315.215 244.91 314.617C245.617 328.284 245.812 342.275 246.334 356.024C251.265 356.941 267.913 356.258 273.966 356.248C297.138 356.208 320.648 355.227 343.842 355.537C350.494 355.626 365.706 355.148 371.534 356.071C371.422 364.209 371.162 372.8 371.517 380.891L372.334 383.977C373.173 392.348 372.496 407.339 372.535 416.241C372.563 422.501 372.833 438.804 372.106 444.026C365.76 443.415 356.024 443.607 349.409 443.556L349.074 443.525L349.197 480.563C349.193 488.675 348.854 499.113 349.355 507.047L349.493 546.815C349.52 555.9 349.182 569.054 349.958 577.83C350.465 585.429 350.809 606.23 350.314 614.013C354.306 613.929 370.387 613.369 372.919 614.62L373.484 616.289C373.491 621.755 373.578 632.809 374.344 638.022L374.419 638.663C374.528 648.531 374.226 660.058 374.553 669.724C374.732 670.992 374.931 674.479 375.477 675.365C382.613 675.764 391.454 675.026 397.971 675.541C397.707 683.106 397.838 690.958 397.554 698.273L397.355 698.727C397.394 706.429 397.36 714.254 397.498 721.943L418.578 721.866L418.856 728.211L418.986 743.928C418.99 748.641 419.202 756.045 418.93 760.582L419.099 766.488L439.881 766.999C440.141 774.021 440.409 780.987 440.788 788.004L462.936 788.241C462.96 794.447 462.828 801.827 463.279 807.898C475.505 808.455 492.188 807.223 502.978 808.129C502.991 814.219 503.076 820.486 502.977 826.56C507.61 826.955 515.56 827.291 520.305 827.048C528.79 827.079 537.724 827.544 545.996 827.494L602.308 828.075C610.243 828.148 623.439 828.579 631.076 828.06L631.43 828.101C641.639 827.864 666.743 829.883 675.287 828.026L677.753 828.639L676.315 828.916C674.926 830.779 675.633 848.323 675.673 851.785C673.208 851.601 670.77 851.641 668.302 851.728C655.949 852.163 643.59 852.054 631.231 852.019C630.862 858.628 631.276 866.436 631.03 873.432L394.323 874.574C393.87 868.031 394.253 857.62 394.325 850.934C379.67 850.654 364.579 850.805 349.844 850.665C349.316 843.215 349.821 835.035 350.113 827.51L310.982 827.445C311.022 820.374 310.859 813.106 310.783 806.02C306.235 805.989 292.094 806.825 289.475 805.55C286.839 802.536 288.054 790.209 288.171 785.571L268.408 785.562C267.948 779.428 268.201 771.113 268.335 764.932C261.155 764.397 252.72 764.541 245.522 764.651C244.965 750.378 244.973 736.49 245.092 722.233C237.081 722.363 229.573 722.003 221.409 722.409L221.5 693.893C221.512 688.624 221.308 680.495 221.904 675.518C214.072 675.304 205.706 675.467 197.833 675.492C198.169 668.111 197.89 658.977 197.855 651.453L198.003 616.514C190.161 616.508 182.32 616.033 174.46 616.16C174.207 605.442 174.48 593.496 174.502 582.678L174.906 496.297L174.5 449.452C174.42 441.886 174.005 430.991 174.61 423.677C177.18 422.081 193.031 422.579 197.018 422.656C196.516 401.884 196.997 378.585 196.904 357.579C200.808 357.547 219.31 358.052 221.253 356.651C219.997 348.144 220.476 324.329 220.487 315.012Z"/><path fill="#FCAC5D" transform="translate(-153 -134)" d="M223.541 356.775C231.267 356.637 238.626 356.487 246.334 356.024C251.265 356.941 267.913 356.258 273.966 356.248C297.138 356.208 320.648 355.227 343.842 355.537C350.494 355.626 365.706 355.148 371.534 356.071C371.422 364.209 371.162 372.8 371.517 380.891L372.334 383.977C373.173 392.348 372.496 407.339 372.535 416.241C372.563 422.501 372.833 438.804 372.106 444.026C365.76 443.415 356.024 443.607 349.409 443.556L349.074 443.525L349.197 480.563C349.193 488.675 348.854 499.113 349.355 507.047L349.493 546.815C349.52 555.9 349.182 569.054 349.958 577.83C350.465 585.429 350.809 606.23 350.314 614.013L350.327 614.712C341.403 614.53 332.542 614.953 323.602 615.175C305.458 615.625 286.248 614.751 268.236 615.182L235.495 616.076C233.445 616.127 224.482 616.474 223.086 616.144C216.137 615.382 208.643 615.345 201.227 614.531C200.022 580.402 200.923 542.324 200.54 507.776C199.784 499.902 199.912 490.061 199.803 482.004C199.542 462.845 199.458 442.583 200.829 423.496C204.845 423.604 219.874 424.209 223.231 423.106C222.363 412.144 222.81 399.883 222.96 388.741C223.089 379.199 222.429 365.916 223.541 356.775Z"/><path fill="#F48A74" transform="translate(-153 -134)" d="M200.54 507.776C214.455 508.521 234.118 507.094 248.502 507.153C275.042 507.263 302.615 506.42 329.094 507.007L328.783 546.488C328.648 556.795 328.188 567.801 328.261 578.074C334.517 577.896 343.994 577.382 349.958 577.83C350.465 585.429 350.809 606.23 350.314 614.013L350.327 614.712C341.403 614.53 332.542 614.953 323.602 615.175C305.458 615.625 286.248 614.751 268.236 615.182L235.495 616.076C233.445 616.127 224.482 616.474 223.086 616.144C216.137 615.382 208.643 615.345 201.227 614.531C200.022 580.402 200.923 542.324 200.54 507.776Z"/><path fill="#FEC35C" transform="translate(-153 -134)" d="M223.541 356.775C231.267 356.637 238.626 356.487 246.334 356.024C251.265 356.941 267.913 356.258 273.966 356.248C297.138 356.208 320.648 355.227 343.842 355.537C350.494 355.626 365.706 355.148 371.534 356.071C371.422 364.209 371.162 372.8 371.517 380.891L372.334 383.977C373.173 392.348 372.496 407.339 372.535 416.241C372.563 422.501 372.833 438.804 372.106 444.026C365.76 443.415 356.024 443.607 349.409 443.556C349.412 436.939 349.251 430.537 349.052 423.922C340.675 423.557 328.378 423.964 319.596 423.959L254.003 423.975C244.634 423.97 234.98 424.246 225.59 424.329C223.951 424.344 224.043 424.056 223.231 423.106C222.363 412.144 222.81 399.883 222.96 388.741C223.089 379.199 222.429 365.916 223.541 356.775Z"/><path fill="#FEF78A" transform="translate(-153 -134)" d="M348.721 381.046C356.296 380.879 363.935 380.909 371.517 380.891L372.334 383.977C373.173 392.348 372.496 407.339 372.535 416.241C372.563 422.501 372.833 438.804 372.106 444.026C365.76 443.415 356.024 443.607 349.409 443.556C349.412 436.939 349.251 430.537 349.052 423.922C349.273 409.796 348.839 395.191 348.721 381.046Z"/><path fill="#FEC35C" transform="translate(-153 -134)" d="M328.755 443.638C335.345 443.82 342.257 443.38 349.074 443.525L349.197 480.563C349.193 488.675 348.854 499.113 349.355 507.047C342.677 506.883 336.187 507.184 329.387 506.893C328.669 497.865 329.155 486.356 329.091 477.25C329.012 466.043 328.89 454.846 328.755 443.638Z"/><path fill="#7563BB" transform="translate(-153 -134)" d="M220.487 315.012C228.648 314.638 236.403 315.215 244.91 314.617C245.617 328.284 245.812 342.275 246.334 356.024C238.626 356.487 231.267 356.637 223.541 356.775C222.429 365.916 223.089 379.199 222.96 388.741C222.81 399.883 222.363 412.144 223.231 423.106C219.874 424.209 204.845 423.604 200.829 423.496C199.458 442.583 199.542 462.845 199.803 482.004C199.912 490.061 199.784 499.902 200.54 507.776C200.923 542.324 200.022 580.402 201.227 614.531C208.643 615.345 216.137 615.382 223.086 616.144C223.352 635.254 223.981 656.348 222.97 675.322C230.797 675.499 238.69 675.619 246.502 676.036C246.426 690.689 245.806 706.495 245.992 720.91C253.767 720.702 261.227 720.511 269.001 720.621L268.568 764.488C275.758 764.413 282.764 764.378 289.952 764.497C289.852 771.107 289.878 778.408 289.513 784.951C296.049 785.072 302.462 785.259 308.993 785.517C309.429 791.419 309.812 797.226 310.133 803.135L348.844 803.546C350.007 811.023 350.142 819.909 350.331 827.51L393.746 826.901C394.732 832.311 394.79 843.594 394.986 849.546C437.734 849.24 482.068 850.927 524.64 849.697C524.296 842.1 524.18 836.036 524.381 828.443C522.958 827.156 522.559 827.474 520.305 827.048C528.79 827.079 537.724 827.544 545.996 827.494L602.308 828.075C610.243 828.148 623.439 828.579 631.076 828.06L631.43 828.101C641.639 827.864 666.743 829.883 675.287 828.026L677.753 828.639L676.315 828.916C674.926 830.779 675.633 848.323 675.673 851.785C673.208 851.601 670.77 851.641 668.302 851.728C655.949 852.163 643.59 852.054 631.231 852.019C630.862 858.628 631.276 866.436 631.03 873.432L394.323 874.574C393.87 868.031 394.253 857.62 394.325 850.934C379.67 850.654 364.579 850.805 349.844 850.665C349.316 843.215 349.821 835.035 350.113 827.51L310.982 827.445C311.022 820.374 310.859 813.106 310.783 806.02C306.235 805.989 292.094 806.825 289.475 805.55C286.839 802.536 288.054 790.209 288.171 785.571L268.408 785.562C267.948 779.428 268.201 771.113 268.335 764.932C261.155 764.397 252.72 764.541 245.522 764.651C244.965 750.378 244.973 736.49 245.092 722.233C237.081 722.363 229.573 722.003 221.409 722.409L221.5 693.893C221.512 688.624 221.308 680.495 221.904 675.518C214.072 675.304 205.706 675.467 197.833 675.492C198.169 668.111 197.89 658.977 197.855 651.453L198.003 616.514C190.161 616.508 182.32 616.033 174.46 616.16C174.207 605.442 174.48 593.496 174.502 582.678L174.906 496.297L174.5 449.452C174.42 441.886 174.005 430.991 174.61 423.677C177.18 422.081 193.031 422.579 197.018 422.656C196.516 401.884 196.997 378.585 196.904 357.579C200.808 357.547 219.31 358.052 221.253 356.651C219.997 348.144 220.476 324.329 220.487 315.012Z"/><path fill="#F48A74" transform="translate(-153 -134)" d="M520.305 827.048C528.79 827.079 537.724 827.544 545.996 827.494L602.308 828.075C610.243 828.148 623.439 828.579 631.076 828.06L631.43 828.101C631.436 835.329 631.603 843.383 631.281 850.537C601.201 849.514 570.883 850.393 540.774 849.792C535.409 849.685 530.005 849.638 524.64 849.697C524.296 842.1 524.18 836.036 524.381 828.443C522.958 827.156 522.559 827.474 520.305 827.048Z"/><path fill="#F8A569" transform="translate(-153 -134)" d="M350.314 614.013C354.306 613.929 370.387 613.369 372.919 614.62L373.484 616.289C373.491 621.755 373.578 632.809 374.344 638.022L374.419 638.663C372.024 637.008 355.246 638.004 350.721 638.046C350.812 630.625 350.461 622.18 350.327 614.712L350.314 614.013Z"/><path fill="#F8A569" transform="translate(-153 -134)" d="M374.553 669.724C374.732 670.992 374.931 674.479 375.477 675.365C382.613 675.764 391.454 675.026 397.971 675.541C397.707 683.106 397.838 690.958 397.554 698.273L397.355 698.727C390.271 698.217 382.114 698.395 375.005 698.446C374.791 689.681 374.29 678.368 374.553 669.724Z"/><path fill="#F48A74" transform="translate(-153 -134)" d="M397.498 721.943L418.578 721.866L418.856 728.211L418.986 743.928C418.99 748.641 419.202 756.045 418.93 760.582C418.233 756.984 418.535 747.549 418.601 743.504C411.596 743.386 404.735 743.156 397.734 742.878C397.284 737.067 397.516 728.005 397.498 721.943Z"/><path fill="#FEE358" transform="translate(-153 -134)" d="M393.082 156.021C434.015 155.869 474.558 156.853 515.334 156.998L590.691 157.485C604.593 157.537 618.01 157.051 631.994 157.44C632.183 162.929 632.92 178.073 632.096 182.766C640.517 180.688 666.114 182.132 676.098 182.007L676.542 204.598C686.453 204.581 710.502 205.075 718.948 203.944C718.987 211.254 719.238 220.007 718.702 227.176C717.329 226.861 716.623 226.549 715.286 226.977C716.344 227.626 716.428 227.595 717.642 227.93C704.187 227.853 691.088 227.539 677.458 227.546L676.974 205.924C662.822 206.332 647.836 206.129 633.664 205.962C633.093 201.473 631.616 186.36 630.868 183.059C623.878 182.909 616.913 182.789 609.921 182.837C588.246 182.988 566.62 182.463 544.934 182.494C544.678 189.875 544.339 197.846 544.426 205.225C544.043 206.209 543.953 207.109 542.878 207.436C539.333 208.516 529.933 208.588 526.392 208.167L525.246 208.664C523.973 213.742 525.624 229.116 523.743 230.77C522.072 230.902 520.497 231.001 518.823 231.071C513.123 231.193 507.147 231.227 501.477 231.551C494.554 231.49 487.726 231.398 480.808 231.225C474.764 231.074 467.444 230.35 461.627 231.202C462.147 236.113 462.577 244.22 462.543 249.192C455.462 248.716 449.67 248.244 442.559 248.762C442.551 253.483 443.009 266.721 440.683 270.404L439.427 270.91C435.029 270.073 423.976 270.396 419.047 270.461C418.822 277.834 418.191 284.84 417.856 292.115L397.202 292.055C396.855 306.82 395.676 324.203 394.632 339.14C386.891 338.52 379.881 337.871 372.104 338C372.084 343.291 372.242 350.97 371.534 356.071C365.706 355.148 350.494 355.626 343.842 355.537C320.648 355.227 297.138 356.208 273.966 356.248C267.913 356.258 251.265 356.941 246.334 356.024C245.812 342.275 245.617 328.284 244.91 314.617L244.974 313.881C244.455 303.227 244.569 282.404 245.36 271.65C252.685 271.433 261.4 272.115 268.931 272.188L269.436 271.993C269.855 264.319 270.018 256.656 270.214 248.974C276.755 248.843 283.474 248.902 290.031 248.889L290.015 226.977C297.102 227.019 303.985 227.023 311.063 227.421C310.782 220.319 311.543 213.929 310.896 206.604C323.421 206.26 336.953 206.483 349.517 206.509C348.926 200.099 349.095 189.269 348.966 182.49C364.037 181.894 378.215 182.507 393.072 182.25C392.98 175.397 392.535 162.367 393.082 156.021Z"/><path fill="#846EC3" transform="translate(-153 -134)" d="M393.082 156.021C434.015 155.869 474.558 156.853 515.334 156.998L590.691 157.485C604.593 157.537 618.01 157.051 631.994 157.44C632.183 162.929 632.92 178.073 632.096 182.766C640.517 180.688 666.114 182.132 676.098 182.007L676.542 204.598C686.453 204.581 710.502 205.075 718.948 203.944C718.987 211.254 719.238 220.007 718.702 227.176C717.329 226.861 716.623 226.549 715.286 226.977C716.344 227.626 716.428 227.595 717.642 227.93C704.187 227.853 691.088 227.539 677.458 227.546L676.974 205.924C662.822 206.332 647.836 206.129 633.664 205.962C633.093 201.473 631.616 186.36 630.868 183.059C623.878 182.909 616.913 182.789 609.921 182.837C588.246 182.988 566.62 182.463 544.934 182.494L524.577 182.489C492.444 182.128 460.415 181.739 428.264 182.34C416.818 182.554 404.574 181.61 393.42 182.32L392.477 205.971C378.585 205.866 364.082 205.766 350.198 206.253C350.314 213.113 350.54 221.217 350.105 227.99C337.314 228.008 324.131 227.872 311.415 229.057C311.238 235.971 311.057 242.789 311.076 249.707C304.892 249.99 299.383 250.035 293.189 249.996C293.093 256.276 293.158 265.848 292.527 271.94C285.67 271.989 276.074 272.35 269.436 271.993C269.855 264.319 270.018 256.656 270.214 248.974C276.755 248.843 283.474 248.902 290.031 248.889L290.015 226.977C297.102 227.019 303.985 227.023 311.063 227.421C310.782 220.319 311.543 213.929 310.896 206.604C323.421 206.26 336.953 206.483 349.517 206.509C348.926 200.099 349.095 189.269 348.966 182.49C364.037 181.894 378.215 182.507 393.072 182.25C392.98 175.397 392.535 162.367 393.082 156.021Z"/><path fill="#FEFEBA" transform="translate(-153 -134)" d="M524.577 182.489L544.934 182.494C544.678 189.875 544.339 197.846 544.426 205.225C544.043 206.209 543.953 207.109 542.878 207.436C539.333 208.516 529.933 208.588 526.392 208.167L525.246 208.664C523.973 213.742 525.624 229.116 523.743 230.77C522.072 230.902 520.497 231.001 518.823 231.071C513.123 231.193 507.147 231.227 501.477 231.551C502.115 223.969 502.026 215.238 502.015 207.638C504.968 207.598 523.032 208.141 524.549 207.453C524.478 199.086 524.417 190.862 524.577 182.489Z"/><path fill="#846EC3" transform="translate(-153 -134)" d="M245.36 271.65C252.685 271.433 261.4 272.115 268.931 272.188C268.1 285.053 267.028 300.138 266.84 312.909C261.235 312.951 250.418 312.882 244.974 313.881C244.455 303.227 244.569 282.404 245.36 271.65Z"/><path fill="#7563BB" transform="translate(-153 -134)" d="M784.624 314.014L809.49 314.016C809.503 326.394 810.021 344.091 809.224 356.047C816.386 356.014 824.997 356.188 832.041 355.796C832.65 364.399 832.24 373.42 832.195 382.097L832.173 423.114C838.05 423.108 850.16 422.776 855.525 423.398L856.045 556.702C856.08 574.883 857.218 598.21 856.129 615.801L831.939 615.993C831.977 635.416 831.9 655.528 832.275 674.906C825.402 674.994 817.213 675.237 810.367 674.883L810.209 673.968C809.463 678.98 809.83 688.124 809.897 693.515C810.004 702.193 809.999 710.706 809.94 719.39L809.477 719.767C804.72 720.62 799.29 719.512 794.469 719.695C792.655 719.764 787.066 721.178 787.019 718.757C786.819 708.408 785.32 685.823 787.172 676.54C790.141 674.27 801.903 676.727 806.668 674.669C807.969 672.26 807.219 621.664 807.117 615.3C813.893 614.575 821.193 614.31 828.028 613.975C828.281 606.148 828.694 598.07 828.736 590.249C829.038 534.872 829.93 479.53 829.039 424.147C821.757 424.02 814.757 423.873 807.487 423.482C806.831 412.378 807.376 400.202 807.687 388.992C808.003 377.652 807.981 367.365 807.745 356.003C800.277 355.611 792.2 355.944 784.487 355.658C784.114 346.367 784.661 337.166 784.777 327.892C784.824 324.18 785.158 317.524 784.624 314.014Z"/><path fill="#846EC3" transform="translate(-153 -134)" d="M806.668 674.669C801.903 676.727 790.141 674.27 787.172 676.54C785.32 685.823 786.819 708.408 787.019 718.757C787.066 721.178 792.655 719.764 794.469 719.695C799.29 719.512 804.72 720.62 809.477 719.767L809.94 719.39C809.999 710.706 810.004 702.193 809.897 693.515C809.83 688.124 809.463 678.98 810.209 673.968L810.367 674.883C810.94 679.23 810.932 687.71 810.979 692.321C811.072 701.337 811.654 711.887 810.972 720.777C802.808 721.006 794.662 720.939 786.496 720.91L786.533 745.89L763.513 746.006L763.536 767.531C756.605 767.097 747.545 767.435 740.442 767.521C740.494 774.322 740.407 781.78 740.675 788.525C733.852 788.585 726.733 788.552 719.944 788.873L720.056 808.779C712.47 809.028 704.98 808.963 697.391 808.929L697.489 828.654C690.966 828.71 684.259 828.862 677.753 828.639L675.287 828.026C675.161 823.874 674.593 810.492 675.461 806.958C676.786 804.647 675.875 792.896 675.787 789.589C682.738 789.184 688.64 789.041 695.588 789.106C702.92 789.226 710.181 789.037 717.51 788.885C717.673 781.779 717.705 774.613 717.781 767.501C725.219 767.556 732.599 767.436 740.035 767.324C739.791 759.34 740.094 750.94 740.446 742.967L762.383 743.003C762.448 736.707 762.171 726.022 762.776 720.207C762.879 713.373 763.206 706.33 763.446 699.482C770.068 698.899 778.762 698.858 785.422 698.97C786.374 693.563 786.01 680.799 785.977 674.846C792.388 674.722 800.395 674.375 806.668 674.669Z"/><path fill="#FEC35C" transform="translate(-153 -134)" d="M763.446 699.482C770.068 698.899 778.762 698.858 785.422 698.97C784.967 704.378 785.693 714.776 786.003 720.484C778.656 720.43 770.017 720.58 762.776 720.207C762.879 713.373 763.206 706.33 763.446 699.482Z"/><path fill="#FEC35C" transform="translate(-153 -134)" d="M675.787 789.589C682.738 789.184 688.64 789.041 695.588 789.106C695.791 795.074 695.95 801.251 696.343 807.198C689.468 806.881 682.316 806.431 675.461 806.958C676.786 804.647 675.875 792.896 675.787 789.589Z"/><path fill="#FEFEBA" transform="translate(-153 -134)" d="M419.047 270.461C423.976 270.396 435.029 270.073 439.427 270.91L439.482 271.545C437.815 277.807 436.04 288.397 435.111 294.962C429.298 295.053 424.154 295.759 418.494 296.061C418.591 310.262 417.047 324.897 416.983 339.412L394.928 339.561C394.3 353.351 393.84 370.204 394.086 383.962L372.334 383.977L371.517 380.891C371.162 372.8 371.422 364.209 371.534 356.071C372.242 350.97 372.084 343.291 372.104 338C379.881 337.871 386.891 338.52 394.632 339.14C395.676 324.203 396.855 306.82 397.202 292.055L417.856 292.115C418.191 284.84 418.822 277.834 419.047 270.461Z"/><path fill="#FEF78A" transform="translate(-153 -134)" d="M544.934 182.494C566.62 182.463 588.246 182.988 609.921 182.837C616.913 182.789 623.878 182.909 630.868 183.059C631.616 186.36 633.093 201.473 633.664 205.962L562.732 206.284C560.608 206.276 546.367 205.767 545.205 206.438L544.83 207.374C545.091 215.592 544.397 223.668 544.638 231.982C540.567 232.144 522.632 231.763 518.823 231.071C520.497 231.001 522.072 230.902 523.743 230.77C525.624 229.116 523.973 213.742 525.246 208.664L526.392 208.167C529.933 208.588 539.333 208.516 542.878 207.436C543.953 207.109 544.043 206.209 544.426 205.225C544.339 197.846 544.678 189.875 544.934 182.494Z"/><path fill="#FEFEBA" transform="translate(-153 -134)" d="M349.409 443.556C356.024 443.607 365.76 443.415 372.106 444.026C371.393 469.594 372.384 496.307 371.995 521.997C371.878 529.723 372.607 537.724 372.434 545.441C367.396 545.854 354.128 547.201 349.493 546.815L349.355 507.047C348.854 499.113 349.193 488.675 349.197 480.563L349.074 443.525L349.409 443.556Z"/><path fill="#FCAC5D" transform="translate(-153 -134)" d="M418.986 743.928C426.984 744.26 435.392 744.044 443.429 743.961C443.698 751.563 443.877 758.824 442.784 766.399C449.719 767.141 455.453 767.097 462.436 766.849C463.197 773.536 463.082 781.423 463.063 788.219C475.687 788.357 490.24 788.038 502.617 788.593C502.658 794.543 502.517 801.824 503.137 807.652L502.978 808.129C492.188 807.223 475.505 808.455 463.279 807.898C462.828 801.827 462.96 794.447 462.936 788.241L440.788 788.004C440.409 780.987 440.141 774.021 439.881 766.999L419.099 766.488L418.93 760.582C419.202 756.045 418.99 748.641 418.986 743.928Z"/><path fill="#FEF78A" transform="translate(-153 -134)" d="M461.627 231.202C467.444 230.35 474.764 231.074 480.808 231.225C487.726 231.398 494.554 231.49 501.477 231.551C501.181 238.106 501.195 242.616 501.642 249.279C488.212 250.024 476.381 249.982 462.913 249.962C462.784 257.501 462.381 265.59 462.519 273.044C457.819 273.753 443.543 273.377 439.482 271.545L439.427 270.91L440.683 270.404C443.009 266.721 442.551 253.483 442.559 248.762C449.67 248.244 455.462 248.716 462.543 249.192C462.577 244.22 462.147 236.113 461.627 231.202Z"/><path fill="#846EC3" transform="translate(-153 -134)" d="M718.702 227.176C725.482 227.284 733.677 227.244 740.502 227.027C740.518 234.278 740.66 241.922 740.519 249.141L761.782 248.964C761.884 256.69 761.879 264.521 761.431 272.232L761.027 272.623C755.621 272.045 744.922 272.118 739.211 272.044C739.093 264.718 739.104 257.379 739.089 250.051L718.177 249.976C718.014 243.755 718.211 233.622 717.642 227.93C716.428 227.595 716.344 227.626 715.286 226.977C716.623 226.549 717.329 226.861 718.702 227.176Z"/><path fill="#7563BB" transform="translate(-153 -134)" d="M761.431 272.232C769.034 272.023 776.401 272.006 784.009 272.029L784.201 297.508C784.223 302.24 784.033 309.5 784.624 314.014C776.743 314.138 769.374 314.13 761.495 313.954C761.527 300.932 760.207 285.444 761.027 272.623L761.431 272.232Z"/><path fill="#F8A569" transform="translate(-153 -134)" d="M630.501 807.18C645.739 806.477 660.171 806.293 675.461 806.958C674.593 810.492 675.161 823.874 675.287 828.026C666.743 829.883 641.639 827.864 631.43 828.101L631.076 828.06C630.778 821.071 630.546 814.175 630.501 807.18Z"/><path fill="#FEC35C" transform="translate(-153 -134)" d="M374.344 638.022C382.145 638.079 389.671 638.011 397.471 637.847C397.366 650.315 397.934 662.964 397.971 675.541C391.454 675.026 382.613 675.764 375.477 675.365C374.931 674.479 374.732 670.992 374.553 669.724C374.226 660.058 374.528 648.531 374.419 638.663L374.344 638.022Z"/><path fill="#FCAC5D" transform="translate(-153 -134)" d="M349.958 577.83C355.157 577.892 360.177 577.875 365.372 577.807L372.884 577.819C373.047 590.203 372.937 603.999 373.484 616.289L372.919 614.62C370.387 613.369 354.306 613.929 350.314 614.013C350.809 606.23 350.465 585.429 349.958 577.83Z"/><path fill="#FEC35C" transform="translate(-153 -134)" d="M503.137 807.652C509.901 807.046 537.265 807.362 544.442 807.858C544.413 811.091 543.901 825.734 545.996 827.494C537.724 827.544 528.79 827.079 520.305 827.048C515.56 827.291 507.61 826.955 502.977 826.56C503.076 820.486 502.991 814.219 502.978 808.129L503.137 807.652Z"/><path fill="#FEF78A" transform="translate(-153 -134)" d="M349.493 546.815C354.128 547.201 367.396 545.854 372.434 545.441C372.66 556.336 373.055 566.609 373.013 577.554L365.372 577.807C360.177 577.875 355.157 577.892 349.958 577.83C349.182 569.054 349.52 555.9 349.493 546.815Z"/><path fill="#FCAC5D" transform="translate(-153 -134)" d="M397.554 698.273C403.626 698.898 413.022 698.409 419.097 697.924C419.133 708.006 418.982 718.127 418.856 728.211L418.578 721.866L397.498 721.943C397.36 714.254 397.394 706.429 397.355 698.727L397.554 698.273Z"/><path fill="#F48A74" transform="translate(-153 -134)" d="M663.174 291.915L694.484 292.151C694.736 298.279 695.008 305.84 695.87 311.835C703.179 312.081 710.814 312.447 718.1 312.503C718.599 318.189 718.617 326.096 718.463 331.911C718.761 332.775 718.903 333.865 719.513 333.999C724.913 335.181 735.366 334.569 740.806 334.481C740.896 338.872 741.264 350.356 740.692 354.482C740.537 363.392 740.98 372.148 740.965 381.019C748.11 381.188 755.434 381.276 762.561 381.558C762.52 402.325 763.422 423.242 763.423 444.086C768.904 444.114 778.306 443.905 783.469 444.41C783.587 488.71 783.832 533.366 782.936 577.65C775.759 578.113 768.473 577.946 761.465 578.443C761.132 598.207 761.605 618.185 761.474 637.994C755.041 637.965 746.341 637.775 739.961 638.348C740.07 643.833 741.098 674.858 740.001 677.12C738.078 677.669 737.782 677.616 735.741 677.61C733.886 677.395 729.064 677.464 727.029 677.44C724.217 676.882 721.067 676.984 718.167 676.944C718.216 671.015 717.649 664.268 717.586 658.13L717.471 615.13L717.168 614.835C716.921 601.98 717.196 589.227 717.185 576.382L717.083 495.916L716.834 451.456C716.753 442.032 716.409 432.438 716.888 423.053C714.696 422.083 698.861 422.492 695.602 422.519C694.776 410.473 695.456 392.613 695.451 379.897C693.838 379.268 677.183 379.269 674.121 379.222C673.921 373.734 674.059 367.802 674.086 362.28C674.106 360.101 674.235 359.225 673.654 357.17C670.847 356.638 656.092 356.963 652.409 356.986C652.696 351.696 651.795 343.158 651.814 337.072C644.81 337.129 637.532 336.948 630.483 336.926C630.497 329.3 631.002 321.234 631.075 313.414C635.719 313.581 648.542 314.398 652.594 314.118L652.589 292.048C656.093 291.954 659.626 292.01 663.174 291.915Z"/><path fill="#F8A569" transform="translate(-153 -134)" d="M716.888 423.053C718.857 423.636 736.368 423.368 738.955 423.137C739.181 434.736 738.558 445.571 738.627 457.003C738.942 509.369 739.332 562.093 738.479 614.439C734.018 614.929 719.334 614.317 717.471 615.13L717.168 614.835C716.921 601.98 717.196 589.227 717.185 576.382L717.083 495.916L716.834 451.456C716.753 442.032 716.409 432.438 716.888 423.053Z"/><path fill="#FCAC5D" transform="translate(-153 -134)" d="M674.571 357.057C681.244 356.771 689.153 356.977 695.372 356.592C695.361 362.688 695.036 373.831 695.591 379.587L717.128 379.477C716.754 394.109 717.034 408.441 716.888 423.053C714.696 422.083 698.861 422.492 695.602 422.519C694.776 410.473 695.456 392.613 695.451 379.897C693.838 379.268 677.183 379.269 674.121 379.222C673.921 373.734 674.059 367.802 674.086 362.28C674.645 360.044 674.569 359.412 674.571 357.057Z"/><path fill="#FCAC5D" transform="translate(-153 -134)" d="M631.075 313.414C635.719 313.581 648.542 314.398 652.594 314.118C652.537 320.66 652.217 329.59 652.628 335.938C654.001 336.836 654.847 336.548 656.767 336.654C655.07 336.866 653.526 337.125 651.814 337.072C644.81 337.129 637.532 336.948 630.483 336.926C630.497 329.3 631.002 321.234 631.075 313.414Z"/><path fill="#FEC35C" transform="translate(-153 -134)" d="M656.767 336.654C662.149 336.3 669.139 336.401 674.598 336.562C674.532 343.033 674.283 350.689 674.571 357.057C674.569 359.412 674.645 360.044 674.086 362.28C674.106 360.101 674.235 359.225 673.654 357.17C670.847 356.638 656.092 356.963 652.409 356.986C652.696 351.696 651.795 343.158 651.814 337.072C653.526 337.125 655.07 336.866 656.767 336.654Z"/><path fill="#FCAC5D" transform="translate(-153 -134)" d="M718.463 331.911C718.761 332.775 718.903 333.865 719.513 333.999C724.913 335.181 735.366 334.569 740.806 334.481C740.896 338.872 741.264 350.356 740.692 354.482L718.59 354.573C718.669 348.59 719.105 337.447 718.463 331.911Z"/><path fill="#FEC35C" transform="translate(-153 -134)" d="M717.168 614.835L717.471 615.13L717.586 658.13C717.649 664.268 718.216 671.015 718.167 676.944C721.067 676.984 724.217 676.882 727.029 677.44C724.051 677.497 721.123 677.544 718.142 677.534C718.109 683.97 718.431 695.912 717.936 701.895L717.568 702.052C717.239 708.766 717.132 716.155 716.709 722.748C710.781 723.454 703.06 724.005 697.055 723.61C690.96 723.493 680.481 723.131 674.727 724.62C675.003 731.198 674.59 739.62 674.423 746.343C667.235 746.411 659.605 746.604 652.461 746.285L651.214 746.718C650.255 751.998 651.549 759.688 650.452 765.504C636.826 766.11 624.125 766.292 610.497 765.934C610.805 762.057 610.489 749.575 611.643 747.518L613.564 747.026C596.479 746.575 579.193 747.17 562.091 747.034C557.411 746.997 551.921 747.376 547.402 746.215C546.147 743.776 546.965 728.1 547.062 724.182C561.51 724.564 575.309 724.257 589.679 724.2C603.472 724.145 615.649 724.302 629.479 723.531C629.358 716.471 629.529 708.847 629.524 701.737C636.593 701.483 643.532 701.455 650.606 701.423C650.574 693.923 651.03 686.734 650.929 678.945C657.336 678.185 665.397 678.734 672.369 678.206C672.69 671.652 672.665 664.298 672.789 657.679C680.269 657.15 687.489 657.094 694.987 656.99L695.371 615.299C701.685 614.787 710.404 615.087 717.168 614.835Z"/><path fill="#FEF78A" transform="translate(-153 -134)" d="M613.564 747.026C616.908 747.22 650.331 746.269 650.933 746.043L652.461 746.285L651.214 746.718C650.255 751.998 651.549 759.688 650.452 765.504C636.826 766.11 624.125 766.292 610.497 765.934C610.805 762.057 610.489 749.575 611.643 747.518L613.564 747.026Z"/><path fill="#FEFEBA" transform="translate(-153 -134)" d="M651.046 724.875C657.15 724.167 668.424 724.542 674.727 724.62C675.003 731.198 674.59 739.62 674.423 746.343C667.235 746.411 659.605 746.604 652.461 746.285L650.933 746.043C650.883 738.994 650.98 731.925 651.046 724.875Z"/><path fill="#FEF78A" transform="translate(-153 -134)" d="M696.819 702.03C703.603 701.899 710.756 702.032 717.568 702.052C717.239 708.766 717.132 716.155 716.709 722.748C710.781 723.454 703.06 724.005 697.055 723.61L696.819 702.03Z"/><path fill="#F8A569" transform="translate(-153 -134)" d="M544.884 274.002C578.796 272.182 618.271 274.539 652.872 274.115L652.996 291.573C656.947 291.504 659.272 291.503 663.174 291.915C659.626 292.01 656.093 291.954 652.589 292.048L652.594 314.118C648.542 314.398 635.719 313.581 631.075 313.414C623.965 312.651 613.89 313.095 606.547 312.957C589.666 312.639 572.46 313.233 555.616 313.067C551.694 312.462 548.751 313.494 544.853 312.512L544.32 310.753C545.08 305.279 543.406 296.203 545.063 292.686C545.96 289.963 545.098 277.368 544.884 274.002Z"/><path fill="#FCAC5D" transform="translate(-153 -134)" d="M440.337 383.048C447.346 382.971 453.882 383.012 460.882 382.377L461.626 385.518C462.158 398.174 461.97 411.82 461.913 424.556C456.306 424.938 446.696 425.486 441.162 425.195C441.13 452.846 442.095 480.982 441.51 508.608C435.15 507.926 426.389 509.614 420.155 507.971C419.479 507.793 419.266 506.526 418.955 505.653C419.51 497.611 419.033 484.012 419.056 475.533C419.103 458.794 419.496 441.036 418.404 424.434C425.687 424.33 432.747 424.552 440.089 424.261C439.299 412.632 441.01 396.252 440.337 383.048Z"/><path fill="#FCAC5D" transform="translate(-153 -134)" d="M523.687 293.555C530.695 293.553 538.042 293.068 545.063 292.686C543.406 296.203 545.08 305.279 544.32 310.753L544.853 312.512C548.751 313.494 551.694 312.462 555.616 313.067C551.519 313.41 548.114 313.478 543.992 313.52L544.474 337.598C536.82 338.116 528.927 338.087 521.239 338.158L501.896 337.94C502.057 344.814 502.212 351.562 502.176 358.438C495.819 358.459 489.067 358.597 482.743 358.478C482.543 367.367 482.973 376.183 482.605 385.035C475.511 385.3 468.722 385.537 461.626 385.518L460.882 382.377C460.167 375.462 460.397 364.787 459.979 357.104L482.075 357.555L482.031 337.227C488.504 337.224 494.56 337.181 501.023 336.898C500.954 328.859 501.713 321.923 501.82 314.127C508.739 313.395 515.772 313.498 522.73 313.471C522.512 306.308 522.655 300.628 523.687 293.555Z"/><path fill="#FEC35C" transform="translate(-153 -134)" d="M441.527 592.929C441.731 594.454 441.726 596.436 442.554 597.447C448.918 597.629 457.118 597.353 463.163 597.852L462.636 637.685C466.545 637.395 476.733 636.216 479.951 638.161C483.227 643.248 482.237 668.63 483.071 676.058C487.829 676.171 499.069 675.571 502.152 677.575C505.209 681.398 502.026 693.818 502.234 698.926C472.674 698.879 480.529 702.099 478.743 676.987C473.636 677.129 467.854 677.403 462.784 677.297C461.891 664.232 462.278 651.759 462.451 638.684C455.419 638.72 449.592 638.831 442.559 639.356C442.471 626.063 442.867 611.607 442.47 598.504C440.679 598.472 431.638 598.386 430.623 598.054C434.472 597.052 438.194 598.656 440.485 597.465C441.772 595.755 441.346 595.523 441.527 592.929Z"/><path fill="#FEC35C" transform="translate(-153 -134)" d="M418.955 505.653C419.266 506.526 419.479 507.793 420.155 507.971C426.389 509.614 435.15 507.926 441.51 508.608C442.032 536.975 441.192 564.934 441.527 592.929C441.346 595.523 441.772 595.755 440.485 597.465C438.194 598.656 434.472 597.052 430.623 598.054L419.568 598.442C417.512 575.549 420 550.324 419.277 527.258C419.047 519.935 419.65 513.077 418.955 505.653Z"/></g></svg>