<?xml version="1.0" encoding="utf-8" ?><svg xmlns="http://www.w3.org/2000/svg" xmlns:xlink="http://www.w3.org/1999/xlink" width="728" height="1322" viewBox="0 0 728 1322"><clipPath id="cl_3"><rect y="-1.5258789e-05" width="728" height="1322"/></clipPath><g clip-path="url(#cl_3)"><path fill="#322245" transform="translate(-133 -105)" d="M231.058 121.79L723.929 106.477C723.876 111.724 724.033 120.899 723.519 125.826C730.551 125.211 736.331 125.119 743.405 125.062C743.36 131.049 743.212 137.332 743.289 143.291C749.857 142.872 756.325 142.317 762.901 142.581L762.311 161.172L782.349 161.032L782.141 179.02C788.875 178.679 795.219 178.432 801.96 178.352L801.907 196.508C808.785 196.073 815.083 195.891 821.977 195.783L821.931 214.556C828.324 214.387 835.453 214.355 841.777 214L841.693 230.381L859.812 229.454L859.811 902.837L859.801 1116.66L859.8 1184.61C859.802 1193.84 859.314 1210.87 859.966 1219.59L860.58 1219.56C865.898 1220.84 882.588 1222.03 889.046 1222.65L889.073 1256.27C868.008 1271.66 847.027 1287.98 826.432 1304.02C774.137 1344.76 720.357 1384.2 668.508 1425.45L335.713 1362.64L232.958 1342.94C215.486 1339.6 193.553 1334.66 176.319 1332.56L176.382 1310.8C180.067 1308.14 186.264 1303.97 189.612 1301.25L190.413 1301.2L190.696 1300.29C190.016 1289.15 190.508 1271.95 190.5 1260.47L190.484 1183.98L190.463 950.072C178.557 949.268 165.9 948.187 154.025 948.045C154.555 942.757 154.24 934.662 154.171 929.084L150.879 927.641C145.817 928.031 140.197 927.634 135.083 927.416L135.079 805.001C141.207 805.383 148.161 805.396 154.363 805.532C154.046 799.667 154.072 792.961 153.97 787.021C160.361 786.989 166.134 787.238 172.512 787.552C172.628 781.785 172.494 775.609 172.464 769.806C177.763 769.499 185.268 769.956 190.762 770.143L190.553 752.944C196.402 752.851 202.717 753.037 208.598 753.114L208.56 735.045L226.541 735.065C226.443 729.304 226.263 723.742 226.005 717.987C232.125 717.984 238.261 718.103 244.381 718.191C244.531 711.787 244.407 705.424 244.322 699.019C250.529 698.997 256.369 699.098 262.573 699.307L263.367 698.725C262.515 682.731 263.398 664.316 263.831 648.267L264.884 589.759C266.107 498.483 269.044 407.064 269.369 315.76C263.26 315.606 256.742 315.706 250.597 315.695L250.647 296.964C244.131 296.805 237.6 296.884 231.081 296.918C231.045 290.124 231.1 283.537 231.247 276.745L230.588 276.078L212.074 276.028C211.616 231.946 212.009 187.305 212.058 143.188C218.812 143.192 224.128 143.131 230.845 142.579L231.213 140.636C231.144 134.363 231.038 128.061 231.058 121.79Z"/><path fill="#9B73BC" transform="translate(-133 -105)" d="M720.461 144.313C727.454 144.12 734.007 143.918 741.002 144.147C747.32 145.061 754.674 144.696 761.132 144.582C761.068 147.488 760.211 160.342 760.549 162.398C761.324 165.121 761.397 165.603 761.401 168.433C760.701 172.053 760.892 177.006 760.897 180.794L779.59 180.18L780.063 180.576L780.047 199.025L799.828 198.467L800.333 200.062C799.691 205.503 799.916 211.263 799.97 216.762C804.149 216.691 816.767 216.719 820.132 215.928L820.002 236.201C826.837 235.715 832.908 235.428 839.757 235.3L839.606 1210.38L742.056 1282.35C721.891 1297.44 702.283 1312.96 681.882 1327.75C682.442 1286.18 682.002 1243.69 681.993 1202.06L681.385 990.094L662.547 990.011C662.634 982.604 662.529 975.008 662.512 967.584L642.872 967.279L642.934 849.922L662.792 849.992C662.654 843.799 662.836 837.201 662.911 830.972L681.962 831.063L681.95 812.248C688.111 812.226 694.426 812.378 700.599 812.463L700.359 793.928L718.034 794.313L717.923 774.996L737.144 774.983C737.253 768.568 737.083 761.732 737.031 755.282C743.631 755.211 750.321 755.279 756.93 755.293L756.964 735.713L774.963 735.766L775.977 335.911L757.581 335.942C757.39 322.054 757.515 307.86 757.487 293.945L738.908 293.996L738.965 273.784L720.804 273.783L720.461 144.313Z"/><path fill="#322245" transform="translate(-133 -105)" d="M741.002 144.147C747.32 145.061 754.674 144.696 761.132 144.582C761.068 147.488 760.211 160.342 760.549 162.398C754.526 163.149 747.185 162.957 741.031 162.984L741.002 144.147Z"/><path fill="#725194" transform="translate(-133 -105)" d="M288.792 279.365L680.559 273.573C680.6 280.624 680.807 288.413 680.603 295.403C687.007 295.129 692.917 294.903 699.331 294.95L699.168 314.186L719.421 314.157L719.371 326.179C682.778 324.91 640.461 326.82 603.28 326.893L325.782 328.471L326.213 314.186C319.458 314.206 313.421 314.334 306.678 314.7L306.791 295.349L288.819 295.482L288.792 279.365Z"/><path fill="#B890DA" transform="translate(-133 -105)" d="M860.58 1219.56C865.898 1220.84 882.588 1222.03 889.046 1222.65L889.073 1256.27C868.008 1271.66 847.027 1287.98 826.432 1304.02C774.137 1344.76 720.357 1384.2 668.508 1425.45L335.713 1362.64L232.958 1342.94C215.486 1339.6 193.553 1334.66 176.319 1332.56L176.382 1310.8C180.067 1308.14 186.264 1303.97 189.612 1301.25L190.413 1301.2C190.665 1305.28 190.577 1310.52 190.627 1314.7C227.192 1320.47 266.654 1328.79 303.338 1335.66L553.089 1382.97C587.49 1389.46 626.87 1397.64 661.266 1402.95L859.737 1255.37L859.672 1220.57L859.966 1219.59L860.58 1219.56Z"/><path fill="#725194" transform="translate(-133 -105)" d="M839.606 1210.38C839.974 1221.64 839.722 1232.78 839.551 1244.04L740.271 1318.06C721.087 1332.5 701.512 1348.03 681.871 1361.67L681.882 1327.75C702.283 1312.96 721.891 1297.44 742.056 1282.35L839.606 1210.38Z"/><path fill="#C5E4D7" transform="translate(-133 -105)" d="M212.058 143.188C218.812 143.192 224.128 143.131 230.845 142.579L231.261 143.166C236.936 142.419 245.975 142.536 251.987 142.463C251.954 186.094 252.367 232.421 251.249 275.973C246.93 276.007 234.429 276.325 231 275.553L230.588 276.078L212.074 276.028C211.616 231.946 212.009 187.305 212.058 143.188Z"/><path fill="#322245" transform="translate(-133 -105)" d="M212.058 143.188C218.812 143.192 224.128 143.131 230.845 142.579L231.261 143.166L231.057 143.852C231.064 186.818 231.889 232.833 231 275.553L230.588 276.078L212.074 276.028C211.616 231.946 212.009 187.305 212.058 143.188Z"/><path fill="#120B18" transform="translate(-133 -105)" d="M212.058 143.188C218.812 143.192 224.128 143.131 230.845 142.579L231.261 143.166L231.057 143.852C225.156 144.287 219.156 144.832 213.248 144.853L213.252 231.696C213.265 243.983 212.654 262.743 213.415 274.324C219.935 274.426 224.572 274.501 231 275.553L230.588 276.078L212.074 276.028C211.616 231.946 212.009 187.305 212.058 143.188Z"/><path fill="#120B18" transform="translate(-133 -105)" d="M231.058 121.79L723.929 106.477C723.876 111.724 724.033 120.899 723.519 125.826C730.551 125.211 736.331 125.119 743.405 125.062C743.36 131.049 743.212 137.332 743.289 143.291C749.857 142.872 756.325 142.317 762.901 142.581L762.311 161.172L782.349 161.032L782.141 179.02C788.875 178.679 795.219 178.432 801.96 178.352L801.907 196.508C808.785 196.073 815.083 195.891 821.977 195.783L821.931 214.556C828.324 214.387 835.453 214.355 841.777 214L841.693 230.381L859.812 229.454L859.811 902.837L859.801 1116.66L859.8 1184.61C859.802 1193.84 859.314 1210.87 859.966 1219.59L859.672 1220.57C857.203 1216.64 858.171 1107.31 858.17 1093.68L858.163 871.664L858.517 231.735C852.238 231.91 846.411 231.849 840.132 231.737L840.07 216.086L821.818 216.125C821.762 219.933 821.745 223.803 821.56 227.601C820.665 223.711 821.236 220.132 820.132 215.928C816.767 216.719 804.149 216.691 799.97 216.762C799.916 211.263 799.691 205.503 800.333 200.062L799.828 198.467L780.047 199.025L780.063 180.576L779.59 180.18L760.897 180.794C760.892 177.006 760.701 172.053 761.401 168.433C761.397 165.603 761.324 165.121 760.549 162.398C760.211 160.342 761.068 147.488 761.132 144.582C754.674 144.696 747.32 145.061 741.002 144.147C741.469 137.928 741.743 132.484 741.868 126.25C735.493 126.756 728.706 126.74 722.288 126.852C722.23 120.647 722.345 114.245 722.376 108.022C705.505 107.819 687.455 108.945 670.474 109.527L578.951 112.488L232.25 123.352C232.002 129.224 231.669 134.776 231.213 140.636C231.144 134.363 231.038 128.061 231.058 121.79Z"/><path fill="#322245" transform="translate(-133 -105)" d="M801.738 198.325C808.879 197.58 813.523 197.315 820.702 197.297C820.685 198.572 820.189 216.102 820.132 215.928C816.767 216.719 804.149 216.691 799.97 216.762C799.916 211.263 799.691 205.503 800.333 200.062L800.977 205.45L801.738 198.325Z"/><path fill="#322245" transform="translate(-133 -105)" d="M780.063 180.576C786.86 179.872 793.656 179.991 800.488 179.978C800.481 185.835 800.721 192.77 799.828 198.467L780.047 199.025L780.063 180.576Z"/><path fill="#322245" transform="translate(-133 -105)" d="M761.401 168.433C762.214 166.767 762.505 165.645 762.874 163.827C765.078 162.098 777.282 162.463 780.908 162.418C780.936 167.26 781.386 175.937 779.59 180.18L760.897 180.794C760.892 177.006 760.701 172.053 761.401 168.433Z"/><path fill="#C5E4D7" transform="translate(-133 -105)" d="M154.017 828.613L173.151 829.141L173.289 929.777L156.559 928.344L155.023 928.098C152.974 921.665 154.007 840.779 154.017 828.613Z"/><path fill="#120B18" transform="translate(-133 -105)" d="M231.247 276.745C233.381 279.157 232.654 291.329 232.582 295.259L251.306 295.481L252.136 296.076L270.023 295.634C269.995 299.766 269.694 311.399 270.327 314.809C271.401 319.481 270.73 350.152 270.62 356.861L269.524 430.5L266.537 575.107C266.287 589.943 265.29 694.15 263.367 698.725C262.515 682.731 263.398 664.316 263.831 648.267L264.884 589.759C266.107 498.483 269.044 407.064 269.369 315.76C263.26 315.606 256.742 315.706 250.597 315.695L250.647 296.964C244.131 296.805 237.6 296.884 231.081 296.918C231.045 290.124 231.1 283.537 231.247 276.745Z"/><path fill="#322245" transform="translate(-133 -105)" d="M270.023 295.634C269.995 299.766 269.694 311.399 270.327 314.809C266.951 313.715 256.218 314.101 252.189 314.131L252.136 296.076L270.023 295.634Z"/><path fill="#120B18" transform="translate(-133 -105)" d="M155.023 928.098L156.559 928.344C154.806 930.897 155.894 942.473 155.911 946.531C167.986 947.492 179.896 948.037 191.991 948.616L192.047 1178.27C192.053 1216.3 192.089 1254.32 192.015 1292.35C192.011 1294.45 192.276 1298.91 190.696 1300.29C190.016 1289.15 190.508 1271.95 190.5 1260.47L190.484 1183.98L190.463 950.072C178.557 949.268 165.9 948.187 154.025 948.045C154.555 942.757 154.24 934.662 154.171 929.084L155.023 928.098Z"/><path fill="#120B18" transform="translate(-133 -105)" d="M244.322 699.019C250.529 698.997 256.369 699.098 262.573 699.307C259.225 701.255 250.55 700.672 246.257 700.588C246.087 707.828 246.033 712.374 245.018 719.522L244.93 720.107C239.067 719.994 233.573 719.871 227.702 720.093L227.681 736.485C221.729 736.624 216.138 736.719 210.18 736.608L210.094 754.584L192.348 754.454L192.109 771.104C186.066 771.379 180.277 771.669 174.223 771.62L174.064 789.019L155.417 788.976L155.163 807.102L136.612 807.158L136.526 925.815C140.616 926.49 148.006 926.748 150.879 927.641C145.817 928.031 140.197 927.634 135.083 927.416L135.079 805.001C141.207 805.383 148.161 805.396 154.363 805.532C154.046 799.667 154.072 792.961 153.97 787.021C160.361 786.989 166.134 787.238 172.512 787.552C172.628 781.785 172.494 775.609 172.464 769.806C177.763 769.499 185.268 769.956 190.762 770.143L190.553 752.944C196.402 752.851 202.717 753.037 208.598 753.114L208.56 735.045L226.541 735.065C226.443 729.304 226.263 723.742 226.005 717.987C232.125 717.984 238.261 718.103 244.381 718.191C244.531 711.787 244.407 705.424 244.322 699.019Z"/><path fill="#738198" transform="translate(-133 -105)" d="M719.89 294.034L738.555 293.977C738.405 300.683 738.218 307.375 738.266 314.083L719.421 314.157L719.89 294.034Z"/><path fill="#738198" transform="translate(-133 -105)" d="M288.819 295.482L288.721 315.219C283.313 315.238 275.505 315.508 270.327 314.809C269.694 311.399 269.995 299.766 270.023 295.634L288.819 295.482Z"/><path fill="#738198" transform="translate(-133 -105)" d="M251.378 276.732L270.032 276.783L270.023 295.634L252.136 296.076L251.306 295.481L251.378 276.732Z"/><path fill="#B890DA" transform="translate(-133 -105)" d="M247.939 953.826C269.716 956.953 298.35 958.986 320.696 961.05L426.523 971.373L548.154 983.391C571.882 985.764 599.58 989.093 623.245 990.397C623.443 1004.71 623.26 1019.42 623.248 1033.77L623.28 1327.68L623.422 1373.7C612.317 1370.87 595.69 1368.27 584.166 1366.11L513 1352.61L248.141 1303.11C248.124 1289.63 247.969 1275.81 248.304 1262.37L248.173 1261.65C247.569 1258.71 247.787 1242 247.79 1237.87L247.792 1184.8L247.724 1022.82C247.73 999.737 248.201 976.96 247.939 953.826Z"/><path fill="#725194" transform="translate(-133 -105)" d="M247.939 953.826C269.716 956.953 298.35 958.986 320.696 961.05L426.523 971.373L548.154 983.391C571.882 985.764 599.58 989.093 623.245 990.397C623.443 1004.71 623.26 1019.42 623.248 1033.77C588.172 1031.47 548.127 1026.87 512.924 1023.25L379.832 1009.85L293.814 1000.81C281.943 999.591 259.011 997.937 248.412 995.879L248.411 1179.41L248.457 1234.05C248.465 1240.2 248.836 1256.18 248.173 1261.65C247.569 1258.71 247.787 1242 247.79 1237.87L247.792 1184.8L247.724 1022.82C247.73 999.737 248.201 976.96 247.939 953.826Z"/><path fill="#725194" transform="translate(-133 -105)" d="M248.304 1262.37C279.976 1267.28 312.89 1273.74 344.597 1279.34L522.733 1310.37L590.304 1322.22C596.887 1323.38 617.355 1327.38 623.28 1327.68L623.422 1373.7C612.317 1370.87 595.69 1368.27 584.166 1366.11L513 1352.61L248.141 1303.11C248.124 1289.63 247.969 1275.81 248.304 1262.37Z"/><path fill="#322245" transform="translate(-133 -105)" d="M350.139 1024.38C356.539 1025.28 364.268 1026.08 370.751 1026.51C417.447 1029.6 466.49 1038.89 513.009 1041.05L513.104 1220.88L404.276 1204.39C387.57 1201.88 366.766 1198.2 350.287 1196.76L350.139 1024.38Z"/><path fill="#725194" transform="translate(-133 -105)" d="M368.189 1046.15L445.652 1055.1C460.55 1056.79 479.197 1058.43 493.692 1060.78C493.202 1105.84 493.726 1152.14 493.886 1197.28C452.161 1190.66 409.683 1185.46 368.19 1178.67C369.31 1136.32 368.349 1088.69 368.189 1046.15Z"/><path fill="#322245" transform="translate(-133 -105)" d="M381.982 1068.45L406.685 1070.7C406.447 1081.24 406.629 1092.25 406.648 1102.82C399.703 1101.44 389.026 1100.63 381.89 1100.06C382.144 1089.85 381.969 1078.73 381.982 1068.45Z"/><path fill="#322245" transform="translate(-133 -105)" d="M450.237 1119.35C458.3 1120.17 466.264 1121.16 474.303 1122.16C474.165 1132.31 474.303 1142.85 474.312 1153.03L450.1 1150.02C450.466 1139.8 450.312 1129.58 450.237 1119.35Z"/><path fill="#B890DA" transform="translate(-133 -105)" d="M281.097 697.441L298.66 698.127L298.509 718.517C304.205 718.849 309.834 718.995 315.534 719.158L315.463 755.964L299.358 755.155L299.505 771.81L282.472 771.746C282.549 782.75 282.68 793.666 282.355 804.67L300.012 805.067L299.853 816.744L375.904 816.863L376.036 807.992L393.12 808.433L393.046 792.057L408.79 792.794C408.741 785.256 408.837 777.628 408.872 770.082L392.916 770.06L393.027 755.837C384.209 755.301 374.932 755.269 366.066 755.103L366.127 718.771C397.254 719.669 428.748 721.857 459.896 723.251C545.485 727.079 631.579 732.871 717.18 735.605C717.118 740.706 716.719 749.655 716.993 754.445C717.074 760.736 717.264 767.206 716.975 773.478L716.365 774.449C712.358 775.207 702.747 774.013 698.076 773.92C698.055 780.084 697.902 786.718 698.207 792.839C692.407 792.702 685.493 792.699 679.823 792.235L680.214 811.904C673.973 812.357 667.837 812.129 661.586 812.007C661.622 818.052 661.582 824.255 661.7 830.283C657.224 830.219 650.183 830.335 645.915 829.912L643.054 830.495C640.814 834.368 642.448 844.336 641.913 849.742C641.58 843.054 641.558 836.473 641.505 829.78L622.062 829.682C622.046 835.802 621.898 842.475 622.059 848.549L603.819 848.057L603.779 861.133C587.044 860.979 566.995 859.114 550.21 857.849L474.913 852.265L242.915 834.607C219.969 832.927 196.995 830.738 174.053 829.32L173.987 806.139L191.239 806.522L191.213 788.632C196.759 789 203.391 788.958 209.043 789.052L209.039 771.035L226.457 771.105L226.415 753.628L244.598 753.79L244.684 735.773L263.148 736.074L263.275 718.585C269.153 718.892 275.106 718.98 280.995 719.12L281.097 697.441Z"/><path fill="#C5E4D7" transform="translate(-133 -105)" d="M697.56 754.011C703.715 754.039 710.288 754.338 716.475 754.51C716.508 760.806 716.417 767.216 716.975 773.478L716.365 774.449C712.358 775.207 702.747 774.013 698.076 773.92C698.055 780.084 697.902 786.718 698.207 792.839C692.407 792.702 685.493 792.699 679.823 792.235L680.214 811.904C675.956 811.418 666.353 811.58 661.667 811.542C661.955 805.507 661.755 798.17 661.729 792.02L679.19 791.996L679.026 772.74C684.548 773.196 691.945 773.184 697.617 773.318L697.56 754.011Z"/><path fill="#C5E4D7" transform="translate(-133 -105)" d="M642.09 811.818C648.378 812.057 655.249 811.97 661.586 812.007C661.622 818.052 661.582 824.255 661.7 830.283C657.224 830.219 650.183 830.335 645.915 829.912C643.431 829.522 644.138 829.969 642.389 828.495C641.284 823.544 641.925 817.091 642.09 811.818Z"/><path fill="#322245" transform="translate(-133 -105)" d="M508.028 740.317C520.534 741.569 538.149 741.711 550.925 742.169L550.896 758.13L566.528 758.178L566.444 784.954L578.31 785.032L578.276 758.291L594.143 758.945L594.198 742.444C607.806 743.067 621.628 743.839 635.229 744.014L634.989 759.835C640.995 759.932 647.225 760.225 653.248 760.425L652.959 785.093L639.344 785.062C637.017 785.119 637.747 784.799 635.933 785.943C634.653 790.416 635.244 797.875 635.356 802.817C627.917 802.467 619.74 802.501 612.24 802.384L612.533 828.794L594.547 828.475L594.913 845.983C585.785 844.798 564.729 844.41 554.642 843.889C554.879 839.032 554.821 833.708 554.867 828.81L539.003 828.51L539.062 804.015L527.317 803.989L527.321 829.14L510.475 828.669L510.7 844.571C497.947 843.326 482.883 842.842 470.017 842.197L470.248 827.283L454.268 827.231C454.474 818.517 454.463 809.656 454.532 800.928C460.062 801 465.666 800.924 471.202 800.897C470.875 796.508 471.072 788.545 471.058 783.89C478.219 783.851 483.859 783.807 490.968 784.47L491.075 757.401L507.976 758.183L508.028 740.317Z"/><path fill="#EC7FB1" transform="translate(-133 -105)" d="M471.947 800.961C484.664 801.006 497.09 801.165 509.801 801.505C509.138 805.83 509.367 812.851 509.376 817.42C497.062 816.958 484.346 816.86 471.994 816.629L471.947 800.961Z"/><path fill="#B95B91" transform="translate(-133 -105)" d="M471.202 800.897L471.947 800.961L471.994 816.629C484.346 816.86 497.062 816.958 509.376 817.42C509.367 812.851 509.138 805.83 509.801 801.505C510.423 804.497 510.165 824.034 510.141 828.057C497.256 827.408 484.113 826.686 471.232 826.522C471.31 818.018 471.221 809.41 471.202 800.897Z"/><path fill="#EC7FB1" transform="translate(-133 -105)" d="M555.692 800.821C568.553 801.108 581.211 801.091 594.074 801.059L594.225 817.532L594.125 827.974C581.944 827.07 567.53 827.03 555.347 827.15C555.345 820.709 554.867 806.41 555.692 800.821Z"/><path fill="#B95B91" transform="translate(-133 -105)" d="M555.692 800.821C556.179 806.455 556.088 811.534 556.057 817.173C567.935 817.197 582.599 816.882 594.225 817.532L594.125 827.974C581.944 827.07 567.53 827.03 555.347 827.15C555.345 820.709 554.867 806.41 555.692 800.821Z"/><path fill="#EC7FB1" transform="translate(-133 -105)" d="M595.643 759.058C608.319 759.468 621.282 759.969 633.95 760.099L634.111 777.074C634.247 780.214 634.083 783.392 633.984 786.538C621.088 786.18 608.514 786.039 595.612 786L595.644 777.014L595.643 759.058Z"/><path fill="#B95B91" transform="translate(-133 -105)" d="M595.644 777.014C608.109 777.021 621.746 776.745 634.111 777.074C634.247 780.214 634.083 783.392 633.984 786.538C621.088 786.18 608.514 786.039 595.612 786L595.644 777.014Z"/><path fill="#EC7FB1" transform="translate(-133 -105)" d="M509.35 759.028C522.058 759.644 534.689 759.862 547.407 759.962C548.003 767.79 547.671 777.982 547.615 786.012C534.656 785.905 522.292 785.367 509.394 785.008L509.354 776.397L509.35 759.028Z"/><path fill="#B95B91" transform="translate(-133 -105)" d="M547.407 759.962C548.003 767.79 547.671 777.982 547.615 786.012C534.656 785.905 522.292 785.367 509.394 785.008L509.354 776.397C514.998 775.303 540.234 776.205 547.01 776.35C546.971 770.558 546.907 765.754 547.407 759.962Z"/><path fill="#B890DA" transform="translate(-133 -105)" d="M650.714 131.684L660.206 131.176L660.317 252.263L279.106 259.519L270.918 259.73L271.037 143.066C365.497 139.255 460.896 138.582 555.447 134.618C586.643 133.309 619.756 133.475 650.714 131.684Z"/><path fill="#B890DA" transform="translate(-133 -105)" d="M192.675 851.911C238.913 857.058 291.828 859.737 338.846 863.611L511.68 877.073C535.779 878.825 560.369 881.054 584.44 882.361L584.42 964.889L393.282 946.899C326.987 940.472 259.06 933.546 192.731 928.181L192.675 851.911Z"/><path fill="#B890DA" transform="translate(-133 -105)" d="M680.288 378.665C686.751 377.387 710.287 378.213 718.566 377.915C718.544 382.379 718.275 391.208 718.789 395.264C718.977 420.056 718.009 448.342 717.491 473.431L714.86 606.293C714.076 640.882 712.771 679.018 712.96 713.349C646.556 711.073 579.967 706.516 513.549 703.912C473.417 702.339 433.128 699.264 393.002 698.021L393.135 669.689C485.307 673.268 578.502 679.496 670.562 682.216L670.659 656.974C676.3 657.772 684.28 657.893 690.179 658.131L694.849 477.724C695.537 452.293 695.807 426.467 696.872 401.109L680.027 401.355C680.257 393.856 680.233 386.181 680.288 378.665Z"/><path fill="#9B73BC" transform="translate(-133 -105)" d="M325.707 349.547L584.66 350.027L682.407 349.467C694.303 349.414 708.004 348.863 719.667 349.103C719.409 362.886 719.841 382.204 718.789 395.264C718.275 391.208 718.544 382.379 718.566 377.915C710.287 378.213 686.751 377.387 680.288 378.665C597.47 378.215 449.858 377.822 361.957 376.941C361.538 377.293 361.12 377.644 360.701 377.996L360.329 381.949C360.032 380.105 360.135 378.281 358.963 377.403C354.68 377.218 328.177 376.502 326.035 377.581L324.889 382.163C325.464 371.582 325.565 360.19 325.707 349.547Z"/><path fill="#9B73BC" transform="translate(-133 -105)" d="M400.791 402.76L425.556 403.502L473.383 404.32C485.828 404.751 497.77 405.176 510.227 405.067L510.14 431.502L473.171 430.443L473.022 454.478C464.665 454.407 456.918 454.316 448.584 453.8L448.534 479.932C440.379 479.373 432.702 479.097 424.527 478.878C424.498 486.45 424.568 494.256 424.4 501.806C415.905 501.662 406.68 501.067 398.438 501.026C398.191 514.447 397.499 529.69 397.625 542.954C389.283 542.186 381.14 541.899 372.792 541.42C373.738 527.414 373.604 513.983 374.328 500.118C374.333 484.884 375.303 467.498 375.794 452.113C375.845 443.394 376.079 435.496 376.536 426.788C384.426 426.982 392.446 427.403 400.38 427.631C401.009 422.1 400.744 408.865 400.791 402.76Z"/><path fill="#725194" transform="translate(-133 -105)" d="M473.383 404.32C485.828 404.751 497.77 405.176 510.227 405.067L510.14 431.502L473.171 430.443L473.022 454.478C464.665 454.407 456.918 454.316 448.584 453.8L448.534 479.932C440.379 479.373 432.702 479.097 424.527 478.878C424.498 486.45 424.568 494.256 424.4 501.806C415.905 501.662 406.68 501.067 398.438 501.026C398.191 514.447 397.499 529.69 397.625 542.954C389.283 542.186 381.14 541.899 372.792 541.42C373.738 527.414 373.604 513.983 374.328 500.118C382.125 500.141 390.556 500.681 398.394 501.042C398.986 493.062 399.052 485.792 399.124 477.781C407.537 478.049 416.155 478.536 424.584 478.912C424.57 470.006 424.685 461.838 425.073 452.945C433.172 453.648 440.447 453.801 448.59 453.959C448.547 445.955 448.772 437.67 448.883 429.645L473.187 430.484C473.029 421.796 473.244 413.015 473.383 404.32Z"/><path fill="#725194" transform="translate(-133 -105)" d="M400.791 402.76L425.556 403.502L425.213 428.401C417.308 428.317 408.129 428.443 400.38 427.631C401.009 422.1 400.744 408.865 400.791 402.76Z"/><path fill="#725194" transform="translate(-133 -105)" d="M376.536 426.788C384.426 426.982 392.446 427.403 400.38 427.631C399.659 434.278 399.08 446.249 399.073 453.037C390.69 452.991 384.097 452.933 375.794 452.113C375.845 443.394 376.079 435.496 376.536 426.788Z"/><path fill="#C5E4D7" transform="translate(-133 -105)" d="M737.714 335.131L757.044 335.149L756.981 355.48L755.976 735.78L735.377 735.7C735.41 741.419 735.243 749.167 735.622 754.722L716.993 754.445C716.719 749.655 717.118 740.706 717.18 735.605L734.328 735.872C734.142 715.206 734.521 694.538 734.597 673.873C734.617 668.491 734.769 663.111 734.414 657.738L734.495 656.632C735.719 648.089 735.088 621.658 735.098 611.254L735.772 534.294C734.718 537.333 736.059 536.593 734.476 539.756L734.625 539.819C733.751 534.271 733.005 509.33 735.829 505.367C736.64 495.7 736.293 474.363 736.458 464.102L737.541 365.387C737.001 358.627 737.633 342.562 737.714 335.131Z"/><path fill="#738198" transform="translate(-133 -105)" d="M737.714 335.131L757.044 335.149L756.981 355.48C750.325 355.948 744.84 356.074 738.161 356.083C738.028 358.499 737.896 363.149 737.541 365.387C737.001 358.627 737.633 342.562 737.714 335.131Z"/><path fill="#120B18" transform="translate(-133 -105)" d="M735.772 534.294C734.718 537.333 736.059 536.593 734.476 539.756L734.625 539.819C733.751 534.271 733.005 509.33 735.829 505.367C735.944 515.101 736.076 524.551 735.772 534.294Z"/><path fill="#C5E4D7" transform="translate(-133 -105)" d="M642.081 990.724L661.903 990.959L662.413 1200.72L662.504 1264C662.514 1273.11 662.972 1288.34 662.281 1296.9L662.441 1380.03C655.761 1378.94 649.043 1378.17 642.325 1377.35C642.73 1337.95 642.207 1297.57 642.148 1258.06L642.097 1036.38L642.081 990.724Z"/><path fill="#738198" transform="translate(-133 -105)" d="M642.081 990.724L661.903 990.959L662.413 1200.72L662.504 1264C662.514 1273.11 662.972 1288.34 662.281 1296.9C661.5 1288.85 661.891 1275.16 661.887 1266.58L661.807 1214.01L661.619 1037.1L642.097 1036.38L642.081 990.724Z"/><path fill="#C5E4D7" transform="translate(-133 -105)" d="M209.333 1009.27C215.134 1009.7 222.42 1010.42 228.079 1010.38C228.102 1015.03 228.016 1020.13 228.168 1024.75C228.669 1021.46 229.073 1013.63 229.669 1011.68C229.416 1013.44 229.666 1013.18 229.711 1014.58C230.83 1049.25 229.491 1084.04 229.9 1118.75C229.943 1122.39 229.769 1126.56 229.266 1130.13C229.133 1123.87 229.681 1100.1 228.214 1096.04C227.534 1117.47 228.113 1142.05 228.138 1163.67L228.622 1300.14L209.58 1297.29C208.751 1266.31 209.435 1231.64 209.403 1200.42L209.333 1009.27Z"/><path fill="#241530" transform="translate(-133 -105)" d="M228.168 1024.75C228.669 1021.46 229.073 1013.63 229.669 1011.68C229.416 1013.44 229.666 1013.18 229.711 1014.58C230.83 1049.25 229.491 1084.04 229.9 1118.75C229.943 1122.39 229.769 1126.56 229.266 1130.13C229.133 1123.87 229.681 1100.1 228.214 1096.04C227.935 1092.7 228.093 1088.4 228.111 1085C228.213 1064.95 227.754 1044.78 228.168 1024.75Z"/><path fill="#EC7FB1" transform="translate(-133 -105)" d="M330.419 636.145C339.871 635.917 348.531 636.677 357.852 636.802L357.632 653.319C362.892 653.435 368.339 653.482 373.579 653.677C373.381 669.203 372.75 685.869 372.934 701.264L357.066 700.995C356.921 706.945 356.662 713.234 356.645 719.157C343.065 718.414 329.52 718.47 315.921 718.404L316.058 698.788C311.048 698.161 304.362 698.259 299.197 698.182C299.276 690.341 299.216 681.986 299.825 674.215C300.305 668.305 300.061 659.319 300.056 653.165C304.74 653.191 309.086 653.381 313.751 653.613C315.185 653.274 314.535 653.595 315.67 652.456C316.41 648.186 316.121 640.613 316.091 636.042L330.419 636.145Z"/><path fill="#B95B91" transform="translate(-133 -105)" d="M330.419 636.145C339.871 635.917 348.531 636.677 357.852 636.802L357.632 653.319C362.892 653.435 368.339 653.482 373.579 653.677C373.381 669.203 372.75 685.869 372.934 701.264L357.066 700.995C356.921 706.945 356.662 713.234 356.645 719.157C343.065 718.414 329.52 718.47 315.921 718.404L316.058 698.788L316.746 699.192C325.083 700.269 331.258 700.431 339.667 700.677C340.145 696.424 340.048 690.6 340.102 686.211L357.009 686.234L357.311 653.409C352.056 653.387 347.307 653.485 342.071 653.687L342.166 636.906C337.574 636.888 334.898 636.947 330.419 636.145Z"/><path fill="#CB6FA7" transform="translate(-133 -105)" d="M316.746 699.192C325.083 700.269 331.258 700.431 339.667 700.677L338.951 708.651C332.301 708.187 323.641 708.27 316.834 708.142L316.746 699.192Z"/><path fill="#B890DA" transform="translate(-133 -105)" d="M300.056 653.165C304.74 653.191 309.086 653.381 313.751 653.613C314.514 653.894 323.294 654.664 325.36 654.987C325.457 661.55 325.679 668.518 325.623 675.046C317.434 674.441 308.052 673.821 299.825 674.215C300.305 668.305 300.061 659.319 300.056 653.165Z"/><path fill="#C5E4D7" transform="translate(-133 -105)" d="M288.745 361.395C294.179 361.636 300.683 362.096 306.041 361.988L301.455 536.886C300.609 568.364 298.491 605.618 299.068 636.814L283.502 636.625L282.09 636.261C281.632 619.63 283.095 594.032 283.65 577.115L285.497 500.656C286.786 455.474 286.353 406.026 288.745 361.395Z"/><path fill="#B890DA" transform="translate(-133 -105)" d="M324.889 382.163L326.035 377.581C328.177 376.502 354.68 377.218 358.963 377.403C360.135 378.281 360.032 380.105 360.329 381.949C359.958 387.159 360.083 394.592 360.025 399.979L341.03 399.882C339.083 430.156 338.868 467.089 338.052 497.938L334.031 618.024L317.988 617.993C318.702 540.072 324.301 459.991 324.889 382.163Z"/><path fill="#C5E4D7" transform="translate(-133 -105)" d="M681.443 124.045C688.271 124.006 695.216 123.734 702.05 123.526L700.894 273.636C695.657 274.063 686.558 273.817 681.028 273.83L681.443 124.045Z"/><path fill="#C5E4D7" transform="translate(-133 -105)" d="M622.062 829.682L641.505 829.78C641.558 836.473 641.58 843.054 641.913 849.742C635.66 849.387 629.187 848.907 622.94 848.928C622.979 888.218 623.402 928.193 622.895 967.43C616.424 966.936 610.372 966.634 603.886 966.404C603.876 960.383 604.099 952.342 603.786 946.486C603.384 953.084 603.113 959.537 602.875 966.142C600.403 955.658 601.603 884.589 602.471 871.266C602.684 875.027 602.799 878.786 603.738 882.45C603.997 875.871 603.778 867.826 603.779 861.133L603.819 848.057L622.059 848.549C621.898 842.475 622.046 835.802 622.062 829.682Z"/><path fill="#241530" transform="translate(-133 -105)" d="M602.875 966.142C600.403 955.658 601.603 884.589 602.471 871.266C602.684 875.027 602.799 878.786 603.738 882.45C603.98 899.129 604.852 930.676 603.786 946.486C603.384 953.084 603.113 959.537 602.875 966.142Z"/><path fill="#725194" transform="translate(-133 -105)" d="M299.979 771.8L317.322 771.924L317.213 789.037C327.961 788.096 354.355 788.996 365.977 789.015L366.058 805.195C359.186 804.865 326.253 805.713 323.337 803.514C323.122 801.632 323.174 801.465 322.449 799.641C318.654 797.552 305.091 798.09 299.959 798.08L299.979 771.8Z"/><path fill="#738198" transform="translate(-133 -105)" d="M209.173 950.892C215.56 951.637 221.892 951.896 228.053 952.619L228.079 1010.38C222.42 1010.42 215.134 1009.7 209.333 1009.27L209.173 950.892Z"/><path fill="#738198" transform="translate(-133 -105)" d="M288.946 315.709C294.281 315.669 301.391 315.832 306.543 315.153L306.041 361.988C300.683 362.096 294.179 361.636 288.745 361.395L288.946 315.709Z"/><path fill="#C5E4D7" transform="translate(-133 -105)" d="M332.258 737.604C337.171 738.022 343.308 737.957 348.321 738.041C347.982 749.922 348.178 762.801 348.155 774.761L331.926 774.498L332.258 737.604Z"/><path fill="#738198" transform="translate(-133 -105)" d="M623.327 967.588C629.732 967.507 635.775 967.877 642.163 968.221C642.227 975.656 642.291 982.737 641.991 990.164L623.237 989.922C622.924 982.299 622.967 975.194 623.327 967.588Z"/><path fill="#738198" transform="translate(-133 -105)" d="M700.984 273.973L719.495 273.912L719.42 294.006L700.642 294.1L700.984 273.973Z"/><path fill="#725194" transform="translate(-133 -105)" d="M366.021 771.016L381.224 771.071L381.188 788.859C376.118 788.244 371.026 788.31 365.919 788.264L366.021 771.016Z"/><path fill="#120B18" transform="translate(-133 -105)" d="M734.414 657.738L733.414 656.266C733.081 647.793 732.266 626.146 733.928 618.896C734.97 631.148 733.554 643.803 734.426 655.741L734.495 656.632L734.414 657.738Z"/><path fill="#B0A7B6" transform="translate(-133 -105)" d="M282.09 636.261L283.502 636.625C283.605 640.364 284.004 645.324 282.471 648.72L282.837 649.21L283.015 648.692L282.672 649.296L283.03 648.061L282.148 647.506C281.842 645.358 282.06 638.771 282.09 636.261Z"/></g></svg>