<?xml version="1.0" encoding="utf-8" ?><svg xmlns="http://www.w3.org/2000/svg" xmlns:xlink="http://www.w3.org/1999/xlink" width="783" height="636" viewBox="0 0 783 636"><clipPath id="cl_3"><rect width="783" height="636"/></clipPath><g clip-path="url(#cl_3)"><path fill="#E3C4EA" transform="translate(-116 -151)" d="M491.065 394.166C491.021 386.142 489.03 332.135 490.731 327.954C494.412 327.31 508.953 327.724 513.561 327.795L513.606 394.242C517.579 393.359 529.515 393.97 534.362 393.99L579.581 394.051L775.934 393.969C775.633 400.476 775.807 408.598 775.766 415.209C785.31 414.877 812.347 415.977 819.82 414.257C819.789 422.198 819.93 429.916 819.726 437.878L842.962 437.812C842.688 443.541 842.581 454.812 842.857 460.488C849.273 461.094 858.405 460.687 865.116 460.761C865.015 467.874 865.01 474.709 865.212 481.747C865.324 485.658 865.978 500.634 865.151 503.976L865.078 504.618L865.522 504.916C872.392 504.811 881.446 505.106 888.003 504.626C887.335 523.152 887.852 544.815 887.869 563.659L888.038 657.509C881.505 657.464 871.483 657.47 865.051 658.162L865.131 703.443C857.904 703.387 850.318 703.218 843.125 703.407C843.278 710.623 842.967 718.155 843.034 725.481L819.953 725.458C819.958 732.578 819.814 740.277 820.006 747.348C806.483 747.036 791.718 747.172 778.17 747.475C778.475 750.341 777.995 764.107 778.004 768.205C768.146 768.745 755.831 768.435 745.801 768.43L689.992 768.414C682.883 768.412 672.884 768.095 666 768.446C666.102 761.317 666.131 754.408 666.041 747.279C659.153 747.514 651.972 747.43 645.055 747.438L644.972 726.417C631.225 726.383 613.138 725.791 599.851 726.384C600.209 719.314 600.172 710.932 599.881 703.837L599.51 703.631L481.522 703.563L445.166 703.545C439.333 703.546 429.247 703.312 423.777 703.963C422.843 707.985 423.082 721.512 423.211 726.069L379.504 725.902C379.035 732.918 379.108 740.272 379.153 747.319C371.375 747.009 363.575 747.475 355.571 747.177L355.619 768.469C345.983 768.059 334.179 768.387 324.376 768.331L244.621 768.36C244.967 761.406 244.385 754.359 244.778 747.512C231.295 747.132 216.624 747.377 203.049 747.32C202.881 740.119 203.007 732.801 203.067 725.588C195.752 725.407 188.208 725.509 180.872 725.525C180.802 718.83 180.491 710.006 180.923 703.505C176.277 702.947 162.706 703.435 157.472 703.483L157.497 659.123C150.934 659.564 143.085 659.432 136.427 659.437C135.804 643.93 136.183 626.043 136.178 610.344L136.177 504.574C139.938 504.944 153.844 505.029 157.534 504.705C157.359 490.104 157.469 475.294 157.455 460.678C165.22 460.768 172.983 460.724 180.748 460.698C180.242 454.559 180.537 443.97 180.544 437.685C188.237 437.77 195.718 437.784 203.41 437.671C200.233 428.83 203.383 425.498 202.792 415.121C215.599 414.555 231.452 414.986 244.489 414.998C244.529 408.198 244.993 400.679 244.673 393.993L409.11 394.07L461.859 394.005C470.859 393.992 482.24 393.65 491.065 394.166Z"/><path fill="#90D5D4" transform="translate(-116 -151)" d="M865.522 504.916C872.392 504.811 881.446 505.106 888.003 504.626C887.335 523.152 887.852 544.815 887.869 563.659L888.038 657.509C881.505 657.464 871.483 657.47 865.051 658.162L865.131 703.443C857.904 703.387 850.318 703.218 843.125 703.407C843.278 710.623 842.967 718.155 843.034 725.481L819.953 725.458C819.958 732.578 819.814 740.277 820.006 747.348C806.483 747.036 791.718 747.172 778.17 747.475C778.475 750.341 777.995 764.107 778.004 768.205C768.146 768.745 755.831 768.435 745.801 768.43L689.992 768.414C682.883 768.412 672.884 768.095 666 768.446C666.102 761.317 666.131 754.408 666.041 747.279C659.153 747.514 651.972 747.43 645.055 747.438L644.972 726.417C631.225 726.383 613.138 725.791 599.851 726.384C600.209 719.314 600.172 710.932 599.881 703.837L599.51 703.631L481.522 703.563L445.166 703.545C439.333 703.546 429.247 703.312 423.777 703.963L379.342 702.805L379.433 725.494L354.978 725.483L354.99 746.055C320.104 745.411 283.07 745.939 248.09 746.019C247.957 739.284 248.057 732.228 248.05 725.467L203.74 725.49L203.833 700.907L181.222 701.005C181.113 688.756 180.917 671.282 181.481 659.254C186.597 659.851 198.433 659.524 203.989 659.484L203.967 681.492C212.817 681.483 238.346 681.925 245.604 680.85C246.83 681.47 247.21 681.34 247.577 682.248C249.38 686.706 246.457 698.862 249.625 701.828C252.789 703.008 254.43 702.272 257.654 702.972C280.924 703.537 305.419 702.943 328.852 703.148C342.071 703.264 365.652 704.223 377.641 703.22C377.593 696.005 377.613 688.677 377.476 681.473L423.514 681.453C422.511 675.259 423.006 665.577 422.593 658.979L540.172 659.127L579.298 659.251C586.182 659.271 595.969 659.521 602.696 658.921C603.047 666.918 603.199 673.204 602.146 681.268C613.204 680.826 624.209 679.962 635.215 681.086C639.577 681.531 644.086 681.778 648.47 681.944L648.351 703.022C660.053 701.998 674.003 703.834 686.419 703.932L777.42 704.033C777.389 699.379 777.072 686.088 777.798 681.984C779.192 681.222 780.839 681.494 782.505 681.538C795.212 681.865 807.769 681.899 820.48 681.934C820.526 674.576 820.003 666.454 819.665 659.045C823.718 659.053 838.823 659.578 842.077 658.556L842.707 658.707C844.835 657.394 859.731 657.865 863.383 657.889C863.339 651.8 862.733 620.094 863.833 616.751C864.981 616.395 864.623 616.607 865.459 615.788C865.866 604.028 865.511 589.857 865.505 577.904L865.522 504.916Z"/><path fill="#31355A" transform="translate(-116 -151)" d="M865.522 504.916C872.392 504.811 881.446 505.106 888.003 504.626C887.335 523.152 887.852 544.815 887.869 563.659L888.038 657.509C881.505 657.464 871.483 657.47 865.051 658.162L865.131 703.443C857.904 703.387 850.318 703.218 843.125 703.407C843.278 710.623 842.967 718.155 843.034 725.481L819.953 725.458C819.958 732.578 819.814 740.277 820.006 747.348C806.483 747.036 791.718 747.172 778.17 747.475C778.475 750.341 777.995 764.107 778.004 768.205C768.146 768.745 755.831 768.435 745.801 768.43L689.992 768.414C682.883 768.412 672.884 768.095 666 768.446C666.102 761.317 666.131 754.408 666.041 747.279C659.153 747.514 651.972 747.43 645.055 747.438L644.972 726.417C631.225 726.383 613.138 725.791 599.851 726.384C600.209 719.314 600.172 710.932 599.881 703.837C614.665 703.565 630.559 703.928 645.428 703.973C645.372 711.074 645.212 718.35 645.555 725.425L665.479 725.059L665.511 746.006L774.659 745.996L774.621 725.466C789.983 725.506 803.718 726.056 818.983 724.285L818.942 700.935C826.998 700.86 835.09 700.943 843.149 700.986C843.142 691.161 843.807 667.571 842.707 658.707C844.835 657.394 859.731 657.865 863.383 657.889C863.339 651.8 862.733 620.094 863.833 616.751C864.981 616.395 864.623 616.607 865.459 615.788C865.866 604.028 865.511 589.857 865.505 577.904L865.522 504.916Z"/><path fill="#31355A" transform="translate(-116 -151)" d="M423.96 681.399C482.594 681.758 540.71 681.202 599.447 681.996C599.384 689.278 599.349 696.352 599.51 703.631L481.522 703.563L445.166 703.545C439.333 703.546 429.247 703.312 423.777 703.963C424.5 700.26 424.054 685.473 423.96 681.399Z"/><path fill="#CBB3DB" transform="translate(-116 -151)" d="M777.42 704.033C777.389 699.379 777.072 686.088 777.798 681.984C779.192 681.222 780.839 681.494 782.505 681.538C782.655 686.61 783.23 698.869 782.535 703.411C781.32 704.269 779.013 704.051 777.42 704.033Z"/><path fill="#CBB3DB" transform="translate(-116 -151)" d="M245.604 680.85C246.83 681.47 247.21 681.34 247.577 682.248C249.38 686.706 246.457 698.862 249.625 701.828C252.789 703.008 254.43 702.272 257.654 702.972C254.313 703.196 248.984 702.981 245.502 702.947C245.934 695.81 245.145 688.138 245.604 680.85Z"/><path fill="#31355A" transform="translate(-116 -151)" d="M491.065 394.166C491.021 386.142 489.03 332.135 490.731 327.954C494.412 327.31 508.953 327.724 513.561 327.795L513.606 394.242C517.579 393.359 529.515 393.97 534.362 393.99L579.581 394.051L775.934 393.969C775.633 400.476 775.807 408.598 775.766 415.209C785.31 414.877 812.347 415.977 819.82 414.257C819.789 422.198 819.93 429.916 819.726 437.878L842.962 437.812C842.688 443.541 842.581 454.812 842.857 460.488C834.83 460.201 826.944 460.295 818.92 460.355L818.946 437.267C805.774 436.57 788.256 437.067 774.793 437.069C774.801 430.05 774.705 422.693 774.984 415.709C760.054 415.196 740.425 416.013 724.809 416.004L603.209 415.995L244.001 415.997L243.956 437.119L203.608 437.079C203.182 445.069 203.058 452.441 203.002 460.451C195.594 460.331 188.637 460.304 181.233 460.466L181.366 503.992C173.869 503.988 166.037 503.873 158.568 504.054L158.683 512.589C158.182 555.028 159.014 597.604 158.712 640.056C158.67 645.996 158.65 652.053 158.738 657.984C162.233 657.924 178.717 657.476 181.376 658.302L181.481 659.254C180.917 671.282 181.113 688.756 181.222 701.005L203.833 700.907L203.74 725.49L248.05 725.467C248.057 732.228 247.957 739.284 248.09 746.019C283.07 745.939 320.104 745.411 354.99 746.055L354.978 725.483L379.433 725.494L379.342 702.805L423.777 703.963C422.843 707.985 423.082 721.512 423.211 726.069L379.504 725.902C379.035 732.918 379.108 740.272 379.153 747.319C371.375 747.009 363.575 747.475 355.571 747.177L355.619 768.469C345.983 768.059 334.179 768.387 324.376 768.331L244.621 768.36C244.967 761.406 244.385 754.359 244.778 747.512C231.295 747.132 216.624 747.377 203.049 747.32C202.881 740.119 203.007 732.801 203.067 725.588C195.752 725.407 188.208 725.509 180.872 725.525C180.802 718.83 180.491 710.006 180.923 703.505C176.277 702.947 162.706 703.435 157.472 703.483L157.497 659.123C150.934 659.564 143.085 659.432 136.427 659.437C135.804 643.93 136.183 626.043 136.178 610.344L136.177 504.574C139.938 504.944 153.844 505.029 157.534 504.705C157.359 490.104 157.469 475.294 157.455 460.678C165.22 460.768 172.983 460.724 180.748 460.698C180.242 454.559 180.537 443.97 180.544 437.685C188.237 437.77 195.718 437.784 203.41 437.671C200.233 428.83 203.383 425.498 202.792 415.121C215.599 414.555 231.452 414.986 244.489 414.998C244.529 408.198 244.993 400.679 244.673 393.993L409.11 394.07L461.859 394.005C470.859 393.992 482.24 393.65 491.065 394.166Z"/><path fill="#5CCED7" transform="translate(-116 -151)" d="M158.683 512.589C159.159 518.025 158.816 523.857 158.878 529.333C159.202 558.069 158.361 587.102 158.996 615.81C166.493 615.737 174.526 615.522 181.962 615.879C182.44 627.219 181.78 638.836 181.713 650.199C181.699 652.663 181.63 655.893 181.376 658.302C178.717 657.476 162.233 657.924 158.738 657.984C158.65 652.053 158.67 645.996 158.712 640.056C159.014 597.604 158.182 555.028 158.683 512.589Z"/><path fill="#31355A" transform="translate(-116 -151)" d="M842.857 460.488C849.273 461.094 858.405 460.687 865.116 460.761C865.015 467.874 865.01 474.709 865.212 481.747C865.324 485.658 865.978 500.634 865.151 503.976C859.231 503.986 848.511 503.68 843.079 504.298C843.415 498.697 843.147 490.162 843.155 484.371C843.166 477.088 843.409 467.51 842.857 460.488Z"/><path fill="#5CCED7" transform="translate(-116 -151)" d="M842.479 616.465C847.218 616.416 859.75 616.04 863.833 616.751C862.733 620.094 863.339 651.8 863.383 657.889C859.731 657.865 844.835 657.394 842.707 658.707L842.077 658.556C841.425 646.128 842.233 629.245 842.479 616.465Z"/><path fill="#31355A" transform="translate(-116 -151)" d="M687.988 461.366C701.501 461.713 717.835 460.93 731.883 460.981L731.894 482.296C739.214 482.383 746.665 482.321 753.997 482.333L754.01 526.464L754.052 548.991L754.041 592.106C754.019 597.756 753.682 608.458 754.22 613.706C755.398 614.417 757.278 614.172 758.765 614.159C757.163 614.319 755.592 614.497 753.982 614.577L753.999 659.541L731.871 659.511C731.947 666.645 731.871 673.865 731.849 681.006L687.995 681.043L687.976 659.52L665.767 659.551C665.742 644.881 665.492 629.429 665.906 614.826C664.213 614.058 658.683 614.363 656.488 614.414C645.772 615.315 633.297 615.01 622.409 615.01C622.322 607.653 622.401 600.337 622.469 592.98C615.236 593.151 607.747 593.025 600.492 592.99L600.476 549.003L622.042 549.04C622.422 541.372 622.357 534.161 622.302 526.476L665.687 526.488L665.688 482.327C673.16 482.298 680.504 482.331 687.975 482.451L687.988 461.366Z"/><path fill="#31355A" transform="translate(-116 -151)" d="M754.041 592.106C754.019 597.756 753.682 608.458 754.22 613.706C755.398 614.417 757.278 614.172 758.765 614.159C757.163 614.319 755.592 614.497 753.982 614.577L753.999 659.541L731.871 659.511C731.947 666.645 731.871 673.865 731.849 681.006L687.995 681.043L687.976 659.52L665.767 659.551C665.742 644.881 665.492 629.429 665.906 614.826C671.809 615.3 681.368 614.982 687.542 614.953L687.961 614.647L687.992 592.515C702.065 592.606 717.653 592.91 731.635 592.494L731.888 592.312C738.565 592.558 747.233 592.232 754.041 592.106Z"/><path fill="#31355A" transform="translate(-116 -151)" d="M665.906 614.826C671.809 615.3 681.368 614.982 687.542 614.953C687.441 621.69 687.964 628.167 688.044 634.876C688.137 642.646 688.065 650.449 688.061 658.222C702.55 658.339 717.214 659.537 731.871 659.511C731.947 666.645 731.871 673.865 731.849 681.006L687.995 681.043L687.976 659.52L665.767 659.551C665.742 644.881 665.492 629.429 665.906 614.826Z"/><path fill="#FE8098" transform="translate(-116 -151)" d="M687.961 614.647C702.644 614.208 717.183 614.978 731.785 614.839L731.769 644.215C731.765 648.477 731.523 655.593 731.871 659.511C717.214 659.537 702.55 658.339 688.061 658.222C688.065 650.449 688.137 642.646 688.044 634.876C687.964 628.167 687.441 621.69 687.542 614.953L687.961 614.647Z"/><path fill="#90D5D4" transform="translate(-116 -151)" d="M754.041 592.106C754.019 597.756 753.682 608.458 754.22 613.706C755.398 614.417 757.278 614.172 758.765 614.159C757.163 614.319 755.592 614.497 753.982 614.577L731.842 614.617C731.895 609.155 732.251 597.531 731.635 592.494L731.888 592.312C738.565 592.558 747.233 592.232 754.041 592.106Z"/><path fill="#E3C4EA" transform="translate(-116 -151)" d="M688.01 548.738C702.582 549.01 717.301 548.757 731.923 548.944L754.052 548.991L754.041 592.106C747.233 592.232 738.565 592.558 731.888 592.312L731.635 592.494C717.653 592.91 702.065 592.606 687.992 592.515L688.01 548.738Z"/><path fill="#31355A" transform="translate(-116 -151)" d="M731.923 548.944L754.052 548.991L754.041 592.106C747.233 592.232 738.565 592.558 731.888 592.312C731.535 578.396 731.793 562.944 731.923 548.944Z"/><path fill="#FE8098" transform="translate(-116 -151)" d="M622.042 549.04L665.933 548.939C665.928 563.386 665.751 578.256 666.019 592.668C651.503 593.126 636.919 592.55 622.469 592.98C615.236 593.151 607.747 593.025 600.492 592.99L600.476 549.003L622.042 549.04Z"/><path fill="#31355A" transform="translate(-116 -151)" d="M600.476 549.003L622.042 549.04C621.978 564.141 622.981 577.552 622.469 592.98C615.236 593.151 607.747 593.025 600.492 592.99L600.476 549.003Z"/><path fill="#FE8098" transform="translate(-116 -151)" d="M688.072 484.071C702.703 483.985 717.419 483.059 731.72 483.01C731.78 495.864 731.17 514.245 731.867 526.391L731.649 526.547C728.706 526.536 725.609 526.401 722.663 526.242C711.089 525.617 699.612 526.306 688.043 526.438L688.072 484.071Z"/><path fill="#90D5D4" transform="translate(-116 -151)" d="M731.867 526.391C738.633 526.24 747.276 525.912 754.01 526.464L754.052 548.991L731.923 548.944C731.96 543.524 732.289 531.534 731.649 526.547L731.867 526.391Z"/><path fill="#90D5D4" transform="translate(-116 -151)" d="M667.592 592.535L687.992 592.515L687.961 614.647L687.542 614.953C681.368 614.982 671.809 615.3 665.906 614.826C664.213 614.058 658.683 614.363 656.488 614.414C659.558 613.926 664.365 614.064 667.619 614.067L667.592 592.535Z"/><path fill="#90D5D4" transform="translate(-116 -151)" d="M666.477 526.421C673.562 526.129 680.967 526.008 688.043 526.438L687.969 547.042L666.501 546.993L666.477 526.421Z"/><path fill="#31355A" transform="translate(-116 -151)" d="M332.805 482.216C334.244 482.112 334.181 482.089 335.571 482.446C336.436 484.416 336.005 521.318 335.993 526.498L379.455 526.527C377.526 549.064 378.093 572.403 378.127 595.075C371.542 595.095 364.599 594.347 357.992 594.154C350.695 593.941 343.304 594.006 335.999 594.025L336.029 637.545L271.875 637.512C270.057 637.567 270.58 637.829 269.189 637.088C268.687 633.121 268.93 625.491 268.935 621.198L268.972 592.545L224.442 592.659L224.434 526.493L269.001 526.54L268.985 482.426C287.667 483.123 314.303 483.268 332.805 482.216Z"/><path fill="#5CCED7" transform="translate(-116 -151)" d="M290.372 504.07L313.226 504.04C313.844 517.894 313.395 534.894 313.347 549.011L356.507 548.986C356.515 556.75 356.432 564.69 356.545 572.437C342.417 572.412 327.363 572.625 313.314 572.173C313.327 576.21 313.505 581.466 313.32 585.402L313.382 616.18C305.789 616.013 297.961 616.131 290.348 616.157L290.413 572.021C275.43 572.014 261.458 572.032 246.517 571.414L246.524 548.882C251.665 548.885 287.745 549.918 290.058 548.722L290.261 547.109C290.503 532.829 290.386 518.367 290.372 504.07Z"/><path fill="#90D5D4" transform="translate(-116 -151)" d="M290.372 504.07L313.226 504.04C312.474 517.385 313.06 535.244 313.022 549.052C309.135 549.12 293.025 549.779 290.67 548.611L290.261 547.109C290.503 532.829 290.386 518.367 290.372 504.07Z"/><path fill="#90D5D4" transform="translate(-116 -151)" d="M290.413 572.021C297.828 572.036 305.626 571.923 313.008 572.083C313.001 574.086 312.788 584.145 313.32 585.402L313.382 616.18C305.789 616.013 297.961 616.131 290.348 616.157L290.413 572.021Z"/><path fill="#FE8098" transform="translate(-116 -151)" d="M754.01 526.464L799.493 526.498L799.501 548.997L820.04 549.01L820.055 592.58C813.905 592.604 806.436 592.451 800.392 592.771L799.569 593.009L799.502 614.084C786.203 614.066 771.991 613.809 758.765 614.159C757.278 614.172 755.398 614.417 754.22 613.706C753.682 608.458 754.019 597.756 754.041 592.106L754.052 548.991L754.01 526.464Z"/><path fill="#31355A" transform="translate(-116 -151)" d="M754.01 526.464L799.493 526.498L799.501 548.997C784.427 548.791 769.143 548.949 754.052 548.991L754.01 526.464Z"/><path fill="#31355A" transform="translate(-116 -151)" d="M754.041 592.106C771.105 591.546 783.276 592.706 799.569 593.009L799.502 614.084C786.203 614.066 771.991 613.809 758.765 614.159C757.278 614.172 755.398 614.417 754.22 613.706C753.682 608.458 754.019 597.756 754.041 592.106Z"/><path fill="#31355A" transform="translate(-116 -151)" d="M799.501 548.997L820.04 549.01L820.055 592.58C813.905 592.604 806.436 592.451 800.392 592.771L799.908 592.478C799.085 590.48 799.494 554.18 799.501 548.997Z"/><path fill="#31355A" transform="translate(-116 -151)" d="M423.035 570.952L491.98 570.957L491.99 592.553L423.049 592.583L423.035 570.952Z"/><path fill="#31355A" transform="translate(-116 -151)" d="M514.336 570.909L558.025 570.962C558.046 578.138 558.505 585.18 558.486 592.515C544.322 592.907 528.581 592.577 514.29 592.59L514.336 570.909Z"/><path fill="#31355A" transform="translate(-116 -151)" d="M603.066 171.07L625.43 170.988C625.042 177.518 625.405 188.199 625.413 194.998L625.475 244.025L603.429 243.993C603.116 256.954 603.299 270.309 603.355 283.294C596.39 283.019 588.46 283.148 581.42 283.1C582.783 288.108 580.283 296.66 581.477 304.748L558.612 304.992C558.699 311.992 558.652 318.846 558.569 325.847C552.409 325.436 542.795 325.716 536.375 325.701C530.895 325.684 519.384 325.335 514.46 326.532C514.368 318.794 514.412 311.127 514.468 303.388C528.822 303.165 544.011 303.477 558.432 303.531L558.513 282.497C566.069 282.527 573.474 282.572 581.025 282.81C580.577 269.549 580.417 256.312 580.785 243.045C589.394 243.081 594.495 243.066 603.062 242.313C602.943 219.743 602.306 193.464 603.066 171.07Z"/></g></svg>