<?xml version="1.0" encoding="utf-8" ?><svg xmlns="http://www.w3.org/2000/svg" xmlns:xlink="http://www.w3.org/1999/xlink" width="766" height="848" viewBox="0 0 766 848"><clipPath id="cl_4"><rect width="766" height="848"/></clipPath><g clip-path="url(#cl_4)"><path fill="#DAC1F3" transform="translate(-128 -111)" d="M430.561 464.876L593.499 464.926L593.468 544.142C606.84 543.422 623.843 543.83 637.439 543.834L714.015 543.887L740.753 543.91C746.609 543.92 752.718 544.169 758.509 543.457L758.766 568.12C766.746 567.897 774.254 568.188 782.074 568.085C781.798 575.584 781.661 584.578 782.321 592.025L806.167 591.695C805.852 607.163 806.065 623.122 806.058 638.638C813.858 638.948 821.682 638.93 829.489 638.962L829.462 669.824C829.461 673.77 829.255 682.771 829.719 686.277C836.127 685.59 846.077 686.182 852.882 685.971C852.936 690.427 853.221 699.085 852.876 703.346C852.898 710.688 852.544 726.52 853.276 733.008C860.789 732.944 868.407 732.809 875.91 732.823C875.259 749.918 875.846 770.247 875.848 787.559L875.826 891.875L875.901 899.237C868.419 899.032 860.821 899.133 853.326 899.168C852.561 901.976 852.834 919.806 852.886 923.544C845.015 922.992 837.244 923.239 829.365 923.479C829.353 927.919 829.678 943.01 829.109 946.583C827.208 947.058 827.114 946.989 825.228 946.934C818.516 947.802 809.935 947.566 803.035 947.586L766.008 947.514L660.575 947.484L291.913 947.483L223.093 947.619C218.576 947.612 198.76 946.662 196.088 947.555C195.14 947.53 195.459 947.551 194.538 947.178C193.46 944.533 194.034 927.519 194.089 923.455C194.771 916.907 194.308 906.151 194.522 898.966C187.41 898.637 177.916 898.939 170.618 898.949C171.272 869.319 171.123 834.666 170.633 805.007L194.052 805.13L194.311 805.095C194.295 799.573 194.003 786.487 194.76 781.472C193.038 779.69 174.26 780.593 170.765 780.797L170.822 734.106C178.676 733.946 186.813 734.042 194.689 734.032C193.12 721.73 195.91 698.294 194.069 686.04C193.974 671.464 193.475 653.238 194.178 638.98C198.23 638.406 212.739 638.618 217.409 638.638C216.662 624.546 217.131 606.396 217.048 591.99C223.841 591.865 234.659 591.416 241.068 591.984L240.939 568.06C246.596 567.767 257.678 567.541 263.126 568.297C264.414 567.991 263.866 568.294 264.789 567.421C265.226 564.617 264.997 558.848 265.042 555.642C264.854 552.07 265.009 547.671 265.046 544.028L371.793 544.156C389.467 544.153 413.946 543.224 430.983 544.154C430.285 541.832 430.698 519.136 430.706 515.217L430.561 464.876Z"/><path fill="#C3A5E3" transform="translate(-128 -111)" d="M852.882 685.971C852.936 690.427 853.221 699.085 852.876 703.346C852.898 710.688 852.544 726.52 853.276 733.008C860.789 732.944 868.407 732.809 875.91 732.823C875.259 749.918 875.846 770.247 875.848 787.559L875.826 891.875L875.901 899.237C868.419 899.032 860.821 899.133 853.326 899.168C852.561 901.976 852.834 919.806 852.886 923.544C845.015 922.992 837.244 923.239 829.365 923.479C829.353 927.919 829.678 943.01 829.109 946.583C827.208 947.058 827.114 946.989 825.228 946.934C818.516 947.802 809.935 947.566 803.035 947.586L766.008 947.514L660.575 947.484L291.913 947.483L223.093 947.619C218.576 947.612 198.76 946.662 196.088 947.555C195.14 947.53 195.459 947.551 194.538 947.178C193.46 944.533 194.034 927.519 194.089 923.455C194.771 916.907 194.308 906.151 194.522 898.966C187.41 898.637 177.916 898.939 170.618 898.949C171.272 869.319 171.123 834.666 170.633 805.007L194.052 805.13L194.311 805.095L829.407 805.022C829.379 801.886 829.315 799.527 829.04 796.403C829.283 791.658 828.999 786.052 829.203 780.987C828.955 766.162 828.714 748.789 829.249 734.072C828.006 729.151 829.112 699.462 829.153 693.057L829.484 693.142C829.415 691.083 829.483 688.761 829.495 686.679L829.719 686.277C836.127 685.59 846.077 686.182 852.882 685.971Z"/><path fill="#684D98" transform="translate(-128 -111)" d="M783.649 923.458L829.365 923.479C829.353 927.919 829.678 943.01 829.109 946.583C827.208 947.058 827.114 946.989 825.228 946.934C818.516 947.802 809.935 947.566 803.035 947.586L766.008 947.514L660.575 947.484L291.913 947.483L223.093 947.619C218.576 947.612 198.76 946.662 196.088 947.555C195.14 947.53 195.459 947.551 194.538 947.178C193.46 944.533 194.034 927.519 194.089 923.455L198.741 923.446L783.649 923.458Z"/><path fill="#5F4A98" transform="translate(-128 -111)" d="M783.649 923.458L829.365 923.479C829.353 927.919 829.678 943.01 829.109 946.583C827.208 947.058 827.114 946.989 825.228 946.934L828.172 946.225C828.629 940.597 828.286 930.686 828.255 924.745L409.917 924.726L267.043 925.108C244.881 925.163 217.532 924.202 195.795 925.164C196.554 933.813 196.151 939.399 196.088 947.555C195.14 947.53 195.459 947.551 194.538 947.178C193.46 944.533 194.034 927.519 194.089 923.455L198.741 923.446L783.649 923.458Z"/><path fill="#684D98" transform="translate(-128 -111)" d="M194.311 805.095L829.407 805.022L829.416 807.229C829.444 814.266 829.404 821.416 829.515 828.442L823.303 828.538L805.791 828.391C798.715 828.59 789.896 828.602 782.898 828.417C762.509 829.035 739.334 828.523 718.716 828.522L596.268 828.51L194.107 828.546L194.052 805.13L194.311 805.095Z"/><path fill="#342B94" transform="translate(-128 -111)" d="M194.311 805.095L829.407 805.022L829.416 807.229C828.774 809.932 828.709 811.3 828.527 814.014L828.422 806.231C822.519 806.799 811.524 806.503 805.173 806.505L763.515 806.509L627.5 806.456L195.52 806.196C195.45 813.226 195.291 820.282 195.658 827.301C208.021 827.883 221.551 827.543 233.999 827.525L296 827.522L583.035 827.615L707.04 827.486C714.229 827.48 780.173 826.785 782.898 828.417C762.509 829.035 739.334 828.523 718.716 828.522L596.268 828.51L194.107 828.546L194.052 805.13L194.311 805.095Z"/><path fill="#5F4A98" transform="translate(-128 -111)" d="M828.527 814.014C828.709 811.3 828.774 809.932 829.416 807.229C829.444 814.266 829.404 821.416 829.515 828.442L823.303 828.538L805.791 828.391C803.138 827.677 796.917 827.774 793.899 827.717L794.091 827.782C802.785 826.368 818.637 827.18 828.253 826.748C828.231 823.191 828.013 817.341 828.527 814.014Z"/><path fill="#5F4A98" transform="translate(-128 -111)" d="M852.882 685.971C852.936 690.427 853.221 699.085 852.876 703.346C852.898 710.688 852.544 726.52 853.276 733.008C860.789 732.944 868.407 732.809 875.91 732.823C875.259 749.918 875.846 770.247 875.848 787.559L875.826 891.875L875.901 899.237C868.419 899.032 860.821 899.133 853.326 899.168C852.561 901.976 852.834 919.806 852.886 923.544C845.015 922.992 837.244 923.239 829.365 923.479L829.305 898.889C837.079 898.871 845.207 898.736 852.944 899.049C853.393 877.202 852.806 854.994 853.042 833.137C853.107 827.067 852.626 809.939 853.45 804.88C845.567 805.191 837.325 805.049 829.407 805.022C829.379 801.886 829.315 799.527 829.04 796.403C829.283 791.658 828.999 786.052 829.203 780.987C828.955 766.162 828.714 748.789 829.249 734.072C828.006 729.151 829.112 699.462 829.153 693.057L829.484 693.142C829.415 691.083 829.483 688.761 829.495 686.679L829.719 686.277C836.127 685.59 846.077 686.182 852.882 685.971Z"/><path fill="#C3A5E3" transform="translate(-128 -111)" d="M829.249 734.072L852.949 734.024C853.198 749.581 853.057 765.381 853.044 780.958L829.203 780.987C828.955 766.162 828.714 748.789 829.249 734.072Z"/><path fill="#342B94" transform="translate(-128 -111)" d="M852.882 685.971C852.936 690.427 853.221 699.085 852.876 703.346C851.801 702.314 852.215 690.249 852.212 687.901C844.984 688.08 837.806 687.937 830.578 687.837L830.478 718.856C830.454 721.707 830.566 730.045 830.035 732.426C829.407 729.491 829.757 724.197 829.681 720.984C829.471 712.191 830.085 702.446 829.527 693.751L829.484 693.142C829.415 691.083 829.483 688.761 829.495 686.679L829.719 686.277C836.127 685.59 846.077 686.182 852.882 685.971Z"/><path fill="#DAC1F3" transform="translate(-128 -111)" d="M194.522 898.966C196.747 902.595 196.445 918.737 195.854 922.933L198.741 923.446L194.089 923.455C194.771 916.907 194.308 906.151 194.522 898.966Z"/><path fill="#5F4A98" transform="translate(-128 -111)" d="M430.561 464.876L593.499 464.926L593.468 544.142C606.84 543.422 623.843 543.83 637.439 543.834L714.015 543.887L740.753 543.91C746.609 543.92 752.718 544.169 758.509 543.457L758.766 568.12C766.746 567.897 774.254 568.188 782.074 568.085C781.798 575.584 781.661 584.578 782.321 592.025L806.167 591.695C805.852 607.163 806.065 623.122 806.058 638.638C813.858 638.948 821.682 638.93 829.489 638.962L829.462 669.824C829.461 673.77 829.255 682.771 829.719 686.277L829.495 686.679C826.81 686.075 808.968 686.123 806.135 686.554C804.994 682.506 805.894 649.998 805.888 643.393C805.93 641.785 806.094 640.886 805.461 639.401C803.343 638.697 785.622 639.04 781.971 639.066L782.005 592.519C774.23 592.307 766.294 592.436 758.504 592.482C758.498 584.998 758.357 576.971 758.688 569.539C756.261 568.063 742.995 568.588 739.046 568.588L706.683 568.59C669.201 568.553 631 568.869 593.573 568.376C593.606 573.936 593.439 580.946 593.687 586.38C593.627 588.219 593.366 590.09 593.87 591.771C600.878 592.159 609.471 591.936 616.604 591.923C624.77 591.907 633.921 592.067 641.996 591.655C642.01 598.913 642.271 607.899 641.931 615.017L593.735 615.035C593.884 631.007 593.966 647.033 593.794 663.005C588.371 662.995 580.5 662.776 575.277 663.146C573.824 663.331 572.489 663.54 571.023 663.601L549.643 663.59L524.665 663.55L475.175 663.542C470.295 663.58 458.203 663.299 453.919 663.753L452.608 663.261C447.002 662.682 436.351 663.023 430.349 663.064C430.567 647.177 430.422 630.955 430.446 615.041C414.354 615.069 398.085 615.216 382.009 615.015L381.978 591.747C397.322 592.303 414.736 591.913 430.233 591.911C430.174 588.709 430.52 569.848 429.908 568.397L428.114 568.483C414.3 568.483 268.732 567.761 265.467 569.033C265.458 572.415 265.687 589.722 264.955 591.751C264.199 585.455 265.655 574.793 264.558 568.827L263.126 568.297C264.414 567.991 263.866 568.294 264.789 567.421C265.226 564.617 264.997 558.848 265.042 555.642C264.854 552.07 265.009 547.671 265.046 544.028L371.793 544.156C389.467 544.153 413.946 543.224 430.983 544.154C430.285 541.832 430.698 519.136 430.706 515.217L430.561 464.876Z"/><path fill="#C3E9DD" transform="translate(-128 -111)" d="M454.071 510.936C457.356 512.694 474.098 512.015 479.194 512.003L524.192 511.938L524.263 623.426L524.216 648.25C524.205 651.896 523.991 660.411 524.665 663.55L475.175 663.542C470.295 663.58 458.203 663.299 453.919 663.753L452.608 663.261L453.435 663.022C454.62 661.258 454.096 642.068 454.071 638.53L454.071 510.936Z"/><path fill="#8CC3C8" transform="translate(-128 -111)" d="M454.071 638.53C461.694 638.275 469.376 638.395 477.008 638.453C477.005 643.468 478.127 660.836 475.175 663.542C470.295 663.58 458.203 663.299 453.919 663.753L452.608 663.261L453.435 663.022C454.62 661.258 454.096 642.068 454.071 638.53Z"/><path fill="#A8D5D2" transform="translate(-128 -111)" d="M453.989 491.245C454.012 490.417 454.106 489.559 454.178 488.733C454.424 488.534 454.671 488.336 454.918 488.137C480.075 488.058 525.055 488.091 548.128 488.172L548.566 488.147L549.981 488.85C549.031 489.798 548.023 490.697 548.011 492.142C547.949 498.98 547.975 505.82 547.983 512.659L548.002 557.574L548.004 625.595C548.006 637.178 547.9 648.938 548.152 660.525C548.189 662.185 548.494 662.507 549.643 663.59L524.665 663.55C523.991 660.411 524.205 651.896 524.216 648.25L524.263 623.426L524.192 511.938L479.194 512.003C474.098 512.015 457.356 512.694 454.071 510.936L453.989 491.245Z"/><path fill="#8CC3C8" transform="translate(-128 -111)" d="M453.989 491.245C454.012 490.417 454.106 489.559 454.178 488.733C454.424 488.534 454.671 488.336 454.918 488.137C480.075 488.058 525.055 488.091 548.128 488.172L547.633 489.649C542.547 488.634 526.224 489.195 520.557 489.265L520.52 489.489C524.618 489.549 544.581 488.813 546.251 490.154C539.618 493.108 459.048 488.291 453.989 491.245Z"/><path fill="#8CC3C8" transform="translate(-128 -111)" d="M548.566 488.147L570.911 488.067L570.91 603.505L570.916 641.717C570.917 645.013 570.506 661.351 571.556 662.904C572.877 663.284 573.907 663.169 575.277 663.146C573.824 663.331 572.489 663.54 571.023 663.601L549.643 663.59C548.494 662.507 548.189 662.185 548.152 660.525C547.9 648.938 548.006 637.178 548.004 625.595L548.002 557.574L547.983 512.659C547.975 505.82 547.949 498.98 548.011 492.142C548.023 490.697 549.031 489.798 549.981 488.85L548.566 488.147Z"/><path fill="#342B94" transform="translate(-128 -111)" d="M265.046 544.028L371.793 544.156C389.467 544.153 413.946 543.224 430.983 544.154C429.661 545.439 429.547 545.759 427.284 545.851C421.021 546.105 414.53 546.022 408.263 546.023L371.834 546.02C336.879 546.01 300.962 546.395 266.078 545.939C266.028 548.821 266.358 553.302 265.042 555.642C264.854 552.07 265.009 547.671 265.046 544.028Z"/><path fill="#A8D5D2" transform="translate(-128 -111)" d="M382.009 615.015C398.085 615.216 414.354 615.069 430.446 615.041C430.422 630.955 430.567 647.177 430.349 663.064C436.351 663.023 447.002 662.682 452.608 663.261L453.919 663.753C458.203 663.299 470.295 663.58 475.175 663.542L524.665 663.55L549.643 663.59L571.023 663.601C572.489 663.54 573.824 663.331 575.277 663.146C580.5 662.776 588.371 662.995 593.794 663.005C593.966 647.033 593.884 631.007 593.735 615.035L641.931 615.017C641.467 618.268 641.038 637.16 642.54 639.388C647.877 638.73 659.588 639.051 665.536 639.021C665.513 645.969 665.32 653.794 665.575 660.673C665.547 663.863 665.516 666.988 665.4 670.178L665.452 686.027C658.779 686.207 652.638 686.34 645.971 686.184C643.715 686.158 643.481 685.773 641.89 686.754C641.4 688.339 641.526 689.287 641.555 690.928C642.182 697.251 641.53 703.839 641.978 710.005L641.999 734.007C626.829 734.018 608.64 734.54 593.738 734.014C576.787 733.417 556.073 733.964 538.868 733.963L430.902 733.96C430.958 726.164 431.165 717.783 430.762 710.05C414.884 709.685 397.979 709.991 382.025 710.01L358.386 710.068L358.406 686.312L358.188 686.114C359.611 680.815 358.6 646.786 358.573 639.067L382.268 639.042L382.009 615.015Z"/><path fill="#5F4A98" transform="translate(-128 -111)" d="M524.665 663.55L549.643 663.59L571.023 663.601L571.056 687.029L453.992 687.044L453.919 663.753C458.203 663.299 470.295 663.58 475.175 663.542L524.665 663.55Z"/><path fill="#5F4A98" transform="translate(-128 -111)" d="M629.615 709.925L641.978 710.005L641.999 734.007C626.829 734.018 608.64 734.54 593.738 734.014L593.444 733.151C593.461 725.67 593.634 717.448 593.264 710.036C605.064 709.758 617.7 710.012 629.615 709.925Z"/><path fill="#5F4A98" transform="translate(-128 -111)" d="M358.406 686.312L382.17 686.099C382.195 694.007 382.314 702.127 382.025 710.01L358.386 710.068L358.406 686.312Z"/><path fill="#8CC3C8" transform="translate(-128 -111)" d="M593.444 733.151C593.1 732.953 592.082 732.359 592.037 732.048C591.323 727.136 591.97 715.18 592.381 710.707L593.264 710.036C593.634 717.448 593.461 725.67 593.444 733.151Z"/><path fill="#8CC3C8" transform="translate(-128 -111)" d="M642.105 641.358C642.977 645.672 642.689 676.367 642.36 681.784L641.979 681.576C641.28 671.788 641.971 651.84 642.105 641.358Z"/><path fill="#C3A5E3" transform="translate(-128 -111)" d="M194.76 781.472C197.689 780.581 216.993 780.96 221.639 780.96L285.129 780.963L583.774 780.981L747.232 780.98L799.224 780.964C807.235 780.96 819.659 780.575 827.385 781.188C828.229 781.878 828.452 781.753 828.412 783.225C828.237 789.674 828.185 796.015 828.283 802.459L828.536 802.619L828.368 803.076C829.111 800.969 828.785 798.604 829.04 796.403C829.315 799.527 829.379 801.886 829.407 805.022L194.311 805.095C194.295 799.573 194.003 786.487 194.76 781.472Z"/><path fill="#5F4A98" transform="translate(-128 -111)" d="M382.025 710.01C397.979 709.991 414.884 709.685 430.762 710.05C431.165 717.783 430.958 726.164 430.902 733.96L538.868 733.963C556.073 733.964 576.787 733.417 593.738 734.014C593.559 741.796 593.702 750.134 593.693 757.961C575.421 758.38 555.743 758.023 537.382 758.027L430.097 758.054C430.099 750 430.204 742.124 430.388 734.072C414.942 733.621 397.587 734.022 381.993 734.031L382.025 710.01Z"/><path fill="#5F4A98" transform="translate(-128 -111)" d="M641.931 615.017C649.832 614.986 658.09 614.836 665.961 615.004C665.959 622.843 665.827 631.066 665.983 638.872L689.178 638.879C688.906 654.412 688.971 670.742 689.109 686.317C681.834 686.118 673.362 686 666.095 686.543C665.963 690.235 666.507 708.39 665.397 709.968L664.4 710.328C660.177 709.712 646.835 710.002 641.978 710.005C641.53 703.839 642.182 697.251 641.555 690.928C641.526 689.287 641.4 688.339 641.89 686.754C643.481 685.773 643.715 686.158 645.971 686.184C652.638 686.34 658.779 686.207 665.452 686.027L665.4 670.178C665.516 666.988 665.547 663.863 665.575 660.673C665.32 653.794 665.513 645.969 665.536 639.021C659.588 639.051 647.877 638.73 642.54 639.388C641.038 637.16 641.467 618.268 641.931 615.017Z"/><path fill="#5F4A98" transform="translate(-128 -111)" d="M217.048 591.99C223.841 591.865 234.659 591.416 241.068 591.984L241.122 639.03C233.448 639.047 225.681 639.129 218.016 639.057L218.054 686.434C215.898 686.366 204.199 686.293 202.637 686.058L196.219 686.401L194.069 686.04C193.974 671.464 193.475 653.238 194.178 638.98C198.23 638.406 212.739 638.618 217.409 638.638C216.662 624.546 217.131 606.396 217.048 591.99Z"/><path fill="#342B94" transform="translate(-128 -111)" d="M194.178 638.98C194.978 639.849 195.492 640.119 195.525 641.419C195.901 656.119 195.746 670.965 195.994 685.674C198.712 685.606 199.953 685.455 202.637 686.058L196.219 686.401L194.069 686.04C193.974 671.464 193.475 653.238 194.178 638.98Z"/><path fill="#5F4A98" transform="translate(-128 -111)" d="M358.448 615.001L382.009 615.015L382.268 639.042L358.573 639.067C358.6 646.786 359.611 680.815 358.188 686.114C351.977 686.535 341.866 686.252 335.355 686.282L335.358 638.737L358.387 638.853C358.499 630.967 358.429 622.903 358.448 615.001Z"/><path fill="#C3A5E3" transform="translate(-128 -111)" d="M806.135 686.554C808.968 686.123 826.81 686.075 829.495 686.679C829.483 688.761 829.415 691.083 829.484 693.142L829.153 693.057L828.626 690.968C827.355 693.155 828.381 728.285 828.275 734.03C823.285 734.035 816.016 733.827 811.208 734.109C808.92 734.155 808.012 734.296 805.845 733.722C804.92 731.966 805.402 692.867 805.491 688.011C806.097 687.174 806.009 687.28 806.908 686.882L806.135 686.554Z"/><path fill="#5F4A98" transform="translate(-128 -111)" d="M240.939 568.06C246.596 567.767 257.678 567.541 263.126 568.297L264.558 568.827C265.655 574.793 264.199 585.455 264.955 591.751L265.133 592.629C260.336 592.209 245.624 592.905 242.438 592.075L241.068 591.984L240.939 568.06Z"/><path fill="#342B94" transform="translate(-128 -111)" d="M240.939 568.06C246.596 567.767 257.678 567.541 263.126 568.297L264.558 568.827C265.655 574.793 264.199 585.455 264.955 591.751C263.965 587.714 264.432 574.312 264.663 569.84C257.406 570.054 250.081 569.985 242.815 569.972C242.86 573.257 243.212 589.568 242.438 592.075L241.068 591.984L240.939 568.06Z"/><path fill="#DECEED" transform="translate(-128 -111)" d="M811.208 734.109C809.371 735.327 807.121 735.855 805.084 734.841C804.761 734.418 804.33 734.058 804.114 733.572C803.833 732.939 803.541 650.865 804.319 644.378C804.678 651.417 803.518 680.031 804.731 684.761C804.773 681.477 804.822 643.108 805.02 642.527L805.888 643.393C805.894 649.998 804.994 682.506 806.135 686.554L806.908 686.882C806.009 687.28 806.097 687.174 805.491 688.011C805.402 692.867 804.92 731.966 805.845 733.722C808.012 734.296 808.92 734.155 811.208 734.109Z"/><path fill="#DECEED" transform="translate(-128 -111)" d="M194.069 686.04L196.219 686.401L196.838 686.499C197.576 686.612 198.152 686.674 198.888 686.741C197.407 688.422 197.151 686.002 196.821 687.406C194.609 696.828 197.666 726.733 194.689 734.032C193.12 721.73 195.91 698.294 194.069 686.04Z"/><path fill="#DECEED" transform="translate(-128 -111)" d="M265.467 569.033L266.929 570.536C267.004 574.63 267.715 590.175 266.233 592.559L265.133 592.629L264.955 591.751C265.687 589.722 265.458 572.415 265.467 569.033Z"/><path fill="#FEC0CA" transform="translate(-128 -111)" d="M430.066 129.632C444.673 129.179 459.435 129.497 474.054 129.542L516.767 129.366C541.549 129.366 569.131 128.615 593.792 129.593C593.091 136.285 593.738 146.293 593.582 153.306C609.757 152.8 626.096 153.532 642.094 153.024C641.776 160.973 641.928 169.129 641.983 177.1L665.871 177.054C665.868 180.648 665.508 199.675 666.389 201.807C674.029 201.64 681.697 201.9 689.329 201.794C688.86 216.458 689.1 230.515 688.866 245.15C688.873 246.646 688.639 248.111 689.479 249.224C695.771 249.887 704.158 248.215 710.285 249.637L711.249 249.544C711.942 250.667 712.09 313.282 711.726 319.097C712.033 335.637 711.902 352.424 711.903 368.985L689.039 369.064C688.78 383.111 689.601 400.439 688.796 413.811L688.964 415.513L688.409 416.102C683.567 416.118 669.835 416.507 665.879 416.123C665.027 419.655 665.587 436.286 665.503 440.855C657.925 440.773 649.324 440.59 641.797 440.856C641.736 448.719 641.843 456.441 641.976 464.304C626.366 464.262 609.345 464.098 593.801 464.44L593.499 464.926L430.561 464.876L430.384 464.581C414.236 464.348 397.769 464.473 381.606 464.461C382.382 457.989 382.119 447.088 382.094 440.468L358.234 440.46C357.694 434.563 358.286 423.003 358.23 416.281C353.778 415.693 340.57 415.999 336.024 416.23C336.057 402.019 336.618 382.829 335.549 368.946C329.157 369.41 317.731 368.899 310.624 369.101C311.179 364.539 310.992 356.796 310.992 352L310.986 322.942C310.996 300.744 311.834 271.783 310.703 249.973C318.595 249.892 327.842 249.588 335.607 250.047C336.135 246.117 336.026 237.018 336.042 232.86L335.986 201.55L358.319 201.49C357.761 193.723 358.306 185.018 358.335 177.093L382.572 176.986C381.631 172.965 381.986 158.13 382.017 153.509C396.119 153.417 415.558 152.562 429.151 153.468L429.954 152.986C430.337 147.525 430.291 135.182 430.066 129.632Z"/><path fill="#FC9DB6" transform="translate(-128 -111)" d="M666.389 201.807C674.029 201.64 681.697 201.9 689.329 201.794C688.86 216.458 689.1 230.515 688.866 245.15C688.873 246.646 688.639 248.111 689.479 249.224C695.771 249.887 704.158 248.215 710.285 249.637L711.249 249.544C711.942 250.667 712.09 313.282 711.726 319.097C712.033 335.637 711.902 352.424 711.903 368.985L689.039 369.064C688.78 383.111 689.601 400.439 688.796 413.811L688.964 415.513L688.409 416.102C683.567 416.118 669.835 416.507 665.879 416.123C665.027 419.655 665.587 436.286 665.503 440.855C657.925 440.773 649.324 440.59 641.797 440.856C641.736 448.719 641.843 456.441 641.976 464.304C626.366 464.262 609.345 464.098 593.801 464.44L593.499 464.926L430.561 464.876L430.384 464.581C414.236 464.348 397.769 464.473 381.606 464.461C382.382 457.989 382.119 447.088 382.094 440.468L358.234 440.46C357.694 434.563 358.286 423.003 358.23 416.281L358.418 416.042C364.671 416.024 372.875 416.235 379.004 415.931C380.546 416.053 381.319 415.892 382.529 416.625C387.053 415.002 486.338 416.076 500.864 416.08L500.86 391.504L548.017 391.558L547.943 368.924C555.692 368.964 563.231 368.984 570.976 368.776L570.969 344.845C578.408 344.545 586.108 344.57 593.55 344.708L593.463 320.982L618.037 321.017L618.036 201.954L641.772 202.036C648.936 202.104 658.897 201.694 665.584 202.085L666.389 201.807Z"/><path fill="#F488A5" transform="translate(-128 -111)" d="M688.372 250.015C688.31 247.96 687.91 246.566 688.866 245.15C688.873 246.646 688.639 248.111 689.479 249.224C695.771 249.887 704.158 248.215 710.285 249.637L711.249 249.544C711.942 250.667 712.09 313.282 711.726 319.097C712.033 335.637 711.902 352.424 711.903 368.985L689.039 369.064C688.78 383.111 689.601 400.439 688.796 413.811L688.964 415.513L688.409 416.102C683.567 416.118 669.835 416.507 665.879 416.123C665.027 419.655 665.587 436.286 665.503 440.855C657.925 440.773 649.324 440.59 641.797 440.856C641.736 448.719 641.843 456.441 641.976 464.304C626.366 464.262 609.345 464.098 593.801 464.44L593.499 464.926L430.561 464.876L430.384 464.581C430.231 456.921 430.423 448.61 430.448 440.898C435.575 440.459 443.616 440.75 449.023 440.783L476.389 440.745C514.801 440.677 555.246 441.478 593.487 440.471L593.237 439.536C593.864 435.465 593.514 420.941 593.48 415.996C601.464 416.023 610.172 416.226 618.077 415.696C618.161 407.562 618.255 399.591 618.036 391.452C625.618 391.601 633.412 391.506 641.011 391.498L641.067 369.002C649.173 368.95 657.349 368.841 665.448 368.95C664.414 337.528 665.496 305.825 665.043 274.37C664.941 267.293 664.746 259.054 665.434 252.076C669.091 251.883 685.229 251.609 688.162 252.339L688.709 251.485L688.372 250.015Z"/><path fill="#5F4A98" transform="translate(-128 -111)" d="M688.372 250.015C688.31 247.96 687.91 246.566 688.866 245.15C688.873 246.646 688.639 248.111 689.479 249.224C695.771 249.887 704.158 248.215 710.285 249.637L711.249 249.544C711.942 250.667 712.09 313.282 711.726 319.097C712.033 335.637 711.902 352.424 711.903 368.985L689.039 369.064C688.78 383.111 689.601 400.439 688.796 413.811C687.928 411.188 687.967 372.867 688.573 368.804C689.174 366.48 688.937 355.281 688.937 352.36L688.91 314.399L688.944 274.1C688.951 267.663 689.246 257.675 688.709 251.485L688.372 250.015Z"/><path fill="#342B94" transform="translate(-128 -111)" d="M710.285 249.637L711.249 249.544C711.942 250.667 712.09 313.282 711.726 319.097C710.204 314.089 711.248 260.936 711.132 252.041C705.275 252.172 699.928 251.883 694.106 251.324L693.456 250.843L692.879 251.038C695.971 249.501 705.902 250.68 710.285 249.637Z"/><path fill="#5F4A98" transform="translate(-128 -111)" d="M641.606 415.965L665.592 416.017L665.879 416.123C665.027 419.655 665.587 436.286 665.503 440.855C657.925 440.773 649.324 440.59 641.797 440.856C641.736 448.719 641.843 456.441 641.976 464.304C626.366 464.262 609.345 464.098 593.801 464.44C593.456 461.059 593.552 443.726 593.872 440.581C607.087 440.611 628.346 441.319 640.921 440.395C642.01 439.359 641.664 439.133 641.872 437.174C641.489 435.152 641.62 419.126 641.606 415.965Z"/><path fill="#684D98" transform="translate(-128 -111)" d="M665.545 368.774C673.259 368.72 680.861 368.697 688.573 368.804C687.967 372.867 687.928 411.188 688.796 413.811L688.964 415.513L688.409 416.102C683.567 416.118 669.835 416.507 665.879 416.123L665.592 416.017L665.545 368.774Z"/><path fill="#5F4A98" transform="translate(-128 -111)" d="M379.004 415.931C380.546 416.053 381.319 415.892 382.529 416.625C382.258 424.484 382.405 432.784 382.428 440.682L414.996 440.644C417.856 440.636 428.015 440.444 430.448 440.898C430.423 448.61 430.231 456.921 430.384 464.581C414.236 464.348 397.769 464.473 381.606 464.461C382.382 457.989 382.119 447.088 382.094 440.468L358.234 440.46C357.694 434.563 358.286 423.003 358.23 416.281L358.418 416.042C364.671 416.024 372.875 416.235 379.004 415.931Z"/><path fill="#684D98" transform="translate(-128 -111)" d="M666.389 201.807C674.029 201.64 681.697 201.9 689.329 201.794C688.86 216.458 689.1 230.515 688.866 245.15C687.91 246.566 688.31 247.96 688.372 250.015C680.706 250.164 673.162 250.134 665.493 250.089L665.584 202.085L666.389 201.807Z"/><path fill="#5F4A98" transform="translate(-128 -111)" d="M430.066 129.632C444.673 129.179 459.435 129.497 474.054 129.542L516.767 129.366C541.549 129.366 569.131 128.615 593.792 129.593C593.091 136.285 593.738 146.293 593.582 153.306C609.757 152.8 626.096 153.532 642.094 153.024C641.776 160.973 641.928 169.129 641.983 177.1L665.871 177.054C665.868 180.648 665.508 199.675 666.389 201.807L665.584 202.085C658.897 201.694 648.936 202.104 641.772 202.036L618.036 201.954C609.843 202.092 601.709 202.033 593.518 201.984C593.493 193.863 593.38 185.581 593.628 177.477C586.083 177.556 578.552 177.48 571.007 177.423C570.956 173.308 571.565 157.926 570.466 154.842L569.077 154.271L484.609 154.401C467.253 154.4 447.698 154.819 430.475 154.102L430.469 177.88L400.018 178.005C396.73 178.006 387.299 178.17 384.401 177.632L382.757 177.369L382.572 176.986C381.631 172.965 381.986 158.13 382.017 153.509C396.119 153.417 415.558 152.562 429.151 153.468L429.954 152.986C430.337 147.525 430.291 135.182 430.066 129.632Z"/><path fill="#FC9DB6" transform="translate(-128 -111)" d="M569.077 154.271C577.271 154.036 585.384 154.012 593.577 153.98C593.739 161.89 593.732 169.58 593.673 177.494L618.189 177.469C617.863 185.465 618.013 193.914 618.036 201.954C609.843 202.092 601.709 202.033 593.518 201.984C593.493 193.863 593.38 185.581 593.628 177.477C586.083 177.556 578.552 177.48 571.007 177.423C570.956 173.308 571.565 157.926 570.466 154.842L569.077 154.271Z"/><path fill="#F488A5" transform="translate(-128 -111)" d="M618.189 177.469L641.929 177.564C641.454 183.222 641.56 196.172 641.772 202.036L618.036 201.954C618.013 193.914 617.863 185.465 618.189 177.469Z"/><path fill="#5F4A98" transform="translate(-128 -111)" d="M310.703 249.973C318.595 249.892 327.842 249.588 335.607 250.047C334.913 285.44 335.848 321.043 335.479 356.455C335.437 360.476 335.341 364.943 335.549 368.946C329.157 369.41 317.731 368.899 310.624 369.101C311.179 364.539 310.992 356.796 310.992 352L310.986 322.942C310.996 300.744 311.834 271.783 310.703 249.973Z"/><path fill="#684D98" transform="translate(-128 -111)" d="M382.572 176.986L382.757 177.369C381.991 182.672 382.503 196.302 382.471 202.06C374.523 202.053 366.399 202.137 358.468 202.024L358.416 250.227C351.338 250.288 342.523 250.58 335.607 250.047C336.135 246.117 336.026 237.018 336.042 232.86L335.986 201.55L358.319 201.49C357.761 193.723 358.306 185.018 358.335 177.093L382.572 176.986Z"/><path fill="#684D98" transform="translate(-128 -111)" d="M335.549 368.946C342.514 368.428 351.456 368.582 358.51 368.676L358.481 391.957L358.418 416.042L358.23 416.281C353.778 415.693 340.57 415.999 336.024 416.23C336.057 402.019 336.618 382.829 335.549 368.946Z"/><path fill="#FC9DB6" transform="translate(-128 -111)" d="M358.481 391.957C364.036 391.26 376.027 391.537 382.089 391.52C382.157 395.97 383.265 412.579 380.787 415.428L379.004 415.931C372.875 416.235 364.671 416.024 358.418 416.042L358.481 391.957Z"/><path fill="#FEEEED" transform="translate(-128 -111)" d="M406.909 202.484C409.757 201.049 446.047 202.774 453.325 201.656C452.772 207.057 452.959 214.35 452.963 219.896L453.008 250.015C445.505 250.051 437.46 249.937 430.005 250.145C430.055 257.733 430.144 265.353 430.04 272.938L382.139 272.955C382.108 257.489 381.77 240.569 382.206 225.167C390.482 225.119 398.748 225.058 407.024 225.128C407.008 218.334 407.274 209.073 406.909 202.484Z"/><path fill="#5F4A98" transform="translate(-128 -111)" d="M194.069 686.04C195.91 698.294 193.12 721.73 194.689 734.032C186.813 734.042 178.676 733.946 170.822 734.106L170.765 780.797C174.26 780.593 193.038 779.69 194.76 781.472C194.003 786.487 194.295 799.573 194.311 805.095L194.052 805.13L170.633 805.007C171.123 834.666 171.272 869.319 170.618 898.949C177.916 898.939 187.41 898.637 194.522 898.966C194.308 906.151 194.771 916.907 194.089 923.455C186.242 923.294 178.502 923.057 170.662 923.494C171.071 917.276 170.618 905.84 170.571 899.229C164.119 899.44 154.293 898.459 148.139 899.39L147.622 899.267C147.438 899.008 147.253 898.749 147.069 898.49C146.884 863.189 147.016 802.322 147.019 769.169L147.021 746.567C147.021 743.696 146.845 736.747 147.264 734.251L149.535 733.731C153.012 734.297 166.7 733.98 171.026 733.948C170.391 718.004 171.455 701.679 170.886 686.13C178.328 686.292 186.564 686.076 194.069 686.04Z"/><path fill="#342B94" transform="translate(-128 -111)" d="M148.139 899.39L147.622 899.267C147.438 899.008 147.253 898.749 147.069 898.49C146.884 863.189 147.016 802.322 147.019 769.169L147.021 746.567C147.021 743.696 146.845 736.747 147.264 734.251L149.535 733.731C147.756 739.177 149.056 772.901 149.064 781.344L148.841 873.977C148.821 877.583 148.891 897.374 148.139 899.39Z"/></g></svg>