<?xml version="1.0" encoding="utf-8" ?><svg xmlns="http://www.w3.org/2000/svg" xmlns:xlink="http://www.w3.org/1999/xlink" width="679" height="388" viewBox="0 0 679 388"><clipPath id="cl_3"><rect width="679" height="388"/></clipPath><g clip-path="url(#cl_3)"><path fill="#A37EE2" transform="translate(-170 -376)" d="M284.67 386.661C293.817 386.133 305.538 386.65 314.947 386.675L373.188 386.681L734.358 386.449C735.214 386.455 738.794 386.454 739.119 386.986C741.576 391 739.954 397.774 740.669 402.704C747.713 402.406 773.727 402.818 779.779 403.603C780.181 409.367 778.012 418.078 782.338 422.074C786.819 421.876 796.662 420.425 799.66 422.806C800.902 425.049 799.832 436.804 801.304 442.466C804.93 442.398 808.598 442.297 812.207 442.306C815.456 442.313 820.838 441.81 820.477 446.55C819.999 452.827 819.785 458.337 821.282 464.545C822.086 464.697 823.38 464.893 824.112 465.138C826.242 465.06 828.113 464.628 829.658 465.72L829.932 467.313C829.656 471.11 829.686 474.249 830.081 478.057L835.625 478.506C837.685 478.522 839.371 478.488 841.434 478.783C841.803 488.846 841.243 501.166 841.272 511.658L841.48 589.69L841.469 632.581C841.469 637.319 841.796 648.659 841.263 652.679C838.826 654.987 834.541 650.665 830.125 652.876C829.045 654.306 829.109 654.396 828.623 656.057C829.546 660.004 829.954 660.613 829.661 664.609C825.992 665.833 822.395 663.429 820.812 665.922C818.4 669.718 822.422 681.121 819.881 684.023C816.737 684.96 806.117 683.615 800.658 684.074L800.515 684.779C799.956 687.652 800.039 688.097 799.906 690.828C799.79 693.241 801.611 702.77 800.154 703.729C795.033 707.099 781.504 699.534 779.807 707.935C779.041 711.73 780.582 719.574 781.221 723.674L760.386 723.382C759.094 728.618 761.872 739.052 759.833 741.365C753.479 742.673 743.656 739.609 740.418 742.23C738.021 747.668 742.875 754.667 740.155 757.433C719.261 758.334 697.338 756.688 676.307 757.458C672.441 757.6 656.612 757.92 653.434 757.104C651.121 754.224 655.125 746.743 652.905 741.769C649.917 739.393 637.526 741.68 632.605 741.566C632.295 738.493 632.011 735.227 632.44 732.141C632.447 728.863 632.439 726.899 632.072 723.624C627.216 722.937 616.119 723.495 610.528 723.525C610.14 718.193 610.474 709.919 610.612 704.428C603.492 702.801 595.895 703.925 588.571 704.489C588.172 697.459 588.665 691.175 589.247 684.219C584.432 683.188 575.14 683.595 569.733 683.613L542.48 683.573L474.044 683.583C468.576 683.588 435.82 683.061 433.409 684.499C431.128 688.88 434.835 703.249 433.024 704.118C429 706.048 415.929 701.611 412.221 704.779C410.614 708.909 411.812 718.567 411.725 723.892C405.222 723.609 398.746 723.44 392.241 723.265C391.044 730.336 393.519 737.402 392.206 741.029C388.233 743.711 376.342 738.461 372.244 742.788C371.187 747.541 373.025 752.383 373.724 757.565L316.022 757.443C309.509 757.458 291.182 757.992 285.462 757.249C282.545 754.54 287.306 745.168 284.254 741.087C281.859 739.895 270.199 741.664 265.85 741.769C264.527 735.636 265.588 730.215 265.479 723.813C258.778 722.72 250.054 723.815 242.663 723.43C243.021 717.804 243.936 709.787 243.805 704.421C234.329 702.39 230.288 705.296 223.574 704.108C221.085 701.21 224.904 690.838 222.894 685.324C219.378 681.57 208.526 685.439 202.819 683.975C199.929 681.305 202.34 670.693 200.469 665.123L198.675 663.628C195.778 663.944 194.327 665.565 191.289 664.229C189.753 661.351 190.904 656.782 191.392 653.444C187.596 652.722 182.106 654.14 179.785 652.108C180.289 633.972 179.761 616.691 179.646 598.566L179.378 511.848C179.374 508.105 178.854 482.232 179.596 480.136C183.405 476.444 187.326 479.979 190.838 478.311C193.249 474.293 190.158 470.086 190.675 467.12C191.246 463.845 198.073 465.836 200.954 463.861C201.368 463.248 202.027 462.234 201.939 461.51C201.16 455.069 201.035 449.019 201.109 442.536C208.363 442.374 216.018 442.995 223.428 442.94C224.161 435.522 221.935 431.464 223.398 422.104C228.418 421.555 237.444 423.404 241.733 421.654C247.331 419.369 240.935 408.743 243.187 404.368C245.11 400.632 277.645 404.775 283.848 402.489C285.372 400.135 284.381 390.891 284.67 386.661ZM759.662 423.383C759.768 421.885 759.953 422.539 759.17 421.334C757.662 421.214 756.522 421.215 755.028 421.222C755.077 422.945 755.128 425.961 756.4 427.182C758.678 426.869 758.525 425.192 759.662 423.383Z"/><path fill="#4A2BAC" transform="translate(-170 -376)" d="M284.67 386.661C293.817 386.133 305.538 386.65 314.947 386.675L373.188 386.681L734.358 386.449C735.214 386.455 738.794 386.454 739.119 386.986C741.576 391 739.954 397.774 740.669 402.704C747.713 402.406 773.727 402.818 779.779 403.603C780.181 409.367 778.012 418.078 782.338 422.074C787.257 423.752 796.469 421.61 798.523 422.662C800.072 425.619 799.397 437.02 799.214 441C797.274 440.998 784.69 440.854 783.771 441.401C788.314 442.274 794.911 441.15 800.603 442.393C800.555 442.087 800.729 449.167 800.733 449.279C800.879 453.048 802.896 477.495 801.187 479.359L801.1 461.934L780.117 461.986L780.374 441.689C773.641 441.585 766.718 441.653 759.968 441.637C759.977 436.881 760.241 427.792 759.662 423.383C759.768 421.885 759.953 422.539 759.17 421.334C757.662 421.214 756.522 421.215 755.028 421.222C752.017 420.346 727.11 420.982 722.216 421.001C722.354 415.384 722.351 409.608 722.411 403.977L302.865 404.077L302.967 420.991C290.274 420.969 277.516 420.872 264.83 421.07C264.196 425.126 264.48 436.918 264.495 441.588C258.928 441.694 249.016 441.431 244.018 441.929C244.042 448.553 244.09 455.169 243.978 461.793C236.881 462.107 229.773 462.013 222.668 461.992L222.893 497.48L200.84 497.514C201.248 509.795 200.434 618.441 201.402 620.204C202.196 620.321 202.972 620.44 203.763 620.574C204.048 622.009 204.088 621.272 203.157 622.797L202.243 623.288L201.573 622.996L201.335 621.451C201.201 622.758 200.943 623.6 201.582 624.714C208.452 625.047 215.823 624.706 222.823 624.85L222.808 664.95C229.748 664.943 237.195 665.069 244.095 664.871L243.947 685.022L264.937 685.194C264.901 688.084 264.57 697.567 265.314 699.707C267.37 699.992 267.254 699.604 268.178 700.811C267.208 703.519 266.117 701.726 266.349 703.394C275.58 704.357 293.103 703.759 303.049 703.639L302.918 723.1C319.178 723.129 342.047 722.381 357.582 723.509C357.304 716.705 357.333 710.697 357.44 703.881C368.611 703.644 379.947 703.639 391.129 703.62C391.15 698.17 391.379 690.343 390.984 685.138C397.236 685.056 404.84 684.765 410.954 685.544C410.921 678.665 410.883 671.909 411.061 665.031C477.864 664.256 545.229 665.205 612.108 664.869L611.939 685.359C618.748 684.756 625.932 685.395 632.82 684.968L632.901 703.898L637.031 704.502L636.756 704.302L636.466 704.569L635.99 704.225C635.207 704.402 634.038 704.469 633.816 704.981C631.019 711.421 636.487 727.38 632.44 732.141C632.447 728.863 632.439 726.899 632.072 723.624C627.216 722.937 616.119 723.495 610.528 723.525C610.14 718.193 610.474 709.919 610.612 704.428C603.492 702.801 595.895 703.925 588.571 704.489C588.172 697.459 588.665 691.175 589.247 684.219C584.432 683.188 575.14 683.595 569.733 683.613L542.48 683.573L474.044 683.583C468.576 683.588 435.82 683.061 433.409 684.499C431.128 688.88 434.835 703.249 433.024 704.118C429 706.048 415.929 701.611 412.221 704.779C410.614 708.909 411.812 718.567 411.725 723.892C405.222 723.609 398.746 723.44 392.241 723.265C391.044 730.336 393.519 737.402 392.206 741.029C388.233 743.711 376.342 738.461 372.244 742.788C371.187 747.541 373.025 752.383 373.724 757.565L316.022 757.443C309.509 757.458 291.182 757.992 285.462 757.249C282.545 754.54 287.306 745.168 284.254 741.087C281.859 739.895 270.199 741.664 265.85 741.769C264.527 735.636 265.588 730.215 265.479 723.813C258.778 722.72 250.054 723.815 242.663 723.43C243.021 717.804 243.936 709.787 243.805 704.421C234.329 702.39 230.288 705.296 223.574 704.108C221.085 701.21 224.904 690.838 222.894 685.324C219.378 681.57 208.526 685.439 202.819 683.975C199.929 681.305 202.34 670.693 200.469 665.123L198.675 663.628C195.778 663.944 194.327 665.565 191.289 664.229C189.753 661.351 190.904 656.782 191.392 653.444C187.596 652.722 182.106 654.14 179.785 652.108C180.289 633.972 179.761 616.691 179.646 598.566L179.378 511.848C179.374 508.105 178.854 482.232 179.596 480.136C183.405 476.444 187.326 479.979 190.838 478.311C193.249 474.293 190.158 470.086 190.675 467.12C191.246 463.845 198.073 465.836 200.954 463.861C201.368 463.248 202.027 462.234 201.939 461.51C201.16 455.069 201.035 449.019 201.109 442.536C208.363 442.374 216.018 442.995 223.428 442.94C224.161 435.522 221.935 431.464 223.398 422.104C228.418 421.555 237.444 423.404 241.733 421.654C247.331 419.369 240.935 408.743 243.187 404.368C245.11 400.632 277.645 404.775 283.848 402.489C285.372 400.135 284.381 390.891 284.67 386.661Z"/><path fill="#A37EE2" transform="translate(-170 -376)" d="M191.392 653.444C192.01 654.656 191.983 654.56 193.195 655.209L192.751 655.276L193.494 655.692C194.285 653.889 193.664 654.589 195.559 653.65L196.099 654.005C196.36 655.541 196.511 657.919 197.527 658.878C198.354 657.97 198.808 657.399 199.545 656.413C200.308 658.102 200.031 662.484 200.469 665.123L198.675 663.628C195.778 663.944 194.327 665.565 191.289 664.229C189.753 661.351 190.904 656.782 191.392 653.444Z"/><path fill="#311A78" transform="translate(-170 -376)" d="M190.582 607.413L191.026 607.97C190.566 609.376 188.582 610.88 187.403 611.954L187.006 611.617C187.597 609.924 189.179 608.782 190.582 607.413Z"/><path fill="#D4C3FA" transform="translate(-170 -376)" d="M302.865 404.077L722.411 403.977C722.351 409.608 722.354 415.384 722.216 421.001C727.11 420.982 752.017 420.346 755.028 421.222C755.077 422.945 755.128 425.961 756.4 427.182C758.678 426.869 758.525 425.192 759.662 423.383C760.241 427.792 759.977 436.881 759.968 441.637L721.985 441.631L721.941 422.005C700.964 422.274 679.779 422.044 658.774 422.084L504.199 422.072C437.419 421.996 369.911 422.701 303.19 421.879C302.992 428.121 302.993 435.338 303.308 441.534C291.464 441.715 276.571 441.126 265.01 441.923C265.054 435.477 265.268 427.367 264.83 421.07C277.516 420.872 290.274 420.969 302.967 420.991L302.865 404.077Z"/><path fill="#311A78" transform="translate(-170 -376)" d="M782.338 422.074C786.819 421.876 796.662 420.425 799.66 422.806C800.902 425.049 799.832 436.804 801.304 442.466C804.93 442.398 808.598 442.297 812.207 442.306C815.456 442.313 820.838 441.81 820.477 446.55C819.999 452.827 819.785 458.337 821.282 464.545C822.086 464.697 823.38 464.893 824.112 465.138C826.242 465.06 828.113 464.628 829.658 465.72L829.932 467.313C829.656 471.11 829.686 474.249 830.081 478.057L835.625 478.506C837.685 478.522 839.371 478.488 841.434 478.783C841.803 488.846 841.243 501.166 841.272 511.658L841.48 589.69L841.469 632.581C841.469 637.319 841.796 648.659 841.263 652.679C838.826 654.987 834.541 650.665 830.125 652.876C829.045 654.306 829.109 654.396 828.623 656.057C829.546 660.004 829.954 660.613 829.661 664.609C826.315 664.195 825.053 664.044 821.792 663.069L821.686 661.879C820.793 659.957 820.833 660.78 821.801 658.935C821.919 658.709 821.088 654.981 820.982 654.477L820.009 654.454C819.296 653.484 821.877 651.88 820.995 648.535L820.047 648.612C819.43 648.026 820.878 645.834 821.061 644.587C821.709 640.194 821.706 628.676 821.117 624.697C820.752 596.022 821.3 567.119 821.162 538.438C821.099 525.278 821.634 510.811 821.03 497.786C814.594 497.362 807.533 497.497 801.03 497.492L801.187 479.359C802.896 477.495 800.879 453.048 800.733 449.279C800.729 449.167 800.555 442.087 800.603 442.393C794.911 441.15 788.314 442.274 783.771 441.401C784.69 440.854 797.274 440.998 799.214 441C799.397 437.02 800.072 425.619 798.523 422.662C796.469 421.61 787.257 423.752 782.338 422.074Z"/><path fill="#4A2BAC" transform="translate(-170 -376)" d="M824.112 465.138C826.242 465.06 828.113 464.628 829.658 465.72L829.932 467.313C827.259 468.14 828.051 467.936 825.876 470.241C825.166 469.243 824.896 466.816 824.112 465.138Z"/><defs><linearGradient id="gradient_0" gradientUnits="userSpaceOnUse" x1="698.88281" y1="759.47717" x2="694.4671" y2="699.97559"><stop offset="0" stop-color="#391F94"/><stop offset="1" stop-color="#5638BD"/></linearGradient></defs><path fill="url(#gradient_0)" transform="translate(-170 -376)" d="M632.901 703.898C638.093 703.12 647.147 703.912 652.773 703.673C652.725 710.171 652.697 716.633 652.485 723.129C672.609 722.827 692.79 723.22 712.92 723.105C716.141 723.086 719.325 723.177 722.534 723.48L722.532 703.547C729.864 704.157 738.439 703.366 745.862 703.658C744.564 704.524 742.72 704.372 741.163 704.447C742.113 705.233 755.927 703.614 759.125 705.196C759.252 707.787 759.675 721.931 760.386 723.382C759.094 728.618 761.872 739.052 759.833 741.365C753.479 742.673 743.656 739.609 740.418 742.23C738.021 747.668 742.875 754.667 740.155 757.433C719.261 758.334 697.338 756.688 676.307 757.458C672.441 757.6 656.612 757.92 653.434 757.104C651.121 754.224 655.125 746.743 652.905 741.769C649.917 739.393 637.526 741.68 632.605 741.566C632.295 738.493 632.011 735.227 632.44 732.141C636.487 727.38 631.019 711.421 633.816 704.981C634.038 704.469 635.207 704.402 635.99 704.225L636.466 704.569L636.756 704.302L637.031 704.502L632.901 703.898Z"/><defs><linearGradient id="gradient_1" gradientUnits="userSpaceOnUse" x1="809.49597" y1="699.31708" x2="771.18719" y2="648.92377"><stop offset="0" stop-color="#391F94"/><stop offset="1" stop-color="#5638BD"/></linearGradient></defs><path fill="url(#gradient_1)" transform="translate(-170 -376)" d="M800.991 624.786C807.671 624.827 814.449 624.95 821.117 624.697C821.706 628.676 821.709 640.194 821.061 644.587C820.878 645.834 819.43 648.026 820.047 648.612L820.995 648.535C821.877 651.88 819.296 653.484 820.009 654.454L820.982 654.477C821.088 654.981 821.919 658.709 821.801 658.935C820.833 660.78 820.793 659.957 821.686 661.879L821.792 663.069C825.053 664.044 826.315 664.195 829.661 664.609C825.992 665.833 822.395 663.429 820.812 665.922C818.4 669.718 822.422 681.121 819.881 684.023C816.737 684.96 806.117 683.615 800.658 684.074L800.515 684.779C799.956 687.652 800.039 688.097 799.906 690.828C799.79 693.241 801.611 702.77 800.154 703.729C795.033 707.099 781.504 699.534 779.807 707.935C779.041 711.73 780.582 719.574 781.221 723.674L760.386 723.382C759.675 721.931 759.252 707.787 759.125 705.196C755.927 703.614 742.113 705.233 741.163 704.447C742.72 704.372 744.564 704.524 745.862 703.658L759.991 703.575C759.768 697.38 759.673 691.598 759.69 685.399C766.37 684.898 773.807 685.071 780.502 685.202L780.445 664.777C787.136 664.947 794.507 664.983 801.165 664.734L800.991 624.786Z"/><path fill="#311A78" transform="translate(-170 -376)" d="M651.894 437.994L700.606 437.91C700.544 442.097 700.167 453.824 700.795 457.539L722.101 457.589C721.939 470.663 722.22 483.816 722.036 497.037L761.232 497.001C761.393 502.074 761.123 508.688 761.037 513.863C767.405 513.446 775.634 513.628 782.155 513.617C781.916 532.977 782.068 552.976 782.175 572.351C775.151 572.184 768.092 572.284 761.063 572.329C761.159 578.057 761.106 583.789 761.081 589.517L721.987 589.474C722.41 600.832 722.051 614.327 721.989 625.836C714.792 625.89 707.728 625.845 700.531 625.746L700.508 644.49C684.461 644.603 667.989 644.147 651.989 644.618L652.061 625.803C646.056 625.444 637.233 625.745 631.023 625.77C631.171 614.722 630.637 600.145 631.404 589.523L586.015 589.512C586.028 583.511 586.007 578.252 586.523 572.259C579.377 571.941 571.263 572.287 564.027 572.45L564.067 513.838C571.74 513.726 578.659 513.691 586.317 513.978C585.869 507.55 586.058 499.549 586.063 492.978L631.284 492.92C631.024 481.213 631.185 469.344 631.261 457.625L652.026 457.529L651.894 437.994Z"/><path fill="#CA2F97" transform="translate(-170 -376)" d="M722.007 515.102L760.041 514.999C759.559 532.038 759.236 554.974 759.97 571.979C751.632 571.983 729.359 572.521 722.087 571.814C715.591 572.285 706.933 572.676 700.665 571.757C700.928 564.591 700.308 539.335 701.383 534.547C707.279 534.052 716.063 534.366 722.171 534.418L722.007 515.102Z"/><path fill="#5F1275" transform="translate(-170 -376)" d="M701.383 534.547C707.279 534.052 716.063 534.366 722.171 534.418L722.087 571.814C715.591 572.285 706.933 572.676 700.665 571.757C700.928 564.591 700.308 539.335 701.383 534.547Z"/><path fill="#CA2F97" transform="translate(-170 -376)" d="M652.483 457.949C657.867 457.195 667.577 457.4 673.379 457.437C682.228 457.495 691.862 457.263 700.624 457.636C701.063 469.979 700.345 484.373 700.529 497.052L700.526 513.988C684.694 514.237 668.441 513.996 652.563 513.982C652.78 508.33 652.612 502.303 652.554 496.621C652.602 483.715 652.674 470.855 652.483 457.949Z"/><path fill="#5F1275" transform="translate(-170 -376)" d="M652.554 496.621C668.221 497.097 684.789 496.933 700.529 497.052L700.526 513.988C684.694 514.237 668.441 513.996 652.563 513.982C652.78 508.33 652.612 502.303 652.554 496.621Z"/><path fill="#CA2F97" transform="translate(-170 -376)" d="M652.784 572.061C668.3 572.428 684.94 572.229 700.482 571.997L700.527 624.956C685.109 624.475 667.969 624.881 652.447 624.982C652.734 607.483 652.225 589.448 652.784 572.061Z"/><path fill="#CA2F97" transform="translate(-170 -376)" d="M587.213 514.96C601.812 515.244 616.872 515.124 631.495 515.18C630.029 531.496 631.697 554.739 631.04 571.909L587.227 571.987C587.85 554.692 587.7 532.201 587.213 514.96Z"/><path fill="#311A78" transform="translate(-170 -376)" d="M301.943 460.045C304.269 459.041 372.95 459.538 380.48 459.573C379.716 475.296 380.459 497.637 380.474 513.891C398.072 513.395 416.834 513.693 434.507 513.681C434.83 526.739 434.74 539.382 434.631 552.437C434.528 564.77 434.858 577.154 434.51 589.49L380.383 589.505C380.713 605.904 380.946 628.25 380.243 644.474L301.949 644.493C301.565 627.866 301.324 606.077 301.957 589.59C284.273 589.161 265.253 589.498 247.485 589.55C247.639 565.185 246.872 537.982 247.78 513.995C264.978 513.106 284.222 513.917 301.698 513.601C301.979 499.274 301.546 484.86 301.653 470.526C301.678 467.115 301.457 463.404 301.943 460.045Z"/><path fill="#8EB7D0" transform="translate(-170 -376)" d="M322.585 481.014C333.861 481.514 345.768 481.245 357.091 481.142C357.041 498.937 356.895 516.938 357.131 534.717C375.041 534.623 394.156 534.33 411.985 534.769C411.805 546.842 411.503 559.982 411.95 571.971C394.421 571.441 374.747 571.854 357.091 571.938L357.048 621.625C357.07 622.877 357.018 622.985 356.842 624.238C354.965 625.225 326.434 624.583 322.313 624.544C322.626 607.168 322.465 589.339 322.504 571.93L269.756 571.975C269.186 561.413 269.641 545.49 269.604 534.512C286.494 535.022 305.429 534.633 322.467 534.63C322.376 516.861 322.224 498.757 322.585 481.014Z"/><path fill="#A37EE2" transform="translate(-170 -376)" d="M460.513 588.78C459.926 590.417 459.075 591.969 458.284 593.522C462.004 593.315 463.668 592.056 467.103 591.679C467.917 591.589 468.798 592.941 469.571 593.772L475.11 592.331C477.902 593.166 476.452 595.689 480.289 592.098C481.132 591.309 482.922 593.639 483.359 593.66C486.822 593.825 490.377 593.652 493.858 593.551C494.368 594.755 494.453 595.367 495.493 596.107C497.08 595.622 496.568 595.783 497.652 593.798L498.438 593.622C498.315 594.953 498.272 594.502 498.62 595.74C500.151 596.347 499.395 596.301 500.961 595.932C501.852 594.181 501.954 594.519 503.49 593.263C505.87 594.76 506.39 593.612 509.083 592.78L509.254 593.821C508.64 593.916 522.664 593.975 522.162 593.898C526.444 593.888 539.515 592.827 541.905 594.33L543.812 593.543C546.846 593.344 544.325 594.398 545.927 594.251C548.244 594.037 546.342 593.154 549.312 592.672C550.175 593.555 550.088 593.466 550.784 594.45C553.623 594.414 553.89 592.802 555.824 593.03L556.277 594.179L558.459 594.586C559.336 593.937 559.985 593.408 560.816 592.7C561.667 594.187 561.468 593.376 561.18 595.261L561.588 595.181L561.73 594.427L561.648 595.164C560.435 595.345 560.758 595.277 559.861 595.906C559.563 597.484 560.715 597.899 561.941 598.753L561.867 599.546C560.794 599.873 560.588 599.809 559.713 600.491C561.801 603.211 565.875 605.89 567.238 608.318C567.537 607.767 567.653 607.668 567.807 607.071C567.207 606.89 567.582 607.042 566.773 606.436C567.219 604.964 567.453 603.647 567.748 602.146C569.817 602.551 570.3 603.81 572.402 604.355L572.672 605.337C573.385 606.452 572.057 608.199 571.45 609.483L571.719 610.095C572.906 610.74 573.738 610.457 575.135 610.304L575.747 610.233L576.173 610.721C575.056 611.149 575.491 610.848 574.794 611.506C575.668 612.156 575.419 611.892 576.08 612.775C574.986 613.215 575.402 612.867 574.78 613.754L577.119 614.895C576.75 617.705 576.829 618.165 578.597 620.349L578.453 621.135L577.189 621.288L576.748 622.113C577.288 623.076 577.006 622.639 578.2 623.291C577.892 624.366 577.77 624.355 577.085 625.26L578.031 625.345C579.354 624.75 580.443 623.416 581.495 622.345C581.781 625.459 581.733 628.252 581.722 631.373C580.881 632.8 579.476 632.708 577.534 634.216L578.583 636.207L578.299 636.941C575.093 636.979 571.286 636.671 568.287 637.382L568.241 638.348L572.263 637.957L572.517 638.758C572.044 640.769 572.059 641.045 570.96 642.732L569.269 642.101L568.974 642.472C570.065 643.321 570.243 643.357 571.016 644.471C566.833 646.756 566.155 642.806 564.099 641.79L564.566 642.989C563.289 643.404 563.021 642.862 561.361 642.056L561.004 642.814C562.524 645.6 566.64 645.887 566.51 649.114C565.418 650.291 565.527 650.258 564.021 650.779C563.717 648.907 564.109 649.689 562.857 648.324C561.637 650.355 558.505 651.969 556.462 653.061L555.909 652.7C556.213 651.748 556.053 652.13 556.51 651.205L556.844 650.547C555.484 650.486 555.405 651.884 554.441 652.644C554.443 652.643 551.344 650.861 550.903 651.121C549.648 651.858 548.995 652.252 547.552 652.657C546.167 651.558 546.661 651.238 545.43 650.156C544.548 650.793 544.522 650.818 543.516 651.221L543.164 650.819L544.054 649.314L543.18 648.709L544.071 647.562C543.286 647.652 543.281 647.592 542.68 647.929C538.947 650.025 535.787 649.392 531.734 649.351C531.831 649.352 526.84 652.086 526.476 651.992C524.96 651.602 522.911 650.88 521.265 650.656C520.673 650.576 517.582 652.55 517.517 652.539C513.697 651.899 510.985 650.867 507.037 651.639C505.666 654.601 505.156 653.732 502.08 653.274C500.625 653.991 500.82 654.007 499.593 655.162L498.8 653.296L498.251 653.314L497.132 655.136L496.417 655.238C497.34 653.754 497.354 654.358 497.284 653.027C494.702 653.264 495.825 655.157 492.979 656.278C492.919 655.526 492.989 655.919 492.739 655.108C491.712 655.433 491.627 655.46 490.557 655.557L489.879 654.728L490.851 653.213L490.25 652.882C487.222 653.836 488.53 654.777 485.276 656.7L484.685 655.568C483.249 654.95 483.924 654.913 482.617 655.332L481.928 657.85L481.264 657.718L480.88 657.033L481.665 654.454C479.305 653.163 477.393 657.676 473.453 658.652L473.055 658.011C471.489 656.986 470.96 657.018 469.041 656.657L468.407 656.542L468.767 655.769L468.495 655.146C466.265 655.165 465.087 656.704 462.49 657.626C461.225 655.694 461.582 655.582 459.819 654.718L457.447 655.656L457.041 655.279C457.927 654.201 458.255 653.932 458.811 652.643L457.843 652.261C456.286 652.454 456.401 652.482 455.223 653.553L456.174 654.368L456.066 655.042L455.366 655.102L453.895 653.682C453.136 654.251 452.595 654.609 451.804 655.126C450.704 654.274 450.742 654.369 449.337 654.201C448.395 655.168 448.051 655.49 446.988 656.317L445.879 655.58C445.165 653.892 445.218 654.758 445.922 652.887C445.472 650.926 440.78 652.456 440.527 649.109L441.979 648.716L440.194 648.369L440.164 647.479C439.26 646.891 439.16 646.781 438.759 645.78L438.506 645.785C438.364 646.964 438.452 646.594 437.988 647.763L436.839 647.713C434.91 646.618 434.125 645.106 432.826 643.264C431.379 643.033 430.135 643.132 428.676 643.172C427.474 642.324 427.859 642.873 427.447 641.495C427.969 640.684 428.252 640.227 428.725 639.369C427.183 638.252 424.97 637.1 425.121 635.058C426.364 634.429 426.691 634.346 427.719 633.437C426.75 632.571 427.161 633.033 426.461 632.076C426.846 631.006 426.97 630.624 427.2 629.516L426.106 628.67C424.58 627.483 422.382 626.131 422.161 624.347C423.211 623.762 423.407 623.766 424.584 623.484L424.795 622.225L425.255 622.367L426.271 621.704C424.346 619.667 423.445 619.484 423.347 617.202C424.436 614.834 425.753 614.651 426.451 613.142C424.334 611.155 423.631 611.261 424.939 608.775C427.281 607.097 428.892 607.392 431.784 607.682L432.478 607.756L432.788 607.25C431.483 606.846 431.29 607.052 430.638 606.286L431.814 605.724L431.733 605.006L430.372 604.043C429.622 604.289 428.874 604.535 428.131 604.801L428.067 604.011C429.65 602.306 429.993 600.9 431.718 600.303L431.985 601.498L432.776 601.382L434.703 598.739C436.994 598.172 434.661 598.906 436.725 599.646L437.282 598.442L437.927 598.534C437.922 599.303 437.929 599.786 437.962 600.531C439.885 600.514 440.951 598.894 442.999 598.081C448.98 599.242 446.303 597.232 448.706 595.333C449.246 596.624 449.131 596.742 450.283 597.45C452.501 596.959 458.503 591.367 460.021 589.418L460.513 588.78Z"/></g></svg>