<?xml version="1.0" encoding="utf-8" ?><svg xmlns="http://www.w3.org/2000/svg" xmlns:xlink="http://www.w3.org/1999/xlink" width="686" height="815" viewBox="0 0 686 815"><clipPath id="cl_3"><rect x="6.1035156e-05" width="686" height="815"/></clipPath><g clip-path="url(#cl_3)"><path fill="#AE91D9" transform="translate(-172 -96)" d="M486.05 118.039L544.035 118.039C543.371 125.52 543.695 135.825 543.762 143.543L544.055 148.936C548.762 148.057 569.192 148.639 575.474 148.539C575.371 177.372 574.938 207.825 575.584 236.538L575.436 237.039L603.496 237.048L603.551 326.1L632.988 326.123C632.688 355.804 632.452 388.42 633.056 418.039C642.973 418.05 653.202 418.177 663.097 418.063L663.057 456.481C663.06 463.152 662.8 472.836 663.489 479.149L693.367 479.03C693.073 487.338 692.768 501.838 693.218 510.071C712.147 510.068 732.209 509.714 751.04 510.111L751.047 450.076L811.012 450.021C810.94 459.793 810.853 469.671 811.069 479.435C821.009 479.489 830.973 479.587 840.911 479.484L840.905 631.407C840.91 669.346 840.34 709.03 841.015 746.874C834.307 746.379 819.069 746.546 812.157 746.836L811.033 747.102L807.032 747.264C808.222 747.703 808.15 747.669 809.099 748.515C809.603 752.065 809.002 770.401 808.969 774.928C800.583 775.079 792.025 774.995 783.625 774.994L783.673 747.876C784.323 747.839 791.482 747.41 791.577 747.319C789.294 747.258 786.023 747.249 783.838 746.941L782.851 746.793C782.2 737.528 782.547 725.872 782.483 716.327C765.667 716.859 746.617 716.378 729.565 716.407C727.626 716.213 724.971 716.195 722.968 716.118L722.948 685.519C707.076 685.811 691.101 685.491 675.221 685.613C672.012 685.638 668.524 685.65 665.347 685.292L664.207 684.513C656.807 684.102 605.31 683.635 602.003 685.401L603.188 685.89C603.816 691.908 603.498 700.477 603.542 706.743C603.636 719.813 603.413 732.954 603.545 746.029C602.805 746.931 603.257 746.666 602.252 746.925C594.698 746.111 583.247 746.75 575.409 746.57C575.449 756 575.767 767.036 575.357 776.341L575.633 776.957L603.527 776.937L603.466 835.979L575.776 836.01C575.014 844.477 575.418 858.149 575.424 866.957C565.239 866.733 554.188 866.896 543.992 866.958C543.621 876.983 543.814 888.974 543.99 898.982L485.998 899.008C486.606 890.536 486.38 875.6 486.052 866.957C475.517 866.843 464.975 866.915 454.439 866.956C454.748 856.88 454.531 846.134 454.491 836.009C444.899 835.793 434.669 835.977 425.027 835.981C425.37 816.793 425.039 796.254 425.033 776.974C434.865 777 444.594 777.007 454.429 776.852C454.691 767.156 454.528 756.469 454.559 746.7C444.898 746.659 434.574 746.403 425.005 746.993C425.417 727.243 425.071 705.815 425.097 685.94C406.62 685.57 386.523 685.793 368.015 685.957C367.28 692.834 367.844 708.627 367.92 716.006C349.603 715.807 325.962 715.375 307.941 716.22C307.539 724.969 307.929 737.83 307.951 746.864C301.447 746.315 284.283 746.508 278.05 747.057C277.819 756.666 277.99 766.853 277.994 776.505C258.804 776.004 237.397 776.449 218.041 776.455L218.031 747.065C212.384 746.237 193.813 746.549 188.01 747.014C188.535 716.622 188.064 684.774 188.066 654.296L188.029 479.334C197.721 479.687 208.394 479.516 218.108 479.388C218.691 472.066 218.133 457.87 218.067 450.048C237.884 450.262 258.189 450.07 278.038 450.077C277.495 469.384 277.946 490.606 277.963 510.057L336.511 509.994C337.48 502.818 337.001 486.909 336.948 479.116C341.026 479.033 345.165 479.104 349.248 479.135C354.236 479.118 360.815 478.925 365.668 479.159C367.109 474.636 366.071 425.914 366.061 418.077L395.276 418.007C395.859 408.26 395.475 395.123 395.478 385.009L395.416 326.146L425.034 326.03C425.469 296.765 425.042 266.397 425.037 237.041C434.046 237.041 445.816 237.425 454.528 236.839L454.51 148.527C465.074 148.561 475.72 148.667 486.277 148.534C486.574 139.206 486.403 127.305 486.05 118.039Z"/><path fill="#0B0928" transform="translate(-172 -96)" d="M218.067 450.048C237.884 450.262 258.189 450.07 278.038 450.077C277.495 469.384 277.946 490.606 277.963 510.057L336.511 509.994C337.48 502.818 337.001 486.909 336.948 479.116C341.026 479.033 345.165 479.104 349.248 479.135C354.236 479.118 360.815 478.925 365.668 479.159L366.16 479.294C365.878 489.75 366.383 500.868 366.002 511.011L397 511.013L396.972 540.596C406.025 540.573 416.078 540.77 425.05 540.452C424.496 544.904 424.759 551.145 424.791 555.825L424.945 581.694C424.965 605.845 424.317 632.602 424.957 656.555C422.14 656.614 418.125 656.59 415.447 656.917C428.058 657.141 442.374 657.151 454.977 656.853C454.997 676.452 455.366 697.27 454.802 716.775C459.769 716.207 467.758 716.404 472.942 716.409L503.938 716.454C525.911 716.464 553.715 715.601 575.27 716.628C574.805 697.191 575.186 676.495 575.113 656.934C604.65 657.263 635.484 657.102 665.024 656.849C664.977 661.871 664.52 681.828 665.347 685.292L664.207 684.513C656.807 684.102 605.31 683.635 602.003 685.401L603.188 685.89C603.816 691.908 603.498 700.477 603.542 706.743C603.636 719.813 603.413 732.954 603.545 746.029C602.805 746.931 603.257 746.666 602.252 746.925C594.698 746.111 583.247 746.75 575.409 746.57C575.449 756 575.767 767.036 575.357 776.341L575.633 776.957L603.527 776.937L603.466 835.979L575.776 836.01C575.014 844.477 575.418 858.149 575.424 866.957C565.239 866.733 554.188 866.896 543.992 866.958C543.621 876.983 543.814 888.974 543.99 898.982L485.998 899.008C486.606 890.536 486.38 875.6 486.052 866.957C475.517 866.843 464.975 866.915 454.439 866.956C454.748 856.88 454.531 846.134 454.491 836.009C444.899 835.793 434.669 835.977 425.027 835.981C425.37 816.793 425.039 796.254 425.033 776.974C434.865 777 444.594 777.007 454.429 776.852C454.691 767.156 454.528 756.469 454.559 746.7C444.898 746.659 434.574 746.403 425.005 746.993C425.417 727.243 425.071 705.815 425.097 685.94C406.62 685.57 386.523 685.793 368.015 685.957C367.28 692.834 367.844 708.627 367.92 716.006C349.603 715.807 325.962 715.375 307.941 716.22C307.539 724.969 307.929 737.83 307.951 746.864C301.447 746.315 284.283 746.508 278.05 747.057C277.819 756.666 277.99 766.853 277.994 776.505C258.804 776.004 237.397 776.449 218.041 776.455L218.031 747.065C212.384 746.237 193.813 746.549 188.01 747.014C188.535 716.622 188.064 684.774 188.066 654.296L188.029 479.334C197.721 479.687 208.394 479.516 218.108 479.388C218.691 472.066 218.133 457.87 218.067 450.048Z"/><path fill="#D1B9EE" transform="translate(-172 -96)" d="M218.067 450.048C237.884 450.262 258.189 450.07 278.038 450.077C277.495 469.384 277.946 490.606 277.963 510.057L336.511 509.994C337.48 502.818 337.001 486.909 336.948 479.116C341.026 479.033 345.165 479.104 349.248 479.135C354.236 479.118 360.815 478.925 365.668 479.159L366.16 479.294C365.878 489.75 366.383 500.868 366.002 511.011L397 511.013L396.972 540.596C406.025 540.573 416.078 540.77 425.05 540.452C424.496 544.904 424.759 551.145 424.791 555.825L424.945 581.694C424.965 605.845 424.317 632.602 424.957 656.555C422.14 656.614 418.125 656.59 415.447 656.917L367 656.977C367.032 661.771 367.409 682.178 366.568 685.336C363.85 685.897 349.606 685.752 345.854 685.684C333.152 685.452 319.647 685.981 307.036 685.559C307.031 693.82 306.604 708.449 307.079 716.257C300.547 716.36 285.986 716.838 279.908 716.152L278.176 716.648C277.989 717.099 277.694 717.737 277.571 718.186C278.39 726.012 277.186 736.508 278.13 743.728C278.025 744.47 277.975 746.141 277.503 746.21C270.162 747.295 254.665 746.65 247.566 746.644C247.392 740.308 247.437 733.755 247.483 727.406C247.794 684.167 246.966 640.8 247.506 597.574C247.091 558.525 247.472 518.573 247.501 479.498C244.939 479.52 242.303 479.45 239.735 479.414C233.033 479.641 225.2 479.458 218.405 479.473L218.108 479.388C218.691 472.066 218.133 457.87 218.067 450.048Z"/><path fill="#383364" transform="translate(-172 -96)" d="M218.067 450.048C237.884 450.262 258.189 450.07 278.038 450.077C277.495 469.384 277.946 490.606 277.963 510.057L336.511 509.994C337.48 502.818 337.001 486.909 336.948 479.116C341.026 479.033 345.165 479.104 349.248 479.135C354.236 479.118 360.815 478.925 365.668 479.159L366.16 479.294C365.878 489.75 366.383 500.868 366.002 511.011C359.509 511.034 352.058 511.212 345.659 510.901L337.025 511.045L336.927 539.782C336.273 540.355 336.604 540.253 336.045 540.328C330.211 540.676 314.713 540.749 309.291 540.231L306.961 540.73C306.16 542.474 306.673 565.371 306.437 569.452C302.063 570.318 283.06 569.798 277.976 569.605L278.03 596.59C277.751 596.842 277.472 597.094 277.193 597.345C269.28 597.742 255.309 597.525 247.925 597.434L247.506 597.574C247.091 558.525 247.472 518.573 247.501 479.498C244.939 479.52 242.303 479.45 239.735 479.414C233.033 479.641 225.2 479.458 218.405 479.473L218.108 479.388C218.691 472.066 218.133 457.87 218.067 450.048Z"/><path fill="#383364" transform="translate(-172 -96)" d="M349.248 479.135C354.236 479.118 360.815 478.925 365.668 479.159L366.16 479.294C365.878 489.75 366.383 500.868 366.002 511.011C359.509 511.034 352.058 511.212 345.659 510.901C346.427 510.101 346.02 510.455 347.543 510.273L347.648 509.758L337.977 509.582C338.814 501.247 338.489 489.602 338.459 480.968C341.756 480.998 353.608 481.29 355.928 479.974C354.101 479.199 351.317 479.244 349.248 479.135Z"/><path fill="#0B0928" transform="translate(-172 -96)" d="M218.067 450.048C237.884 450.262 258.189 450.07 278.038 450.077C277.495 469.384 277.946 490.606 277.963 510.057L336.511 509.994C337.48 502.818 337.001 486.909 336.948 479.116C341.026 479.033 345.165 479.104 349.248 479.135C351.317 479.244 354.101 479.199 355.928 479.974C353.608 481.29 341.756 480.998 338.459 480.968C338.489 489.602 338.814 501.247 337.977 509.582L347.648 509.758L347.543 510.273C346.02 510.455 346.427 510.101 345.659 510.901L337.025 511.045C334.536 512.932 281.967 512.511 278.334 510.948C275.434 507.768 276.342 492.817 276.348 488.057L276.461 451.931L219.55 451.919L219.572 478.331C225.533 478.104 240.631 477.716 246.056 478.726C243.935 478.989 241.862 479.206 239.735 479.414C233.033 479.641 225.2 479.458 218.405 479.473L218.108 479.388C218.691 472.066 218.133 457.87 218.067 450.048Z"/><path fill="#28244D" transform="translate(-172 -96)" d="M247.925 597.434C248.286 596.892 248.364 596.697 248.728 596.631C253.207 595.821 274.993 595.909 278.03 596.59C277.751 596.842 277.472 597.094 277.193 597.345C269.28 597.742 255.309 597.525 247.925 597.434Z"/><path fill="#0B0928" transform="translate(-172 -96)" d="M309.291 540.231C314.465 539.532 331.118 539.181 336.045 540.328C330.211 540.676 314.713 540.749 309.291 540.231Z"/><path fill="#AE91D9" transform="translate(-172 -96)" d="M306.437 569.452C306.857 578.669 306.526 588.259 306.656 597.523C297.062 597.519 287.298 597.611 277.719 597.484C278.476 605.976 277.988 622.257 277.986 631.199L277.957 694.782C277.955 697.922 277.638 714.261 278.294 715.751L279.908 716.152L278.176 716.648C277.989 717.099 277.694 717.737 277.571 718.186C278.39 726.012 277.186 736.508 278.13 743.728C278.025 744.47 277.975 746.141 277.503 746.21C270.162 747.295 254.665 746.65 247.566 746.644C247.392 740.308 247.437 733.755 247.483 727.406C247.794 684.167 246.966 640.8 247.506 597.574L247.925 597.434C255.309 597.525 269.28 597.742 277.193 597.345C277.472 597.094 277.751 596.842 278.03 596.59L277.976 569.605C283.06 569.798 302.063 570.318 306.437 569.452Z"/><path fill="#AE91D9" transform="translate(-172 -96)" d="M345.659 510.901C352.058 511.212 359.509 511.034 366.002 511.011C366 520.62 365.799 531.003 366.081 540.551C356.559 540.563 346.082 540.802 336.641 540.544C337.439 546.691 336.996 563.019 336.987 569.834C331.069 569.886 311.168 570.358 306.437 569.452C306.673 565.371 306.16 542.474 306.961 540.73L309.291 540.231C314.713 540.749 330.211 540.676 336.045 540.328C336.604 540.253 336.273 540.355 336.927 539.782L337.025 511.045L345.659 510.901Z"/><path fill="#383364" transform="translate(-172 -96)" d="M575.113 656.934C604.65 657.263 635.484 657.102 665.024 656.849C664.977 661.871 664.52 681.828 665.347 685.292L664.207 684.513C656.807 684.102 605.31 683.635 602.003 685.401L603.188 685.89C603.816 691.908 603.498 700.477 603.542 706.743C603.636 719.813 603.413 732.954 603.545 746.029C602.805 746.931 603.257 746.666 602.252 746.925C594.698 746.111 583.247 746.75 575.409 746.57C575.449 756 575.767 767.036 575.357 776.341L575.633 776.957C575.648 779.368 575.688 791.476 576.125 792.999C576.487 788.399 576.889 782.89 576.755 778.32C585.036 778.414 593.712 778.638 601.957 778.429C601.952 796.222 602.433 816.839 601.79 834.387C596.227 834.408 579.766 834.159 575.309 835.343L575.081 777.016C564.627 776.868 553.939 776.933 543.469 776.898L543.497 747.03L486.168 746.977C485.953 756.826 486.11 767.046 486.132 776.922C475.861 776.907 465.562 776.844 455.294 777.02C456.751 774.626 456 749.413 455.681 745.231C446.492 744.785 435.758 745.112 426.453 745.183C426.389 727.287 427.328 701.632 426.074 684.519C410.527 684.024 384.264 684.116 367.798 684.508C367.388 684.784 366.978 685.06 366.568 685.336C367.409 682.178 367.032 661.771 367 656.977L415.447 656.917C428.058 657.141 442.374 657.151 454.977 656.853C454.997 676.452 455.366 697.27 454.802 716.775C459.769 716.207 467.758 716.404 472.942 716.409L503.938 716.454C525.911 716.464 553.715 715.601 575.27 716.628C574.805 697.191 575.186 676.495 575.113 656.934Z"/><path fill="#050415" transform="translate(-172 -96)" d="M454.802 716.775C459.769 716.207 467.758 716.404 472.942 716.409L503.938 716.454C525.911 716.464 553.715 715.601 575.27 716.628C570.764 718.392 553.008 717.765 547.232 717.768L505.446 717.776L477.452 717.764C470.462 717.76 461.491 718.029 454.802 716.775Z"/><path fill="#050415" transform="translate(-172 -96)" d="M602.003 685.401L603.188 685.89C603.816 691.908 603.498 700.477 603.542 706.743C603.636 719.813 603.413 732.954 603.545 746.029C602.805 746.931 603.257 746.666 602.252 746.925L601.398 745.264C602.325 743.317 602.207 692.267 602.003 685.401Z"/><path fill="#0B0928" transform="translate(-172 -96)" d="M575.357 776.341C572.982 774.697 573.686 749.654 575.165 746.108C577.719 744.775 597.781 744.835 601.398 745.264L602.252 746.925C594.698 746.111 583.247 746.75 575.409 746.57C575.449 756 575.767 767.036 575.357 776.341Z"/><path fill="#0B0928" transform="translate(-172 -96)" d="M453.745 666.946C455.316 668.992 454.48 706.475 454.256 711.605C452.747 708.94 453.555 672.46 453.745 666.946Z"/><path fill="#DE7FAD" transform="translate(-172 -96)" d="M486.168 746.977L543.497 747.03L543.469 776.898C553.939 776.933 564.627 776.868 575.081 777.016L575.309 835.343C574.138 836.095 574.108 835.96 572.677 835.951C564.887 835.149 551.635 835.845 543.446 835.729C543.443 845.562 543.642 856.358 543.423 866.122C541.595 866.502 529.182 866.323 526.564 866.298C513.253 866.169 499.659 866.468 486.379 866.131C483.619 864.376 461.427 865.34 456.082 865.272C456.002 858.438 456.609 841.326 455.324 835.629C454.607 832.697 454.682 780.385 455.294 777.02C465.562 776.844 475.861 776.907 486.132 776.922C486.11 767.046 485.953 756.826 486.168 746.977Z"/><path fill="#383364" transform="translate(-172 -96)" d="M455.324 835.629L486.14 835.703C486.109 843.846 485.633 858.444 486.379 866.131C483.619 864.376 461.427 865.34 456.082 865.272C456.002 858.438 456.609 841.326 455.324 835.629Z"/><path fill="#D1B9EE" transform="translate(-172 -96)" d="M239.735 479.414C242.303 479.45 244.939 479.52 247.501 479.498C247.472 518.573 247.091 558.525 247.506 597.574C246.966 640.8 247.794 684.167 247.483 727.406C247.437 733.755 247.392 740.308 247.566 746.644C243.541 746.626 219.904 747.183 218.159 745.852C218.778 735.734 218.415 722.861 218.409 712.471L218.402 655.941L218.405 479.473C225.2 479.458 233.033 479.641 239.735 479.414Z"/><path fill="#383364" transform="translate(-172 -96)" d="M218.108 479.388L218.405 479.473L218.402 655.941L218.409 712.471C218.415 722.861 218.778 735.734 218.159 745.852C214.514 744.515 194.437 745.184 189.304 745.321C189.136 737.652 189.472 729.39 189.486 721.631L189.455 667.669L189.447 481.043C193.171 481.073 215.315 480.678 217.681 481.471L218.108 479.388Z"/><path fill="#383364" transform="translate(-172 -96)" d="M307.036 685.559C319.647 685.981 333.152 685.452 345.854 685.684C349.606 685.752 363.85 685.897 366.568 685.336C365.432 693.615 366.03 705.776 365.974 714.431C348.439 714.441 325.642 713.819 308.539 715.016C308.515 711.352 308.591 707.829 308.078 704.199C307.403 707.509 307.498 712.447 307.079 716.257C306.604 708.449 307.031 693.82 307.036 685.559Z"/><path fill="#383364" transform="translate(-172 -96)" d="M543.446 835.729C551.635 835.845 564.887 835.149 572.677 835.951C573.603 836.631 574.3 836.801 574.243 838.037C573.869 846.192 574.267 857.355 573.72 865.252C569.431 865.295 546.519 865.029 543.423 866.122C543.642 856.358 543.443 845.562 543.446 835.729Z"/><path fill="#383364" transform="translate(-172 -96)" d="M277.571 718.186C280.464 717.509 302.129 718.065 306.247 718.116L306.255 744.975C301.884 745.063 281.25 746.605 278.478 744.079C278.356 743.968 278.246 743.845 278.13 743.728C277.186 736.508 278.39 726.012 277.571 718.186Z"/><path fill="#383364" transform="translate(-172 -96)" d="M487.711 867.588C491.777 867.88 495.858 867.817 499.932 867.797C514.112 867.727 528.301 867.916 542.479 867.706C541.918 877.691 541.981 887.022 542.189 897.01C525.004 897.812 505.229 897.392 487.883 897.32C487.951 887.408 487.748 877.504 487.711 867.588Z"/><path fill="#383364" transform="translate(-172 -96)" d="M219.206 747.755L277.1 747.755C276.079 755.634 276.377 766.599 276.387 774.843C274.248 775.262 261.739 775.06 258.616 775.052L219.54 775.059C219.558 765.829 219.562 756.992 219.206 747.755Z"/><path fill="#383364" transform="translate(-172 -96)" d="M451.683 778.271L452.999 778.159C453.803 779.102 453.679 828.435 453.523 834.872C445.977 834.237 436.589 834.472 428.875 834.469C427.78 834.5 427.911 834.471 426.818 834.273C426.004 832.249 426.508 783.85 426.513 778.447C434.958 778.519 443.237 778.412 451.683 778.271Z"/><path fill="#383364" transform="translate(-172 -96)" d="M486.05 118.039L544.035 118.039C543.371 125.52 543.695 135.825 543.762 143.543L544.055 148.936C548.762 148.057 569.192 148.639 575.474 148.539C575.371 177.372 574.938 207.825 575.584 236.538L575.436 237.039L575.456 240.545C574.974 244.842 575.202 249.374 575.171 253.716C574.997 278.135 575.565 302.655 575.11 327.063C579.101 327.059 599.004 327.457 601.345 326.434L603.538 327.615C612.917 328.008 621.875 328.09 631.263 328.102L631.219 381.435C631.186 392.583 630.906 406.224 631.389 417.294C626.992 417.237 611.359 416.35 608.932 418.406L606.783 418.637C604.953 421.194 606.108 430.858 605.877 435.276C605.884 469.84 606.461 506.159 605.797 540.545C601.708 540.536 579.612 540.778 576.504 540.051C576.08 548.142 576.493 561.461 576.513 569.897L453.981 569.96C454.003 560.295 454.24 549.661 453.852 540.073C445.954 539.1 433.357 539.186 425.241 539.494L425.05 540.452C416.078 540.77 406.025 540.573 396.972 540.596L397 511.013L366.002 511.011C366.383 500.868 365.878 489.75 366.16 479.294L365.668 479.159C367.109 474.636 366.071 425.914 366.061 418.077L395.276 418.007C395.859 408.26 395.475 395.123 395.478 385.009L395.416 326.146L425.034 326.03C425.469 296.765 425.042 266.397 425.037 237.041C434.046 237.041 445.816 237.425 454.528 236.839L454.51 148.527C465.074 148.561 475.72 148.667 486.277 148.534C486.574 139.206 486.403 127.305 486.05 118.039Z"/><path fill="#D1B9EE" transform="translate(-172 -96)" d="M486.05 118.039L544.035 118.039C543.371 125.52 543.695 135.825 543.762 143.543L544.055 148.936C548.762 148.057 569.192 148.639 575.474 148.539C575.371 177.372 574.938 207.825 575.584 236.538L575.436 237.039L575.456 240.545C574.974 244.842 575.202 249.374 575.171 253.716C574.997 278.135 575.565 302.655 575.11 327.063C579.101 327.059 599.004 327.457 601.345 326.434L603.538 327.615C603.505 347.406 603.313 367.885 603.617 387.635L576.304 387.491C576.358 383.37 577.082 358.736 575.918 356.587C570.281 356.1 558.185 356.449 552.173 356.447L504.817 356.437L471.615 356.429C467.486 356.427 457.659 356.179 453.968 356.833C453.961 361.584 453.683 384.796 454.37 387.724C448.137 387.098 432.354 387.6 425.511 387.7C425.538 367.663 425.701 347.442 425.442 327.421L426.85 326.947C434.922 327.395 446.659 327.025 455.019 327.031L454.937 237.024L454.528 236.839L454.51 148.527C465.074 148.561 475.72 148.667 486.277 148.534C486.574 139.206 486.403 127.305 486.05 118.039Z"/><path fill="#383364" transform="translate(-172 -96)" d="M544.055 148.936C548.762 148.057 569.192 148.639 575.474 148.539C575.371 177.372 574.938 207.825 575.584 236.538C574.073 236.421 573.722 236.542 572.355 235.968L574.35 235.117C566.928 234.238 550.556 236.342 543.355 234.561C543.909 209.313 542.903 183.382 543.506 158.153C544.984 155.063 544.77 153.266 544.931 149.826L544.055 148.936Z"/><path fill="#050415" transform="translate(-172 -96)" d="M544.055 148.936C548.762 148.057 569.192 148.639 575.474 148.539C575.371 177.372 574.938 207.825 575.584 236.538C574.073 236.421 573.722 236.542 572.355 235.968L574.35 235.117C573.558 227.204 573.946 212.766 573.947 204.483L574.049 150.03C564.416 150.058 554.537 150.206 544.931 149.826L544.055 148.936Z"/><path fill="#383364" transform="translate(-172 -96)" d="M454.51 148.527C465.074 148.561 475.72 148.667 486.277 148.534L486.045 149.918L486.033 201.357C486.03 209.324 486.348 220.178 485.979 227.926C485.517 230.368 485.181 232.321 484.882 234.807C474.487 235.521 465.672 234.731 455.754 235.008L455.681 237.024L454.937 237.024L454.528 236.839L454.51 148.527Z"/><path fill="#050415" transform="translate(-172 -96)" d="M454.51 148.527C465.074 148.561 475.72 148.667 486.277 148.534L486.045 149.918L456.051 150.051C456.038 178.243 456.288 206.858 455.754 235.008L455.681 237.024L454.937 237.024L454.528 236.839L454.51 148.527Z"/><path fill="#0B0928" transform="translate(-172 -96)" d="M486.05 118.039L544.035 118.039C543.371 125.52 543.695 135.825 543.762 143.543L543.586 148.57C525.248 148.108 504.7 148.409 486.277 148.534C486.574 139.206 486.403 127.305 486.05 118.039Z"/><path fill="#383364" transform="translate(-172 -96)" d="M499.873 119.749C513.985 119.51 527.993 119.858 542.1 120.083C541.91 129.026 541.912 138.347 542.354 147.273L530.252 147.14L487.693 147.283C487.359 138.967 487.653 128.451 487.639 119.918C491.706 119.943 495.803 119.831 499.873 119.749Z"/><path fill="#28244D" transform="translate(-172 -96)" d="M485.979 227.926L486.042 236.944C475.938 236.946 465.781 236.893 455.681 237.024L455.754 235.008C465.672 234.731 474.487 235.521 484.882 234.807C485.181 232.321 485.517 230.368 485.979 227.926Z"/><path fill="#28244D" transform="translate(-172 -96)" d="M543.355 234.561C550.556 236.342 566.928 234.238 574.35 235.117L572.355 235.968C573.722 236.542 574.073 236.421 575.584 236.538L575.436 237.039C565.222 236.726 554.196 237.403 544.246 236.857C543.119 235.91 543.58 236.513 543.355 234.561Z"/><path fill="#28244D" transform="translate(-172 -96)" d="M543.762 143.543L544.055 148.936L544.931 149.826C544.77 153.266 544.984 155.063 543.506 158.153C543.433 154.768 543.45 151.952 543.586 148.57L543.762 143.543Z"/><path fill="#AFD7CC" transform="translate(-172 -96)" d="M454.724 387.949L575.337 388.024L575.3 494.107L575.276 523.781C575.271 527.395 575.078 536.84 575.542 540.063L463.808 540.118C461.014 540.028 457.829 540.101 455.002 540.107L455.017 440.077C455.023 425.362 455.818 401.907 454.724 387.949Z"/><path fill="#CAF3D5" transform="translate(-172 -96)" d="M486.019 418.56L516.93 418.623L516.85 479.764C516.843 487.301 517.426 502.587 516.766 509.294C507.48 508.799 495.473 509.098 485.98 509.06L486.019 418.56Z"/><path fill="#383364" transform="translate(-172 -96)" d="M454.528 236.839L454.937 237.024L455.019 327.031C446.659 327.025 434.922 327.395 426.85 326.947L425.442 327.421C416.461 328.126 406.06 328.148 397.049 328.016L396.993 384.592C396.992 394.721 397.338 407.546 396.628 417.497C400.271 417.334 419.284 416.615 421.365 417.924L421.519 418.43C412.868 418.451 404.133 418.536 395.49 418.455L395.514 479.468C386.722 479.455 374.627 479.785 366.16 479.294L365.668 479.159C367.109 474.636 366.071 425.914 366.061 418.077L395.276 418.007C395.859 408.26 395.475 395.123 395.478 385.009L395.416 326.146L425.034 326.03C425.469 296.765 425.042 266.397 425.037 237.041C434.046 237.041 445.816 237.425 454.528 236.839Z"/><path fill="#0B0928" transform="translate(-172 -96)" d="M425.037 237.041C434.046 237.041 445.816 237.425 454.528 236.839C454.228 257.953 455.064 279.758 454.681 300.948C454.601 305.397 455.096 321.647 454.189 324.781L454.003 324.072L454.142 324.78C454.305 323.658 454.428 324.149 453.88 323.281C453.081 314.488 453.558 305.152 453.417 296.283C453.117 277.277 453.871 257.498 453.223 238.557C444.223 238.992 435.519 239.159 426.511 239.26L426.458 301.149C426.455 305.317 426.043 324.311 426.85 326.947L425.442 327.421C416.461 328.126 406.06 328.148 397.049 328.016L396.993 384.592C396.992 394.721 397.338 407.546 396.628 417.497C400.271 417.334 419.284 416.615 421.365 417.924L421.519 418.43C412.868 418.451 404.133 418.536 395.49 418.455L395.514 479.468C386.722 479.455 374.627 479.785 366.16 479.294L365.668 479.159C367.109 474.636 366.071 425.914 366.061 418.077L395.276 418.007C395.859 408.26 395.475 395.123 395.478 385.009L395.416 326.146L425.034 326.03C425.469 296.765 425.042 266.397 425.037 237.041Z"/><path fill="#383364" transform="translate(-172 -96)" d="M385.117 419.777C387.19 419.66 392.925 419.113 394.434 419.93C395.543 429.658 394.151 435.288 394.296 443.982C394.491 455.638 394.268 466.623 394.239 478.269L378.174 478.069C374.723 478.06 370.992 478.233 367.519 478.331L367.494 419.884C373.39 419.96 379.224 419.862 385.117 419.777Z"/><path fill="#AE91D9" transform="translate(-172 -96)" d="M421.519 418.43C423.767 418.618 423.616 418.222 424.878 419.429C425.334 428.724 424.952 440.68 424.952 450.25L424.97 508.531C424.969 513.358 424.626 536.029 425.241 539.494L425.05 540.452C416.078 540.77 406.025 540.573 396.972 540.596L397 511.013L366.002 511.011C366.383 500.868 365.878 489.75 366.16 479.294C374.627 479.785 386.722 479.455 395.514 479.468L395.49 418.455C404.133 418.536 412.868 418.451 421.519 418.43Z"/><path fill="#0B0928" transform="translate(-172 -96)" d="M454.37 387.724L454.724 387.949C454.023 391.213 454.735 407.358 454.689 411.916L454.591 499.984C454.585 507.09 455.141 531.157 454.036 536.74C452.313 534.142 453.239 403.717 453.419 388.377L450.955 388.293C452.048 388.251 452.369 388.195 453.408 387.953L454.37 387.724Z"/><path fill="#0B0928" transform="translate(-172 -96)" d="M604.437 539.304C603.963 502.295 604.619 464.705 604.482 427.645C604.472 425.13 605.064 422.766 605.024 419.939L605.01 419.337C605.409 424.269 605.017 430.667 605.877 435.276C605.884 469.84 606.461 506.159 605.797 540.545C601.708 540.536 579.612 540.778 576.504 540.051C579.649 539.222 599.931 539.348 604.437 539.304Z"/><path fill="#050415" transform="translate(-172 -96)" d="M453.968 356.833C457.659 356.179 467.486 356.427 471.615 356.429L504.817 356.437L552.173 356.447C558.185 356.449 570.281 356.1 575.918 356.587L575.76 357.601C573.025 358.231 563.854 357.971 560.853 357.959L536.671 357.961L486.824 357.976C481.515 357.976 456.771 358.609 453.968 356.833Z"/><path fill="#0B0928" transform="translate(-172 -96)" d="M575.542 540.063L575.843 541.556L575.438 542.03C567.094 541.737 558.495 542.315 550.25 541.934C524.106 540.723 497.956 541.371 471.789 541.274C466.545 541.254 461.054 541.631 455.887 540.874C458.747 540.818 461.025 540.904 463.808 540.118L575.542 540.063Z"/><path fill="#28244D" transform="translate(-172 -96)" d="M577.449 388.278C579.785 387.478 600.94 387.688 603.701 388.575C600.086 389 579.632 389.777 577.449 388.278Z"/><path fill="#383364" transform="translate(-172 -96)" d="M575.436 237.039L603.496 237.048L603.551 326.1L632.988 326.123C632.688 355.804 632.452 388.42 633.056 418.039C642.973 418.05 653.202 418.177 663.097 418.063L663.057 456.481C663.06 463.152 662.8 472.836 663.489 479.149L693.367 479.03C693.073 487.338 692.768 501.838 693.218 510.071C712.147 510.068 732.209 509.714 751.04 510.111L751.047 450.076L811.012 450.021C810.94 459.793 810.853 469.671 811.069 479.435C821.009 479.489 830.973 479.587 840.911 479.484L840.905 631.407C840.91 669.346 840.34 709.03 841.015 746.874C834.307 746.379 819.069 746.546 812.157 746.836L811.033 747.102L807.032 747.264C808.222 747.703 808.15 747.669 809.099 748.515C809.603 752.065 809.002 770.401 808.969 774.928C800.583 775.079 792.025 774.995 783.625 774.994L783.673 747.876C784.323 747.839 791.482 747.41 791.577 747.319C789.294 747.258 786.023 747.249 783.838 746.941L782.851 746.793C782.2 737.528 782.547 725.872 782.483 716.327C782.609 710.678 782.642 704.814 782.544 699.166C781.96 665.415 783.234 631.264 782.375 597.551C780.391 597.545 775.466 597.637 773.732 597.42C765.939 597.479 758.193 597.56 750.399 597.406C749.862 591.664 750.389 576.044 750.439 569.67L722.272 569.931C722.241 565.339 722.946 542.897 722.028 540.302C714.788 540.905 700.42 540.517 692.539 540.532C692.551 536.16 693.191 513.597 691.891 511.216L690.261 510.905C684.395 511.29 674.925 511.11 668.917 510.956L668.063 509.551C666.735 509.299 666.15 509.324 665.062 508.545C664.605 505.352 664.844 484.985 665.185 481.559C666.1 480.824 666.888 481.024 668.317 480.896C666.443 480.672 665.419 480.605 663.534 480.582L663.091 479.988C661.133 478.969 637.338 479.414 633.51 479.427C633.634 459.458 633.77 438.428 633.361 418.51L608.932 418.406C611.359 416.35 626.992 417.237 631.389 417.294C630.906 406.224 631.186 392.583 631.219 381.435L631.263 328.102C621.875 328.09 612.917 328.008 603.538 327.615L601.345 326.434C599.004 327.457 579.101 327.059 575.11 327.063C575.565 302.655 574.997 278.135 575.171 253.716C575.202 249.374 574.974 244.842 575.456 240.545L575.436 237.039Z"/><path fill="#383364" transform="translate(-172 -96)" d="M752.255 451.863L809.335 451.937C809.295 460.818 809.397 469.338 809.625 478.218C801.365 478.11 790.052 477.73 781.962 478.766L790.51 479.421C787.7 479.472 784.945 479.543 782.133 479.472C782.724 518.639 782.033 558.283 782.375 597.551C780.391 597.545 775.466 597.637 773.732 597.42C765.939 597.479 758.193 597.56 750.399 597.406C749.862 591.664 750.389 576.044 750.439 569.67L722.272 569.931C722.241 565.339 722.946 542.897 722.028 540.302C717.167 539.375 693.08 539.683 693.308 539.76L692.982 538.723C694.413 535.44 693.763 516.533 693.755 511.498C696.646 511.988 699.546 512.078 702.472 512.132C707.818 512.231 749.584 512.934 751.056 511.043C753.568 507.816 752.268 459.472 752.255 451.863Z"/><path fill="#0B0928" transform="translate(-172 -96)" d="M750.399 597.406C755.364 595.98 768.713 596.349 773.732 597.42C765.939 597.479 758.193 597.56 750.399 597.406Z"/><path fill="#D1B9EE" transform="translate(-172 -96)" d="M790.51 479.421C794.353 479.403 807.146 479.161 810.339 479.816L811.055 480.582C810.681 503.595 810.972 527.327 810.976 550.38L810.968 746.685C804.749 746.566 788.349 746.085 782.851 746.793C782.2 737.528 782.547 725.872 782.483 716.327C782.609 710.678 782.642 704.814 782.544 699.166C781.96 665.415 783.234 631.264 782.375 597.551C782.033 558.283 782.724 518.639 782.133 479.472C784.945 479.543 787.7 479.472 790.51 479.421Z"/><path fill="#0B0928" transform="translate(-172 -96)" d="M575.436 237.039L603.496 237.048L603.551 326.1L632.988 326.123C632.688 355.804 632.452 388.42 633.056 418.039C642.973 418.05 653.202 418.177 663.097 418.063L663.057 456.481C663.06 463.152 662.8 472.836 663.489 479.149L693.367 479.03C693.073 487.338 692.768 501.838 693.218 510.071C712.147 510.068 732.209 509.714 751.04 510.111L751.047 450.076L811.012 450.021C810.94 459.793 810.853 469.671 811.069 479.435C821.009 479.489 830.973 479.587 840.911 479.484L840.905 631.407C840.91 669.346 840.34 709.03 841.015 746.874C834.307 746.379 819.069 746.546 812.157 746.836L812.501 746.02C814.823 744.988 835.4 744.997 839.445 744.937L839.382 481.014C834.353 481.067 814.257 481.755 811.055 480.582L810.339 479.816C807.146 479.161 794.353 479.403 790.51 479.421L781.962 478.766C790.052 477.73 801.365 478.11 809.625 478.218C809.397 469.338 809.295 460.818 809.335 451.937L752.255 451.863C752.268 459.472 753.568 507.816 751.056 511.043C749.584 512.934 707.818 512.231 702.472 512.132C699.546 512.078 696.646 511.988 693.755 511.498C693.763 516.533 694.413 535.44 692.982 538.723L693.308 539.76C693.08 539.683 717.167 539.375 722.028 540.302C714.788 540.905 700.42 540.517 692.539 540.532C692.551 536.16 693.191 513.597 691.891 511.216L690.261 510.905C684.395 511.29 674.925 511.11 668.917 510.956L668.063 509.551C666.735 509.299 666.15 509.324 665.062 508.545C664.605 505.352 664.844 484.985 665.185 481.559C666.1 480.824 666.888 481.024 668.317 480.896C666.443 480.672 665.419 480.605 663.534 480.582L663.091 479.988C661.133 478.969 637.338 479.414 633.51 479.427C633.634 459.458 633.77 438.428 633.361 418.51L608.932 418.406C611.359 416.35 626.992 417.237 631.389 417.294C630.906 406.224 631.186 392.583 631.219 381.435L631.263 328.102C621.875 328.09 612.917 328.008 603.538 327.615L601.345 326.434C599.004 327.457 579.101 327.059 575.11 327.063C575.565 302.655 574.997 278.135 575.171 253.716C575.202 249.374 574.974 244.842 575.456 240.545L575.436 237.039Z"/><path fill="#383364" transform="translate(-172 -96)" d="M575.456 240.545L576.168 240.458C576.744 238.842 576.243 239.489 577.869 238.576C585.422 238.523 594.074 239.05 601.892 239.119L601.983 304.097C601.983 307.419 602.35 323.925 601.861 325.694L600.728 326.19L601.345 326.434C599.004 327.457 579.101 327.059 575.11 327.063C575.565 302.655 574.997 278.135 575.171 253.716C575.202 249.374 574.974 244.842 575.456 240.545Z"/><path fill="#383364" transform="translate(-172 -96)" d="M668.917 510.956L668.063 509.551C666.735 509.299 666.15 509.324 665.062 508.545C664.605 505.352 664.844 484.985 665.185 481.559C666.1 480.824 666.888 481.024 668.317 480.896C675.51 481.362 684.545 481.077 691.922 481.057L691.943 509.473C688.911 509.543 685.553 509.516 682.587 510.003L683.689 509.895L683.74 510.341C685.959 510.501 688.044 510.657 690.261 510.905C684.395 511.29 674.925 511.11 668.917 510.956Z"/><path fill="#383364" transform="translate(-172 -96)" d="M634.755 419.472C643.855 420.002 652.582 419.986 661.681 419.996C661.878 422.745 661.785 425.509 661.798 428.264C661.872 444.928 661.54 461.608 661.91 478.269C657.552 477.999 636.787 479.016 635.031 477.282C633.975 460.916 634.747 436.437 634.755 419.472Z"/><path fill="#28244D" transform="translate(-172 -96)" d="M663.534 480.582C665.419 480.605 666.443 480.672 668.317 480.896C666.888 481.024 666.1 480.824 665.185 481.559C664.844 484.985 664.605 505.352 665.062 508.545C666.15 509.324 666.735 509.299 668.063 509.551L668.917 510.956C667.06 511.015 665.083 511.291 663.594 510.413C662.988 504.187 663.323 487.216 663.534 480.582Z"/><path fill="#0B0928" transform="translate(-172 -96)" d="M425.241 539.494C433.357 539.186 445.954 539.1 453.852 540.073C450.701 540.867 429.593 540.481 425.05 540.452L425.241 539.494Z"/><path fill="#0B0928" transform="translate(-172 -96)" d="M602.003 685.401C605.31 683.635 656.807 684.102 664.207 684.513L665.347 685.292C668.524 685.65 672.012 685.638 675.221 685.613C691.101 685.491 707.076 685.811 722.948 685.519L722.968 716.118C724.971 716.195 727.626 716.213 729.565 716.407C746.617 716.378 765.667 716.859 782.483 716.327C782.547 725.872 782.2 737.528 782.851 746.793L783.838 746.941C786.023 747.249 789.294 747.258 791.577 747.319C791.482 747.41 784.323 747.839 783.673 747.876L783.625 774.994C792.025 774.995 800.583 775.079 808.969 774.928C809.002 770.401 809.603 752.065 809.099 748.515C808.15 747.669 808.222 747.703 807.032 747.264L811.033 747.102C810.847 756.867 810.935 766.701 810.96 776.473C801.423 776.351 791.641 776.469 782.084 776.475C782.646 767.811 782.221 756.11 782.342 747.022C777.81 746.576 772.503 746.584 767.928 746.663C752.752 746.923 737.159 746.144 722.02 746.988C722.416 737.561 722.098 725.626 722.09 716.01C702.791 715.977 683.294 715.807 664.011 716.08C664.157 706.065 664.12 695.989 664.14 685.969C647.936 685.606 631.581 686.071 615.363 685.797C611.712 685.735 606.706 685.533 603.188 685.89L602.003 685.401Z"/><path fill="#383364" transform="translate(-172 -96)" d="M665.347 685.292C668.524 685.65 672.012 685.638 675.221 685.613C691.101 685.491 707.076 685.811 722.948 685.519L722.968 716.118C724.971 716.195 727.626 716.213 729.565 716.407C727.514 716.622 724.618 716.549 722.492 716.559L722.185 709.336L721.682 709.516C721.767 711.334 721.885 712.039 721.471 713.847C721.149 714.067 720.827 714.287 720.505 714.507C704.106 714.635 681.367 714.334 665.501 714.629C665.527 705.092 665.68 694.804 665.347 685.292Z"/><path fill="#383364" transform="translate(-172 -96)" d="M723.359 717.717C742.337 718.264 762.238 717.975 781.239 717.752C781.067 727.03 783.343 735.818 781.223 744.781C777.461 745.432 762.573 745.301 758.167 745.26L723.497 745.215L723.359 717.717Z"/></g></svg>